<svg width="50" height="50" viewBox="0 0 50 50" fill="none" xmlns="http://www.w3.org/2000/svg">
<path d="M14.8202 0.385742C16.3981 5.00336 20.5537 7.17544 23.2876 9.85537C25.7091 12.2306 26.209 15.4028 22.3659 16.395C19.2492 20.6611 13.336 15.5668 12.9689 10.7305C12.6408 7.31607 14.4687 5.91751 14.8202 0.385742Z" fill="#78E75A"/>
<path d="M19.4662 18.3877C19.0757 18.3877 18.6773 18.333 18.2633 18.2158C15.42 17.4032 12.8188 13.9966 12.5767 10.762C12.4126 8.98055 12.811 7.70699 13.2719 6.23029C13.7327 4.75359 14.2561 3.08156 14.4279 0.36256C14.4436 0.175043 14.5842 0.0265921 14.7638 0.00315239C14.9513 -0.0202873 15.1231 0.0890978 15.1856 0.260989C16.3027 3.52692 18.7398 5.51929 21.0988 7.44916C21.9814 8.16797 22.8094 8.84772 23.5593 9.58217C25.1372 11.1292 25.848 12.895 25.4653 14.317C25.2466 15.1296 24.567 16.2 22.5907 16.7391C21.7549 17.8251 20.677 18.3877 19.4662 18.3877ZM15.0607 1.96427C14.8107 3.91758 14.3811 5.30052 14.0139 6.45688C13.5609 7.91014 13.2016 9.05868 13.35 10.6838C13.5687 13.5747 15.959 16.7313 18.4742 17.4501C19.4662 17.7314 20.8879 17.7392 22.0439 16.1531C22.0986 16.0828 22.1767 16.0281 22.2627 16.0046C23.6218 15.653 24.4654 14.9967 24.7076 14.0982C25.0122 12.9731 24.3561 11.4495 23.0047 10.1213C22.2861 9.41027 21.4659 8.74615 20.5989 8.03515C18.6148 6.42562 16.4042 4.62077 15.0607 1.96427Z" fill="#333333"/>
<path d="M24.5849 25.1775C24.5536 25.1775 24.5224 25.1775 24.4912 25.1697C24.2802 25.1228 24.1475 24.9119 24.2021 24.7009C24.5771 23.1226 23.546 18.0675 22.4602 17.0674C21.8822 16.5361 21.2104 16.0595 20.5699 15.6063C19.8669 15.1063 19.1404 14.5984 18.4999 13.989C16.6252 12.2154 15.516 9.61356 15.5394 7.02738C15.5394 6.81642 15.7191 6.63672 15.93 6.63672C16.1487 6.63672 16.3206 6.81642 16.3206 7.02738C16.3049 9.39479 17.3204 11.7856 19.0389 13.4108C19.6403 13.9812 20.3434 14.4812 21.0229 14.9578C21.6869 15.4266 22.3743 15.911 22.9914 16.4814C24.3896 17.7628 25.366 23.1695 24.9598 24.865C24.9208 25.0603 24.7645 25.1775 24.5849 25.1775Z" fill="#333333"/>
<path d="M34.3878 2.53467C31.9038 6.31627 32.6771 10.5979 32.2631 14.1217C31.896 17.247 29.8573 19.419 26.9515 17.161C22.0538 17.3017 22.4287 10.0666 25.7563 7.05071C28.0763 4.87864 30.1385 5.41775 34.3878 2.53467Z" fill="#78E75A"/>
<path d="M29.2146 18.4816C28.5663 18.4816 27.7539 18.255 26.8165 17.5518H26.8087C25.1293 17.5518 23.8795 16.7236 23.2624 15.2C22.2391 12.6451 23.2546 8.78538 25.4964 6.76176C26.7072 5.62103 27.871 5.1913 29.2146 4.69125C30.5581 4.19121 32.0813 3.62084 34.1669 2.20665C34.3232 2.10507 34.5263 2.1207 34.659 2.25353C34.7918 2.38635 34.8153 2.5895 34.7137 2.74576C32.9562 5.41788 32.8859 8.33222 32.8156 11.145C32.7922 12.1998 32.7609 13.1999 32.6516 14.1609C32.4172 16.2079 31.5189 17.7393 30.2535 18.2706C29.9723 18.3957 29.6208 18.4816 29.2146 18.4816ZM26.9493 16.7705C27.0352 16.7705 27.1212 16.8018 27.1915 16.8486C28.2147 17.6378 29.1677 17.88 29.9488 17.5518C30.9331 17.1377 31.6751 15.8017 31.8782 14.0671C31.9876 13.1374 32.011 12.1607 32.0345 11.1215C32.0969 8.76976 32.1594 6.14451 33.3077 3.66772C31.7689 4.56624 30.5347 5.02722 29.4958 5.41007C28.1757 5.9023 27.1368 6.29296 26.0276 7.32431C24.0435 9.12135 23.0905 12.6607 23.9888 14.8953C24.3403 15.7704 25.1371 16.8174 26.9337 16.7549C26.9415 16.7705 26.9415 16.7705 26.9493 16.7705Z" fill="#333333"/>
<path d="M24.5801 25.1773C24.4317 25.1773 24.2911 25.0913 24.2208 24.9507C24.1348 24.7553 24.2208 24.521 24.4161 24.435C25.3925 23.9897 26.2205 20.0205 26.447 17.325C26.5095 16.5983 26.4704 15.8405 26.4392 15.1138C26.4079 14.3169 26.3689 13.4887 26.447 12.6683C26.6813 10.2774 27.9624 7.98035 29.8683 6.51928C30.0402 6.38646 30.2823 6.41771 30.4151 6.5896C30.5479 6.76149 30.5167 7.0037 30.3448 7.13653C28.6029 8.46477 27.439 10.5587 27.2203 12.7386C27.1422 13.5043 27.1812 14.3013 27.2125 15.0748C27.2437 15.8326 27.2828 16.614 27.2125 17.3875C27.2047 17.4578 26.6188 24.2787 24.7285 25.1382C24.6894 25.1695 24.6348 25.1773 24.5801 25.1773Z" fill="#333333"/>
<path d="M33.9222 22.8179L31.6413 25.0993C30.8836 25.8572 29.7197 26.0447 28.7667 25.5681C27.4857 24.9196 26.0875 24.5524 24.6502 24.4665C23.9784 24.4274 23.3223 24.6852 22.8536 25.1697L17.7138 30.4045C17.5107 30.6077 17.4872 30.928 17.6513 31.1624C18.3543 32.1625 19.7291 32.4281 20.7524 31.7562L25.1735 28.8731L17.8231 36.2254C17.9715 36.3035 18.12 36.3973 18.2606 36.5301C20.7367 38.9209 22.7599 41.7493 25.2126 44.1636C26.1031 45.0387 26.9701 45.8122 27.7903 46.6013L33.93 40.4601C35.047 39.3428 35.8125 37.9286 36.1328 36.3816C36.453 34.8346 37.2185 33.4204 38.3356 32.3031L40.8742 29.7716L33.9222 22.8179Z" fill="#F9BD75"/>
<path d="M27.7898 46.992C27.6883 46.992 27.5946 46.953 27.5165 46.8826C27.1728 46.5467 26.8134 46.2185 26.4541 45.8825C25.962 45.4216 25.4543 44.945 24.9387 44.4449C23.7358 43.2573 22.6188 41.9525 21.5408 40.7024C20.416 39.3898 19.2521 38.0303 17.9945 36.8114C17.9008 36.7176 17.7914 36.6473 17.6508 36.577C17.5415 36.5223 17.4633 36.4129 17.4399 36.2879C17.4165 36.1629 17.4633 36.0379 17.5493 35.9519L22.236 31.2484L20.9706 32.0766C19.7599 32.8657 18.1664 32.561 17.3384 31.3812C17.065 30.9905 17.1118 30.4671 17.4399 30.1311L22.5797 24.8962C23.1265 24.3337 23.8998 24.0446 24.681 24.0837C26.1885 24.1696 27.618 24.5524 28.9459 25.2244C29.7505 25.6307 30.7269 25.4666 31.3674 24.8259L33.6483 22.5444C33.8045 22.3882 34.0467 22.3882 34.2029 22.5444L41.1471 29.4904C41.3034 29.6467 41.3034 29.8889 41.1471 30.0451L38.6163 32.5844C37.5539 33.647 36.8275 34.9909 36.5229 36.4676C36.187 38.0928 35.3902 39.5695 34.2107 40.7414L28.0632 46.8748C27.9851 46.953 27.8836 46.992 27.7898 46.992ZM18.4319 36.1551C18.4632 36.1863 18.4944 36.2098 18.5257 36.241C19.8145 37.4833 20.9862 38.8585 22.1267 40.1789C23.1968 41.4212 24.2982 42.7104 25.4855 43.8745C25.9933 44.3746 26.4932 44.8434 26.9853 45.3044C27.2587 45.5544 27.5243 45.8044 27.782 46.0544L33.6561 40.1789C34.7185 39.1163 35.4449 37.7724 35.7495 36.2957C36.0854 34.6706 36.8822 33.1939 38.0617 32.0219L40.3191 29.7639L33.9295 23.3726L31.922 25.3806C31.0472 26.2635 29.7114 26.4745 28.5944 25.9198C27.3602 25.2947 26.0245 24.9431 24.6341 24.8572C24.0795 24.8259 23.5327 25.0369 23.1343 25.4432L17.9945 30.678C17.9242 30.7483 17.9164 30.8577 17.9711 30.9358C18.5569 31.7719 19.6896 31.9828 20.541 31.4281L24.9622 28.545C25.134 28.4356 25.3527 28.4669 25.4777 28.6231C25.6027 28.7794 25.5949 29.006 25.4543 29.1466L18.4319 36.1551Z" fill="#333333"/>
<path d="M34.6484 38.71L24.8061 28.8653C25.2279 27.9746 24.9702 26.912 24.1734 26.3338C24.0406 26.2401 23.9157 26.1307 23.7829 25.9822C23.1345 25.3025 22.1113 25.1384 21.2598 25.5447L21.1036 25.6228C20.1975 26.0604 19.1117 25.8807 18.4009 25.1618L16.0575 22.8179L9.11328 29.7638L11.6441 32.2953C12.7768 33.4282 13.5188 34.8737 13.8625 36.4441C14.1906 37.9677 14.9483 39.3585 16.0497 40.4601L23.9391 48.3515C24.6265 49.0391 25.7591 49.1406 26.4856 48.4921C27.2589 47.7968 27.2901 46.6091 26.5637 45.8825L27.0324 46.3513C27.6494 46.9686 28.6259 47.117 29.3445 46.6248C30.3131 45.9685 30.4068 44.6324 29.6179 43.8511L30.0163 44.2495C30.6334 44.8668 31.6098 45.0152 32.3362 44.5308C33.3048 43.8745 33.3985 42.5385 32.6174 41.7571L32.1722 41.3118C32.9533 42.0931 34.2812 42.0072 34.9374 41.0461C35.4139 40.3117 35.2654 39.3272 34.6484 38.71Z" fill="#F9BD75"/>
<path d="M34.9317 41.0384C34.2755 41.9994 32.9476 42.0854 32.1665 41.3041L32.6117 41.7494C33.3928 42.5386 33.2991 43.8668 32.3305 44.5231C31.6119 45.0153 30.6276 44.8591 30.0106 44.2497L29.745 43.984C30.3855 44.7809 30.2527 46.0076 29.3388 46.6249C28.6201 47.1093 27.6437 46.9608 27.0345 46.3514L26.5658 45.8826C27.2922 46.6092 27.261 47.8047 26.4877 48.4922C25.7612 49.1407 24.6286 49.0392 23.9412 48.3516L22.5664 46.9765C23.2538 47.664 24.3786 47.7656 25.1051 47.1171C25.8784 46.4217 25.9096 45.2263 25.1832 44.4997L25.6519 44.9685C26.269 45.5857 27.2454 45.7342 27.964 45.2419C28.9326 44.5856 29.0185 43.2574 28.2374 42.4682L28.628 42.8667C29.2451 43.484 30.2293 43.6324 30.9479 43.148C31.9165 42.4917 32.0102 41.1556 31.2291 40.3665L30.7839 39.9211C31.565 40.7103 32.8929 40.6243 33.5491 39.6555C34.0021 38.9913 33.9084 38.1006 33.4085 37.4756L34.6583 38.7179C35.2754 39.3273 35.4238 40.3118 34.9317 41.0384Z" fill="#EAAC68"/>
<path d="M25.3138 49.3204C24.7202 49.3204 24.1187 49.086 23.6578 48.625L15.7684 40.7336C14.6124 39.5773 13.8234 38.124 13.4719 36.5301C13.136 34.9909 12.4096 33.6236 11.3629 32.5766L8.83201 30.0373C8.67579 29.8811 8.67579 29.6389 8.83201 29.4826L15.7762 22.5366C15.9325 22.3804 16.1746 22.3804 16.3308 22.5366L18.6742 24.8806C19.2679 25.4744 20.174 25.6307 20.9317 25.2634L21.0879 25.1853C22.1034 24.6931 23.2985 24.904 24.0562 25.701C24.1812 25.826 24.2827 25.9198 24.3999 26.0057C25.2669 26.6386 25.6028 27.7559 25.2591 28.7638L34.9295 38.4365C35.7028 39.2101 35.8356 40.3899 35.2498 41.2571C34.8748 41.804 34.289 42.1556 33.6406 42.2181C33.5469 42.226 33.461 42.226 33.3672 42.226C33.4922 42.5385 33.5391 42.8901 33.5078 43.2339C33.4454 43.8902 33.0938 44.4762 32.5392 44.8512C31.9378 45.2575 31.1879 45.3122 30.5239 45.0465C30.5239 45.1403 30.5239 45.234 30.5161 45.3356C30.4536 45.9919 30.1021 46.5779 29.5553 46.953C28.9382 47.3749 28.1493 47.4218 27.4775 47.1249V47.2108C27.4619 47.8202 27.2041 48.3828 26.7433 48.7891C26.3371 49.1407 25.8294 49.3204 25.3138 49.3204ZM9.66001 29.7639L11.9175 32.0219C13.0735 33.1782 13.8781 34.6784 14.2374 36.3582C14.5499 37.8115 15.2685 39.1319 16.323 40.1789L24.2124 48.0781C24.7748 48.6406 25.6731 48.6953 26.2199 48.2031C26.5167 47.9374 26.6808 47.578 26.6886 47.1874C26.6964 46.7967 26.5558 46.4295 26.2824 46.156C26.2043 46.0779 26.1652 45.9763 26.1652 45.8825C26.1652 45.7888 26.2043 45.6794 26.2824 45.6091C26.4386 45.4528 26.6808 45.4528 26.837 45.6091L27.3057 46.0779C27.7978 46.5701 28.5789 46.6717 29.1179 46.3045C29.4772 46.0623 29.7038 45.6872 29.7428 45.2653C29.7819 44.8434 29.6335 44.4371 29.3366 44.1324C29.1804 43.9761 29.1804 43.7339 29.3366 43.5776C29.4928 43.4214 29.735 43.4214 29.8912 43.5776L30.2818 43.9761C30.7817 44.4762 31.5628 44.5699 32.1018 44.2105C32.4611 43.9683 32.6877 43.5933 32.7267 43.1714C32.7658 42.7494 32.6174 42.3353 32.3205 42.0384L31.8753 41.5931C31.7972 41.515 31.7581 41.4134 31.7581 41.3196C31.7581 41.2259 31.7972 41.1165 31.8753 41.0462C32.0315 40.8899 32.2737 40.8899 32.4299 41.0462C32.7267 41.3431 33.1407 41.4915 33.5625 41.4525C33.9843 41.4134 34.3515 41.1946 34.6014 40.8352C34.9686 40.2961 34.8748 39.507 34.3749 39.0069L24.5327 29.1622C24.4155 29.0451 24.3843 28.8653 24.4546 28.7169C24.7983 27.9981 24.5796 27.1308 23.9468 26.6698C23.7984 26.5604 23.6578 26.4354 23.5016 26.2714C22.9704 25.7166 22.1424 25.576 21.4316 25.9198L21.2754 25.9979C20.2209 26.5058 18.9554 26.2948 18.1274 25.4666L16.0574 23.3961L9.66001 29.7639Z" fill="#333333"/>
<path d="M28.7667 25.5679C27.4857 24.9194 26.0875 24.5522 24.6502 24.4663C23.9784 24.4272 23.3223 24.685 22.8536 25.1695L17.7138 30.4043C17.5107 30.6075 17.4872 30.9278 17.6513 31.1622C18.3543 32.1623 19.7291 32.428 20.7524 31.756L25.1735 28.8729" fill="#F9BD75"/>
<path d="M19.5099 32.514C18.6741 32.514 17.8539 32.1156 17.3384 31.3811C17.065 30.9905 17.1118 30.467 17.4399 30.131L22.5797 24.8962C23.1265 24.3336 23.8998 24.0445 24.681 24.0836C26.1885 24.1695 27.618 24.5524 28.9459 25.2243C29.1412 25.3181 29.2193 25.5525 29.1178 25.7478C29.024 25.9431 28.7819 26.0134 28.5944 25.9197C27.3602 25.3024 26.0323 24.943 24.6341 24.8571C24.0795 24.8258 23.5327 25.0368 23.1343 25.4431L17.9945 30.6779C17.9242 30.7483 17.9164 30.8576 17.9711 30.9358C18.5569 31.7718 19.6896 31.9827 20.541 31.428L24.9622 28.5449C25.1418 28.4277 25.384 28.4746 25.5011 28.6621C25.6183 28.8418 25.5714 29.084 25.384 29.2012L20.9628 32.0843C20.5097 32.3734 20.0098 32.514 19.5099 32.514Z" fill="#333333"/>
<path d="M32.1599 41.6945C32.0584 41.6945 31.9568 41.6554 31.8865 41.5773L30.8242 40.5147C30.668 40.3584 30.668 40.1162 30.8242 39.96C30.9804 39.8037 31.2226 39.8037 31.3788 39.96L32.4411 41.0226C32.5974 41.1788 32.5974 41.421 32.4411 41.5773C32.363 41.6554 32.2615 41.6945 32.1599 41.6945Z" fill="#333333"/>
<path d="M29.613 44.2419C29.5115 44.2419 29.41 44.2028 29.3397 44.1247L28.2461 43.0308C28.0898 42.8746 28.0898 42.6323 28.2461 42.4761C28.4023 42.3198 28.6444 42.3198 28.8007 42.4761L29.8943 43.5699C30.0505 43.7262 30.0505 43.9684 29.8943 44.1247C29.8161 44.2028 29.7146 44.2419 29.613 44.2419Z" fill="#333333"/>
<path d="M26.5662 46.2731C26.4646 46.2731 26.3631 46.2341 26.2928 46.1559L25.1211 44.984C24.9648 44.8277 24.9648 44.5855 25.1211 44.4292C25.2773 44.2729 25.5194 44.2729 25.6757 44.4292L26.8474 45.6012C27.0036 45.7575 27.0036 45.9997 26.8474 46.1559C26.7614 46.2341 26.6599 46.2731 26.5662 46.2731Z" fill="#333333"/>
<path d="M13.7636 41.8741C13.0996 41.21 13.0996 40.1318 13.7636 39.4598L15.732 37.4909C16.4741 36.7486 17.7395 36.8346 18.3566 37.7565C18.8175 38.4363 18.6769 39.3661 18.091 39.9521L16.1695 41.8741C15.5133 42.5461 14.4354 42.5461 13.7636 41.8741Z" fill="#F9BD75"/>
<path d="M16.1777 44.2887C15.5137 43.6245 15.5137 42.5463 16.1777 41.8744L18.1461 39.9054C18.8882 39.1632 20.1536 39.2491 20.7707 40.1711C21.2316 40.8508 21.091 41.7806 20.5051 42.3666L18.5835 44.2887C17.9196 44.9528 16.8416 44.9528 16.1777 44.2887Z" fill="#F9BD75"/>
<path d="M18.5878 46.7027C17.9239 46.0386 17.9239 44.9604 18.5878 44.2884L20.5563 42.3195C21.2983 41.5773 22.5638 41.6632 23.1808 42.5852C23.6417 43.2649 23.5011 44.1947 22.9153 44.7807L20.9937 46.7027C20.3297 47.3669 19.2518 47.3669 18.5878 46.7027Z" fill="#F9BD75"/>
<path d="M20.9941 49.1095C20.3301 48.4453 20.3301 47.3671 20.9941 46.6952L22.9625 44.7262C23.7046 43.984 24.97 44.0699 25.5871 44.9919C26.048 45.6716 25.9074 46.6014 25.3215 47.1874L23.3999 49.1095C22.7438 49.7736 21.658 49.7736 20.9941 49.1095Z" fill="#F9BD75"/>
<path d="M25.335 47.1872L23.4134 49.1093C22.7494 49.7812 21.6715 49.7812 21.0075 49.1093C20.4764 48.5858 20.367 47.8044 20.6716 47.1716C20.7498 47.3435 20.8669 47.4997 21.0075 47.6404C21.6715 48.3045 22.7494 48.3045 23.4134 47.6404L25.335 45.7183C25.4912 45.562 25.6162 45.3745 25.7099 45.1792C26.0302 45.8355 25.874 46.6559 25.335 47.1872Z" fill="#EAAC68"/>
<path d="M22.9131 44.7731L20.9915 46.6952C20.3276 47.3671 19.2496 47.3671 18.5857 46.6952C18.0545 46.1717 17.9451 45.3904 18.2498 44.7575C18.3279 44.9294 18.4451 45.0857 18.5857 45.2263C19.2496 45.8904 20.3276 45.8904 20.9915 45.2263L22.9131 43.3042C23.0693 43.148 23.1943 42.9605 23.288 42.7651C23.6083 43.4214 23.4521 44.2418 22.9131 44.7731Z" fill="#EAAC68"/>
<path d="M20.499 42.3508L18.5775 44.2728C17.9135 44.9448 16.8356 44.9448 16.1716 44.2728C15.6404 43.7493 15.5311 42.968 15.8357 42.3351C15.9138 42.507 16.031 42.6633 16.1716 42.8039C16.8356 43.4681 17.9135 43.4681 18.5775 42.8039L20.499 40.8819C20.6553 40.7256 20.7802 40.5381 20.874 40.3428C21.1942 40.9991 21.038 41.8195 20.499 42.3508Z" fill="#EAAC68"/>
<path d="M18.0811 39.9367L16.1595 41.8588C15.4955 42.5307 14.4176 42.5307 13.7536 41.8588C13.2225 41.3353 13.1131 40.554 13.4177 39.9211C13.4959 40.093 13.613 40.2492 13.7536 40.3899C14.4176 41.054 15.4955 41.054 16.1595 40.3899L18.0811 38.4678C18.2373 38.3116 18.3623 38.124 18.456 37.9287C18.7763 38.585 18.6201 39.4054 18.0811 39.9367Z" fill="#EAAC68"/>
<path d="M14.9743 42.765C14.4119 42.765 13.8885 42.5462 13.4901 42.1477C12.67 41.3273 12.67 39.9991 13.4901 39.1865L15.4586 37.2176C15.9038 36.7722 16.5131 36.5535 17.138 36.616C17.7629 36.6785 18.3253 37.0144 18.6846 37.5379C19.2392 38.3583 19.1064 39.4912 18.3722 40.2257L16.4506 42.1477C16.06 42.5462 15.5289 42.765 14.9743 42.765ZM16.9427 37.3817C16.599 37.3817 16.2631 37.5145 16.0132 37.7645L14.0447 39.7334C13.5292 40.2491 13.5292 41.0773 14.0447 41.593C14.5447 42.093 15.4039 42.093 15.9038 41.593L17.8254 39.6709C18.2863 39.21 18.38 38.4755 18.0441 37.9677C17.8176 37.6317 17.4739 37.4207 17.0755 37.3817C17.0286 37.3895 16.9818 37.3817 16.9427 37.3817Z" fill="#333333"/>
<path d="M17.3805 45.179C16.8181 45.179 16.2948 44.9603 15.8964 44.5618C15.0762 43.7414 15.0762 42.4132 15.8964 41.6006L17.8648 39.6316C18.3101 39.1863 18.9272 38.9675 19.5521 39.03C20.177 39.0925 20.7394 39.4285 21.0987 39.952C21.6533 40.7724 21.5205 41.9053 20.7862 42.6397L18.8647 44.5618C18.4663 44.9603 17.9429 45.179 17.3805 45.179ZM19.3568 39.7957C19.0053 39.7957 18.6772 39.9285 18.4272 40.1786L16.4588 42.1475C15.9433 42.6632 15.9433 43.4914 16.4588 44.0071C16.9587 44.5071 17.818 44.5071 18.3179 44.0071L20.2395 42.085C20.7003 41.624 20.7941 40.8896 20.4582 40.3817C20.2316 40.0457 19.888 39.8348 19.4896 39.7957C19.4349 39.7957 19.3958 39.7957 19.3568 39.7957Z" fill="#333333"/>
<path d="M19.7946 47.5858C19.2556 47.5858 18.7244 47.3826 18.3105 46.9763C17.4903 46.1559 17.4903 44.8277 18.3105 44.0151L20.2789 42.0462C20.7241 41.6008 21.3334 41.3821 21.9583 41.4446C22.5832 41.5071 23.1456 41.8431 23.505 42.3665C24.0596 43.1869 23.9268 44.3198 23.1925 45.0543L21.2709 46.9763C20.8647 47.3826 20.3258 47.5858 19.7946 47.5858ZM18.8651 46.4216C19.3806 46.9295 20.2086 46.9373 20.7241 46.4216L22.6457 44.4995C23.1066 44.0386 23.2003 43.3041 22.8644 42.7963C22.6379 42.4603 22.2942 42.2493 21.8958 42.2103C21.5053 42.1712 21.1147 42.3118 20.8413 42.5853L18.8729 44.5542C18.3495 45.0777 18.3495 45.9137 18.8651 46.4216Z" fill="#333333"/>
<path d="M22.1989 49.9998C21.6599 49.9998 21.1287 49.7967 20.7147 49.3904C20.3164 48.9919 20.0977 48.4684 20.0977 47.9059C20.0977 47.3433 20.3164 46.8198 20.7147 46.4214L22.6832 44.4524C23.1284 44.0071 23.7455 43.7883 24.3626 43.8508C24.9875 43.9133 25.5499 44.2493 25.9092 44.7728C26.4638 45.5932 26.3311 46.7261 25.5968 47.4605L23.6752 49.3826C23.2768 49.7967 22.7379 49.9998 22.1989 49.9998ZM24.1751 44.6165C23.8236 44.6165 23.4956 44.7493 23.2456 44.9994L21.2772 46.9683C21.0272 47.2183 20.8944 47.5465 20.8944 47.8981C20.8944 48.2497 21.0272 48.5778 21.2772 48.8278C21.7927 49.3435 22.6207 49.3435 23.1362 48.8278L25.0578 46.9058C25.5265 46.437 25.6202 45.7182 25.2765 45.2025C25.05 44.8665 24.7063 44.6556 24.3079 44.6165C24.2611 44.6243 24.2142 44.6165 24.1751 44.6165Z" fill="#333333"/>
<path d="M0.390625 22.9258L9.22674 14.0875L19.0956 23.9588L10.2595 32.7971L0.390625 22.9258Z" fill="#E3E7F0"/>
<path d="M0.390625 22.9193L1.60137 24.1303L9.22518 16.5046L17.8879 25.1695L19.0986 23.9584L9.22518 14.0825L0.390625 22.9193Z" fill="#F7F9FC"/>
<path d="M10.264 33.1937C10.1625 33.1937 10.0609 33.1546 9.99063 33.0765L0.117169 23.2084C-0.0390564 23.0521 -0.0390564 22.8099 0.117169 22.6537L8.95173 13.8169C9.10795 13.6606 9.3501 13.6606 9.50633 13.8169L19.372 23.685C19.5282 23.8413 19.5282 24.0835 19.372 24.2397L10.5374 33.0765C10.4593 33.1546 10.3656 33.1937 10.264 33.1937ZM0.945165 22.9271L10.264 32.2483L18.544 23.9663L9.22512 14.6451L0.945165 22.9271Z" fill="#333333"/>
<path d="M30.8867 23.9536L40.7556 14.0823L49.5917 22.9206L39.7228 32.7919L30.8867 23.9536Z" fill="#E3E7F0"/>
<path d="M49.6025 22.9193L48.3918 24.1303L40.768 16.5046L32.1053 25.1695L30.8945 23.9584L40.768 14.0825L49.6025 22.9193Z" fill="#F7F9FC"/>
<path d="M39.729 33.1859C39.6275 33.1859 39.5259 33.1468 39.4556 33.0687L30.6211 24.2319C30.5508 24.1616 30.5039 24.06 30.5039 23.9585C30.5039 23.8569 30.543 23.7553 30.6211 23.685L40.4945 13.8091C40.6508 13.6528 40.8929 13.6528 41.0491 13.8091L49.8837 22.6459C49.954 22.7162 50.0009 22.8177 50.0009 22.9193C50.0009 23.0209 49.9618 23.1225 49.8837 23.1928L40.0102 33.0687C39.9321 33.1468 39.8306 33.1859 39.729 33.1859ZM31.4491 23.9585L39.729 32.2405L49.0479 22.9193L40.7679 14.6373L31.4491 23.9585Z" fill="#333333"/>
</svg>
