<svg width="50" height="50" viewBox="0 0 50 50" fill="none" xmlns="http://www.w3.org/2000/svg">
<g clip-path="url(#clip0_79_89)">
<path d="M22.4987 44.1668C34.4649 44.1668 44.1654 34.4663 44.1654 22.5002C44.1654 10.534 34.4649 0.833496 22.4987 0.833496C10.5325 0.833496 0.832031 10.534 0.832031 22.5002C0.832031 34.4663 10.5325 44.1668 22.4987 44.1668Z" fill="#EA3B48"/>
<path d="M22.5013 38.3332C31.2458 38.3332 38.3346 31.2443 38.3346 22.4998C38.3346 13.7553 31.2458 6.6665 22.5013 6.6665C13.7568 6.6665 6.66797 13.7553 6.66797 22.4998C6.66797 31.2443 13.7568 38.3332 22.5013 38.3332Z" fill="white"/>
<path d="M22.4987 31.6668C27.5613 31.6668 31.6654 27.5628 31.6654 22.5002C31.6654 17.4376 27.5613 13.3335 22.4987 13.3335C17.4361 13.3335 13.332 17.4376 13.332 22.5002C13.332 27.5628 17.4361 31.6668 22.4987 31.6668Z" fill="#EA3B48"/>
<path d="M22.5013 25.8332C24.3423 25.8332 25.8346 24.3408 25.8346 22.4998C25.8346 20.6589 24.3423 19.1665 22.5013 19.1665C20.6604 19.1665 19.168 20.6589 19.168 22.4998C19.168 24.3408 20.6604 25.8332 22.5013 25.8332Z" fill="white"/>
<path d="M34.9989 7.6499L22.9906 19.6582C22.8363 19.8125 22.7139 19.9957 22.6304 20.1973C22.5469 20.3989 22.5039 20.615 22.5039 20.8332C22.5039 21.0515 22.5469 21.2675 22.6304 21.4691C22.7139 21.6707 22.8363 21.8539 22.9906 22.0082C23.1449 22.1625 23.3281 22.2849 23.5297 22.3684C23.7313 22.452 23.9474 22.4949 24.1656 22.4949C24.3838 22.4949 24.5999 22.452 24.8015 22.3684C25.0031 22.2849 25.1863 22.1625 25.3406 22.0082L37.3489 9.9999L34.9989 7.6499Z" fill="#603730"/>
<path d="M43.9383 6.69934L40.8858 9.75018C40.7225 9.91135 40.502 10.0012 40.2725 10.0002H35.8667C35.753 10.0003 35.6404 9.978 35.5353 9.93459C35.4302 9.89118 35.3347 9.82749 35.2542 9.74717C35.1737 9.66685 35.1098 9.57146 35.0662 9.46645C35.0226 9.36145 35.0001 9.24888 35 9.13518V4.73684C34.9992 4.50792 35.0891 4.288 35.25 4.12518L38.3192 1.06101C38.4163 0.963864 38.5375 0.89422 38.6703 0.859182C38.8031 0.824144 38.9429 0.824966 39.0753 0.861564C39.2077 0.898161 39.328 0.969225 39.424 1.06751C39.52 1.16579 39.5882 1.28777 39.6217 1.42101L40.3208 4.20268C40.3557 4.34071 40.4279 4.4665 40.5295 4.56629C40.631 4.66608 40.758 4.73604 40.8967 4.76851L43.5633 5.39601C43.6983 5.42693 43.8225 5.49343 43.923 5.58859C44.0235 5.68375 44.0967 5.8041 44.135 5.93714C44.1733 6.07017 44.1752 6.21103 44.1407 6.34507C44.1061 6.47911 44.0362 6.60144 43.9383 6.69934Z" fill="#FFCC4D"/>
<path d="M35.14 46.3334C35.1127 46.3906 35.0821 46.4463 35.0483 46.5C34.2773 47.7621 33.0375 48.6671 31.6006 49.017C30.1636 49.3669 28.6466 49.133 27.3817 48.3667C21.4483 44.8334 22.365 37.7334 22.8817 35.2834C22.8954 35.2159 22.9285 35.154 22.977 35.1051C23.0254 35.0563 23.0872 35.0227 23.1545 35.0085C23.2218 34.9944 23.2919 35.0002 23.3559 35.0254C23.42 35.0505 23.4753 35.0938 23.515 35.15C24.2037 36.1081 25.148 36.8531 26.24 37.3C29.04 38.425 30.2908 37.275 32.9408 38.7167C33.6601 39.1014 34.2816 39.6459 34.7575 40.3084L35.14 46.3334Z" fill="#84BA4A"/>
<path d="M43.6666 48.2693C42.9573 48.7098 42.1668 49.0035 41.3419 49.1327C40.517 49.262 39.6745 49.2243 38.8645 49.0218C38.0544 48.8194 37.2933 48.4563 36.6262 47.9542C35.9591 47.452 35.3996 46.821 34.981 46.0985C34.5624 45.3761 34.2931 44.5769 34.1891 43.7485C34.0852 42.92 34.1487 42.0791 34.3758 41.2756C34.603 40.4721 34.9892 39.7225 35.5115 39.0711C36.0339 38.4196 36.6817 37.8798 37.4166 37.4835C40.4016 35.8743 41.8066 37.1643 44.9525 35.9001C46.1817 35.4077 47.2451 34.5752 48.0183 33.5001C48.0634 33.4368 48.1261 33.3881 48.1986 33.36C48.271 33.3319 48.3502 33.3256 48.4262 33.3419C48.5022 33.3582 48.5718 33.3964 48.6263 33.4517C48.6809 33.5071 48.7181 33.5772 48.7333 33.6535C49.3208 36.3868 50.3508 44.3243 43.6666 48.2693Z" fill="#99DB5E"/>
<path d="M35.1417 46.3334C35.1144 46.3907 35.0838 46.4463 35.0501 46.5C34.8634 46.8248 34.6397 47.1268 34.3834 47.4C28.7417 45.9 26.6751 43.0334 25.5251 41.45C25.3977 41.2708 25.3464 41.0484 25.3823 40.8314C25.4182 40.6144 25.5384 40.4204 25.7167 40.2917C25.8044 40.2266 25.9042 40.1796 26.0103 40.1536C26.1164 40.1275 26.2266 40.1229 26.3344 40.14C26.4423 40.157 26.5457 40.1955 26.6385 40.253C26.7314 40.3106 26.8118 40.386 26.8751 40.475C27.9917 42.0167 29.8167 44.55 35.1084 45.8667L35.1417 46.3334Z" fill="#76A03F"/>
<path d="M45.6734 40.4918C44.3734 42.2585 42.0484 45.4418 35.7484 47.1335C35.4804 46.8469 35.2456 46.531 35.0484 46.1918C34.9484 46.0168 34.8568 45.8418 34.7734 45.6668C40.9068 44.1585 43.0318 41.2668 44.3234 39.5085C44.388 39.4198 44.4694 39.3448 44.563 39.2876C44.6565 39.2304 44.7605 39.1922 44.8688 39.1752C44.9771 39.1581 45.0878 39.1626 45.1944 39.1883C45.301 39.2141 45.4015 39.2606 45.4901 39.3251C45.5787 39.3897 45.6538 39.4711 45.711 39.5647C45.7682 39.6582 45.8064 39.7621 45.8234 39.8705C45.8404 39.9788 45.8359 40.0894 45.8102 40.196C45.7845 40.3027 45.738 40.4031 45.6734 40.4918Z" fill="#84BA4A"/>
</g>
<defs>
<clipPath id="clip0_79_89">
<rect width="50" height="50" fill="white"/>
</clipPath>
</defs>
</svg>
