<svg width="33" height="20" viewBox="0 0 33 20" fill="none" xmlns="http://www.w3.org/2000/svg">
<path d="M0.000139236 0C0.000139236 0 22.9942 0.206634 21.6939 17.2243C19.6306 14.8923 15.5179 10.6711 10.2323 7.43877C10.2323 7.43877 17.8216 14.5676 20.4644 19.7777L20.4079 19.822C20.422 19.8367 5.86524 23.2019 0.000139236 0Z" fill="#5DC001"/>
<path d="M33 8.45703C33 8.45703 21.1426 10.0363 22.8103 18.7296C23.743 17.4013 25.6227 14.9512 28.1525 12.9439C28.1525 12.9439 24.6475 17.1061 23.5876 19.9694L23.6158 19.9842C23.63 19.9842 31.3323 20.7959 33 8.45703Z" fill="#5DC001"/>
<path d="M26.3442 3.54199C26.3442 3.54199 20.1258 6.65624 22.5425 11.0988C22.8252 10.1838 23.4188 8.50117 24.4646 6.92191C24.4646 6.92191 23.2633 9.8738 23.1926 11.6302H23.2209C23.2068 11.6449 27.5738 10.6265 26.3442 3.54199Z" fill="#5DC001"/>
</svg>
