<svg width="50" height="50" viewBox="0 0 50 50" fill="none" xmlns="http://www.w3.org/2000/svg">
<path d="M49.9991 24.9912C50.1827 58.294 -0.187741 58.3841 0.000754534 24.9743C-0.224903 -8.35853 50.2401 -8.29661 49.9991 24.9912ZM30.0057 31.2801L30.0424 31.2211L30.0174 31.2649C31.05 33.8586 34.0875 36.3863 32.7602 39.3674C33.4069 40.7626 36.5886 39.9048 37.232 38.4622C36.6877 37.8956 36.1665 37.1451 35.472 36.7645C34.9788 37.9681 33.5129 36.7277 34.6457 36.094C34.8678 35.9025 34.5546 35.7177 34.4488 35.5654C32.9392 34.2352 31.6648 32.2731 30.0057 31.2801ZM26.23 20.3634C26.1062 21.3469 26.305 22.2837 26.1005 23.2468C24.7703 24.6399 24.9275 21.7612 24.9301 20.9536C24.3516 20.3259 23.0318 20.9734 22.2107 20.8692C21.8028 21.0928 22.5662 21.5392 22.7019 21.786C29.1255 28.3637 35.5432 34.9474 41.9724 41.5193C42.2395 41.835 42.5217 41.4182 42.7156 41.2214C49.2884 33.8798 50.6928 22.4384 46.065 13.6703C40.454 2.50574 26.836 -2.40316 15.7888 2.51905C14.5238 3.13691 7.21991 6.6721 9.32614 8.08811C13.3813 11.7249 16.8257 16.8059 21.2387 19.6937C22.9777 18.2635 26.5572 20.0451 26.5086 18.2579C26.4661 17.1821 26.9078 15.4128 25.2703 15.7093C23.6761 15.3987 17.799 16.4041 17.2602 15.1519C17.3166 13.6539 24.4986 14.7839 26.0002 14.4682C28.4612 14.5643 28.4284 19.8297 26.23 20.3634ZM31.7602 40.6273C25.2723 42.0358 17.9823 41.1609 11.3125 41.0375C6.94884 39.2014 10.4095 34.3957 12.0342 31.6331C13.2724 29.4366 14.508 27.2385 15.7545 25.0469C17.3709 16.8623 13.6967 23.176 14.6052 15.2751C12.5002 13.0342 10.3075 10.8661 8.17053 8.65441C4.43421 9.21411 0.902292 20.6135 1.21986 24.6636C-0.113117 44.9418 27.0959 57.9159 41.251 42.6054C40.2719 41.5417 39.2777 40.3467 38.1311 39.4873C36.2729 41.4234 34.1321 41.7208 31.7602 40.6273ZM20.226 21.0152C19.321 21.2273 17.6779 20.6442 17.2834 21.5626C17.147 23.3505 17.7071 24.4287 16.6149 25.9785C15.7386 29.0018 6.52783 39.2214 12.4467 40.0156C18.0012 40.0253 23.5553 40.0167 29.1093 40.0191C31.2069 40.4013 32.816 38.0474 31.3354 36.119C28.453 30.3923 25.0621 25.2129 20.226 21.0152ZM17.1491 19.0732V19.0913C17.4926 19.0708 18.5146 19.2478 17.8826 18.6004C17.2009 18.0368 16.5919 16.9835 15.8259 16.7004C15.6552 17.8703 15.4434 19.4592 17.1491 19.0732Z" fill="#FF9C00"/>
<path d="M46.3061 3.79288C46.2043 4.3121 45.7076 4.67695 45.3211 4.99086C43.1114 5.43626 45.9353 1.67827 46.3061 3.79288Z" fill="#FF9C00"/>
<path d="M43.5719 3.08651C43.6772 3.64193 43.4013 4.52459 42.647 4.08031C41.6198 2.82965 43.418 0.584371 43.6023 3.08519C43.5921 3.0856 43.582 3.086 43.5719 3.08651Z" fill="#FF9C00"/>
<path d="M46.438 7.24445C45.6328 7.47894 44.8084 6.39952 45.8327 6.05337C47.473 5.65363 48.4096 7.15526 46.438 7.24445Z" fill="#FF9C00"/>
<path d="M29.2432 14.7067C27.189 14.2799 27.0027 9.58241 28.8169 8.89968C29.6958 8.83592 34.7192 8.17312 34.4306 9.49008C33.7661 10.9379 29.295 8.92937 28.9069 10.6226C29.0501 11.4483 28.4221 13.0454 29.4605 13.3367C32.507 13.4097 35.5588 13.3367 38.6067 13.3663C40.2183 13.5548 39.5695 11.6664 39.6684 10.6469C39.6603 9.48916 37.9493 10.4648 37.8702 9.395C37.8545 8.68024 38.6427 8.75752 39.1291 8.76911C41.6494 8.76626 41.5827 14.1269 39.3959 14.6526C39.2289 21.8336 39.4112 29.0374 39.3294 36.2255C39.3156 36.6389 39.1532 37.1384 38.6436 37.0768C38.3957 37.0526 38.1497 36.8262 38.1298 36.5799C38.0805 30.857 38.1321 25.1309 38.1103 19.407C38.1088 17.7991 38.2859 18.0027 36.7524 17.9943C35.1301 18.2323 31.5455 17.4738 30.4541 18.3337C30.0956 20.7018 31.1366 26.4109 29.9867 27.9766C28.3085 28.0809 29.677 16.7305 29.2432 14.7067ZM34.2239 16.7736C35.4552 16.7429 36.6976 16.8413 37.9234 16.7254C38.2823 16.3686 38.0006 15.6365 38.0827 15.1491C38.0583 14.8685 37.7523 14.8995 37.5519 14.9144C35.2531 15.0945 32.9205 15.1245 30.64 15.4193C29.5053 17.6091 33.062 16.5403 34.2239 16.7736Z" fill="#FF9C00"/>
<path d="M35.6572 26.9865C34.9177 26.9552 34.9741 25.8174 35.6699 25.7979C36.4405 25.7959 36.4462 27.0436 35.6572 26.9865Z" fill="#FF9C00"/>
<path d="M33.6275 29.9882C32.9754 30.0282 32.8546 28.8092 33.6111 28.8031C34.4476 28.7801 34.3736 29.9868 33.6275 29.9882Z" fill="#FF9C00"/>
<path d="M36.199 9.95346C35.4151 10.029 35.3926 8.76524 36.161 8.7814C36.8761 8.77093 36.9207 9.92519 36.199 9.95346Z" fill="#FF9C00"/>
<path d="M33.064 20.9772C33.8771 21.0238 33.725 22.2329 32.9831 22.1665C32.2796 22.0774 32.3438 20.9344 33.064 20.9772Z" fill="#FF9C00"/>
<path d="M21.0435 38.8237C6.03662 39.2858 11.7366 38.8644 18.1589 25.6494C18.7051 24.681 18.6254 24.7224 19.7169 24.7211C20.9872 24.8992 22.6361 24.3171 23.7144 25.0324C30.2527 38.5612 36.516 39.3974 21.0435 38.8237ZM19.4525 25.9462C10.0515 42.5409 10.2829 36.5559 29.0972 37.5745C27.9232 33.9545 24.9548 30.1953 23.1815 26.5413C22.5102 25.3272 20.6296 26.1787 19.4525 25.9462Z" fill="#FF9C00"/>
<path d="M22.3291 29.6057C22.3644 30.417 21.1521 30.3967 21.1681 29.6134C21.1926 28.8899 22.3169 28.8692 22.3291 29.6057Z" fill="#FF9C00"/>
<path d="M23.2232 34.5077C23.1655 35.3379 21.9909 35.1492 22.0833 34.3924C22.165 33.6925 23.3026 33.7565 23.2232 34.5077Z" fill="#FF9C00"/>
<path d="M19.7458 32.8386C19.7693 33.5557 18.608 33.6089 18.5989 32.8722C18.5548 32.0542 19.7317 32.054 19.7458 32.8386Z" fill="#FF9C00"/>
</svg>
