<svg width="50" height="50" viewBox="0 0 50 50" fill="none" xmlns="http://www.w3.org/2000/svg">
<path d="M29.3139 12.785L27.6241 14.8143C27.3021 14.4383 26.901 14.1384 26.4496 13.9364C25.9982 13.7343 25.5078 13.635 25.0135 13.6457C23.84 13.6684 23.0354 14.7742 22.3699 15.603C22.1358 15.8875 21.9626 16.2173 21.861 16.5718C21.7595 16.9264 21.7319 17.2981 21.7798 17.6638C21.8278 18.0295 21.9503 18.3814 22.1398 18.6976C22.3292 19.0137 22.5816 19.2874 22.8811 19.5016L16.4881 27.1777C16.4851 27.1812 15.3297 28.5686 15.3265 28.5725C14.9261 29.0513 14.6639 29.6309 14.5683 30.2483C14.4727 30.8658 14.5474 31.4977 14.7841 32.0758C14.9136 32.401 14.0748 33.1217 13.73 33.6087C13.3431 34.0548 13.0911 34.6021 13.0033 35.1866C12.9156 35.7711 12.9957 36.3686 13.2344 36.909C13.4732 37.4495 13.8605 37.9106 14.3512 38.2383C14.8419 38.566 15.4155 38.7467 16.0049 38.7594C17.5605 38.8305 18.5245 37.5097 19.3896 36.4235C19.4322 36.3657 19.488 36.319 19.5523 36.2874C19.6167 36.2558 19.6877 36.2403 19.7594 36.2422C20.3693 36.3732 21.0033 36.3345 21.5928 36.1303C22.1824 35.926 22.705 35.564 23.104 35.0834L30.6587 26.0127C30.9228 26.269 31.2366 26.4683 31.5805 26.5982C31.9245 26.7281 32.2915 26.7859 32.6586 26.768C33.0258 26.7501 33.3854 26.6569 33.7152 26.4941C34.045 26.3314 34.338 26.1025 34.576 25.8217C35.2627 25.0158 36.2164 24.028 36.026 22.8644C35.9484 22.3749 35.7635 21.9087 35.4846 21.4994C35.2057 21.0902 34.8397 20.7481 34.413 20.4977L36.1028 18.4685C39.7092 13.8688 33.2099 8.40174 29.3139 12.785ZM21.7334 33.9356C21.5413 34.1653 21.2905 34.3383 21.0079 34.4361C20.7253 34.5339 20.4215 34.5528 20.129 34.4907C19.7395 34.4173 19.3375 34.4516 18.9659 34.5898C18.5944 34.728 18.2673 34.965 18.0198 35.2753C17.5498 35.7558 16.856 37.0203 16.0545 36.9682C15.7979 36.9705 15.5464 36.8969 15.3313 36.7566C15.1163 36.6163 14.9472 36.4156 14.8454 36.1794C14.7436 35.9433 14.7135 35.6823 14.7589 35.4291C14.8043 35.176 14.9232 34.9418 15.1007 34.756C15.9015 33.8206 17.0203 32.7136 16.4372 31.3987C15.9543 30.3635 16.8852 29.4818 17.493 28.7643L19.5971 29.3723C20.2025 29.5481 20.8393 29.5871 21.4615 29.4865C22.0838 29.3859 22.676 29.1482 23.1956 28.7905C23.618 28.5142 24.1105 28.3647 24.6149 28.3595C25.1192 28.3544 25.6146 28.494 26.0425 28.7617L21.7334 33.9356ZM27.2326 27.3326C26.4821 26.8439 25.6071 26.5821 24.7121 26.5787C23.8171 26.5752 22.9401 26.8302 22.1859 27.3132C21.1787 28.1032 19.8217 27.5947 18.7439 27.2621L24.252 20.6492L29.2878 24.865L27.2326 27.3326ZM34.0476 23.6629L33.2053 24.6744C33.0565 24.8513 32.8441 24.9621 32.6142 24.9828C32.3843 25.0036 32.1555 24.9324 31.9777 24.7849L23.8504 17.9811C22.983 17.2054 24.1313 16.3501 24.5829 15.7388C24.7317 15.562 24.9441 15.4512 25.174 15.4305C25.4039 15.4098 25.6326 15.4808 25.8105 15.6282L33.9378 22.4316C34.1144 22.5809 34.225 22.794 34.2456 23.0246C34.2661 23.2552 34.195 23.4846 34.0476 23.6629ZM34.7321 17.3206L33.0422 19.35L28.9949 15.9618L30.6846 13.9328C31.1355 13.4039 31.7762 13.0745 32.4677 13.0162C33.1592 12.9578 33.8458 13.1752 34.3785 13.6211C34.9112 14.067 35.2471 14.7055 35.3133 15.3981C35.3795 16.0907 35.1706 16.7814 34.7321 17.3206Z" fill="#FF9C00"/>
<path d="M50 24.9351C48.6307 -8.31047 1.37002 -8.313 0 24.9353C0.00749134 31.5806 2.64382 37.9516 7.33061 42.6505C12.0174 47.3494 18.3719 49.9925 25 50C27.8487 50.0011 30.6762 49.5094 33.3582 48.5465C35.4794 49.7522 37.9366 50.2272 40.3529 49.8986C42.7692 49.57 45.0114 48.4559 46.7356 46.7272C48.4599 44.9985 49.5711 42.7505 49.8988 40.3279C50.2266 37.9053 49.7529 35.4418 48.5503 33.315C49.5111 30.6262 50.0015 27.7913 50 24.9351ZM25 48.2096C-5.79404 46.9332 -5.79065 2.93503 25.0002 1.66062C28.6088 1.6574 32.1683 2.49843 35.3957 4.11682C38.6232 5.73521 41.4294 8.08631 43.5913 10.9831C45.7532 13.8799 47.2111 17.2426 47.849 20.8035C48.4869 24.3645 48.2873 28.0256 47.2659 31.4956C46.609 30.7324 45.853 30.061 45.0179 29.4994C48.0491 16.8569 37.981 4.18591 24.9999 4.3463C19.5554 4.35239 14.3356 6.52352 10.4857 10.3834C6.63589 14.2432 4.47037 19.4765 4.46428 24.9351C4.30509 37.9484 16.9418 48.0454 29.5529 45.0053C30.1128 45.8423 30.7822 46.6002 31.5433 47.2586C29.419 47.8888 27.2153 48.2091 25 48.2096ZM43.3902 28.6033C36.2864 25.2117 27.4972 30.8807 27.6787 38.8105C27.6794 40.3837 28.0134 41.9388 28.6587 43.3729C27.4537 43.6117 26.2283 43.7326 25 43.7337C0.128732 42.7028 0.129938 7.16648 25.0001 6.13649C27.7687 6.14882 30.5005 6.77344 33.0006 7.96582C35.5007 9.1582 37.7077 10.889 39.464 13.0347C41.2204 15.1804 42.4829 17.6882 43.1616 20.3793C43.8402 23.0704 43.9183 25.8785 43.3902 28.6033ZM38.8393 48.2096C36.3537 48.2068 33.9708 47.2156 32.2132 45.4535C30.4557 43.6914 29.4671 41.3023 29.4643 38.8103C29.9792 26.3408 47.7013 26.3444 48.2143 38.8104C48.2115 41.3024 47.2228 43.6915 45.4653 45.4536C43.7077 47.2156 41.3248 48.2068 38.8393 48.2096Z" fill="#FF9C00"/>
<path d="M44.5106 33.1247C44.0086 32.6225 43.3285 32.3405 42.6194 32.3405C41.9103 32.3405 41.2301 32.6225 40.7282 33.1247L38.8404 35.0195L36.951 33.1247C36.7027 32.8752 36.4079 32.6772 36.0832 32.542C35.7586 32.4068 35.4106 32.3371 35.0591 32.3369C34.7076 32.3367 34.3594 32.4059 34.0347 32.5407C33.7099 32.6755 33.4147 32.8731 33.1662 33.1223C32.9176 33.3715 32.7205 33.6674 32.5861 33.993C32.4517 34.3187 32.3826 34.6677 32.3828 35.0201C32.383 35.3725 32.4525 35.7215 32.5874 36.0469C32.7222 36.3724 32.9197 36.668 33.1685 36.9169L35.058 38.8091L33.1685 40.7039C32.9197 40.9528 32.7222 41.2484 32.5874 41.5739C32.4525 41.8994 32.383 42.2483 32.3828 42.6007C32.3826 42.9532 32.4517 43.3022 32.5861 43.6278C32.7205 43.9535 32.9176 44.2493 33.1662 44.4985C33.4147 44.7477 33.7099 44.9454 34.0347 45.0801C34.3594 45.2149 34.7076 45.2842 35.0591 45.2839C35.4106 45.2837 35.7586 45.214 36.0832 45.0789C36.4079 44.9437 36.7027 44.7457 36.951 44.4962L38.8387 42.6014L40.7282 44.4962C40.9764 44.7457 41.2713 44.9437 41.5959 45.0789C41.9205 45.214 42.2686 45.2837 42.6201 45.2839C42.9716 45.2842 43.3197 45.2149 43.6445 45.0801C43.9693 44.9454 44.2644 44.7477 44.513 44.4985C44.7615 44.2493 44.9586 43.9535 45.0931 43.6278C45.2275 43.3022 45.2966 42.9532 45.2963 42.6007C45.2961 42.2483 45.2266 41.8994 45.0918 41.5739C44.957 41.2484 44.7595 40.9528 44.5106 40.7039L42.6211 38.8117L44.5106 36.9169C45.0115 36.4137 45.2927 35.7317 45.2927 35.0208C45.2927 34.3099 45.0114 33.628 44.5106 33.1247ZM43.248 35.6511L41.3586 37.5459C41.0244 37.8815 40.8367 38.3362 40.8367 38.8104C40.8367 39.2846 41.0244 39.7394 41.3586 40.0749L43.248 41.9698C43.3309 42.0525 43.3966 42.1507 43.4416 42.259C43.4865 42.3672 43.5096 42.4832 43.5098 42.6004C43.5099 42.7177 43.487 42.8337 43.4423 42.9421C43.3976 43.0504 43.332 43.1488 43.2494 43.2317C43.1667 43.3146 43.0685 43.3803 42.9605 43.4251C42.8525 43.4699 42.7367 43.4929 42.6198 43.4928C42.5029 43.4926 42.3871 43.4694 42.2792 43.4244C42.1712 43.3793 42.0732 43.3134 41.9907 43.2303L40.1004 41.3347C39.7652 41.0005 39.3116 40.813 38.8389 40.8132C38.3662 40.8134 37.9128 41.0012 37.5779 41.3355L35.6884 43.2303C35.6059 43.3134 35.5079 43.3793 35.3999 43.4244C35.292 43.4694 35.1763 43.4926 35.0593 43.4928C34.9424 43.4929 34.8266 43.4699 34.7186 43.4251C34.6106 43.3803 34.5124 43.3146 34.4297 43.2317C34.3471 43.1488 34.2815 43.0504 34.2368 42.9421C34.1922 42.8337 34.1692 42.7177 34.1693 42.6004C34.1695 42.4832 34.1927 42.3672 34.2376 42.259C34.2825 42.1507 34.3482 42.0525 34.4311 41.9698L36.3205 40.0749C36.6547 39.7394 36.8424 39.2846 36.8424 38.8104C36.8424 38.3362 36.6547 37.8815 36.3205 37.5459L34.4311 35.6511C34.3482 35.5684 34.2825 35.4701 34.2376 35.3619C34.1927 35.2537 34.1695 35.1376 34.1693 35.0204C34.1692 34.9032 34.1922 34.7871 34.2368 34.6788C34.2815 34.5705 34.3471 34.4721 34.4297 34.3892C34.5124 34.3063 34.6106 34.2406 34.7186 34.1958C34.8266 34.151 34.9424 34.128 35.0593 34.1281C35.1763 34.1282 35.292 34.1515 35.3999 34.1965C35.5079 34.2415 35.6059 34.3074 35.6884 34.3905L37.5787 36.2862C37.914 36.6203 38.3675 36.8078 38.8402 36.8076C39.3129 36.8075 39.7663 36.6197 40.1012 36.2853L41.9907 34.3905C42.1587 34.2294 42.3829 34.1407 42.6153 34.1432C42.8477 34.1458 43.0699 34.2395 43.2342 34.4043C43.3986 34.5691 43.4921 34.7919 43.4947 35.0249C43.4972 35.2579 43.4087 35.4827 43.248 35.6511Z" fill="#FF9C00"/>
</svg>
