<svg width="50" height="50" viewBox="0 0 50 50" fill="none" xmlns="http://www.w3.org/2000/svg">
<path d="M14.9625 8.87578C12.0428 10.744 9.68663 13.3831 8.14844 16.5081L9.4609 17.1706C12.4196 11.1597 18.3741 7.42568 25.001 7.42568C27.045 7.42568 29.0459 7.78202 30.9479 8.48459L31.4504 7.08934C29.3869 6.32706 27.2169 5.94043 25.001 5.94043C21.4348 5.94063 17.9635 6.95558 14.9625 8.87578Z" fill="#FF9C00"/>
<path d="M50 30H47.8781C47.8867 29.8625 47.902 29.7361 47.925 29.6186C48.0302 29.0808 48.3456 28.5084 48.6795 27.9024C49.1739 27.0053 49.685 26.0777 49.685 24.9999C49.685 23.9222 49.1738 22.9945 48.6795 22.0975C48.3456 21.4915 48.0302 20.9191 47.9251 20.3819C47.8141 19.8131 47.8907 19.1444 47.9717 18.4364C48.0867 17.4316 48.2055 16.3925 47.8117 15.4303C47.4097 14.4491 46.5914 13.7949 45.8 13.1621C45.2558 12.7269 44.7416 12.3158 44.4334 11.8491C44.1207 11.3763 43.9398 10.7334 43.7483 10.0529C43.4734 9.07576 43.1891 8.06536 42.4551 7.32269C41.7213 6.57882 40.7236 6.2909 39.7588 6.01259C39.0869 5.81863 38.4522 5.63546 37.9848 5.31853C37.5244 5.00654 37.1185 4.48585 36.6887 3.93456C36.0638 3.13308 35.4179 2.30436 34.4488 1.89713C33.499 1.49852 32.473 1.61872 31.4809 1.73515C30.7818 1.81703 30.1213 1.89456 29.5604 1.78248C29.0293 1.67594 28.4642 1.35654 27.8659 1.01832C26.98 0.517625 26.0641 0 25 0C23.9358 0 23.0199 0.517724 22.134 1.01832C21.5357 1.35654 20.9706 1.67594 20.4401 1.78238C19.8784 1.89476 19.2181 1.81723 18.519 1.73515C17.527 1.61882 16.5011 1.49852 15.5508 1.89723C14.582 2.30436 13.936 3.13308 13.3112 3.93466C12.8814 4.48585 12.4756 5.00654 12.0148 5.31872C11.5478 5.63546 10.9131 5.81863 10.2412 6.01259C9.2764 6.291 8.27873 6.57892 7.54532 7.32229C6.81083 8.06546 6.52653 9.07586 6.25163 10.0531C6.06021 10.7336 5.87935 11.3763 5.56631 11.8496C5.25836 12.3159 4.74422 12.727 4.19988 13.1622C3.40849 13.795 2.59022 14.4492 2.18812 15.4307C1.79453 16.3927 1.91331 17.4316 2.02818 18.4364C2.10913 19.1444 2.18568 19.8132 2.07491 20.3815C1.96972 20.9194 1.65434 21.4917 1.32038 22.0978C0.825996 22.9949 0.314893 23.9225 0.314893 25.0001C0.314893 26.0778 0.826094 27.0055 1.32038 27.9025C1.65434 28.5086 1.96972 29.0809 2.07491 29.6187C2.09789 29.7362 2.11324 29.8626 2.12184 30.0002H0L3.27123 37.1784L0 44.3564H11.3828C11.6355 44.458 11.8433 44.5647 12.0151 44.6815C12.4755 44.9934 12.8814 45.514 13.3112 46.0653C13.936 46.8669 14.5821 47.6956 15.5511 48.1029C16.501 48.5015 17.5269 48.3813 18.519 48.2648C19.2183 48.1829 19.8786 48.1054 20.4396 48.2174C20.9707 48.3241 21.5358 48.6435 22.1341 48.9817C23.02 49.4824 23.9359 50 25 50C26.0643 50 26.9802 49.4823 27.866 48.9817C28.4643 48.6435 29.0294 48.3241 29.5599 48.2176C30.1214 48.1051 30.7819 48.1828 31.4809 48.2648C32.473 48.3812 33.499 48.5017 34.4491 48.1028C35.4178 47.6956 36.064 46.8669 36.6887 46.0654C37.1185 45.5142 37.5244 44.9936 37.9854 44.6812C38.1568 44.5647 38.3645 44.4581 38.6172 44.3565H50L46.7288 37.1783L50 30ZM47.7082 42.8713H20.503V44.3564H36.1786C35.955 44.6121 35.7445 44.8801 35.5379 45.1451C35.006 45.8275 34.5036 46.472 33.8876 46.7309C33.2893 46.9818 32.4929 46.8883 31.6498 46.7896C30.8694 46.698 30.0625 46.6032 29.2754 46.7608C28.5171 46.913 27.8228 47.3053 27.1513 47.6848C26.396 48.1118 25.6827 48.5149 25 48.5149C24.3173 48.5149 23.6039 48.1118 22.8487 47.6848C22.1773 47.3053 21.4829 46.913 20.7241 46.7606C19.9374 46.6035 19.1305 46.6979 18.3502 46.7896C17.5069 46.8884 16.7106 46.982 16.1127 46.731C15.4964 46.4721 14.994 45.8275 14.462 45.1451C14.2554 44.8801 14.045 44.612 13.8214 44.3564H19.0364V42.8713H2.29185L4.88637 37.1782L2.29185 31.4851H34.7589V30H24.5601V27.446C24.9821 27.4879 25.5684 27.5287 26.2564 27.5287C28.4551 27.5287 31.677 27.1117 33.7805 24.9815C37.162 21.5568 36.1709 15.2053 36.127 14.9366L36.0414 14.4117L35.5231 14.325C35.2579 14.2805 28.9865 13.2768 25.6048 16.7014C24.5722 17.7472 23.9479 19.0659 23.5793 20.4009C23.3265 19.9297 23.0126 19.4851 22.623 19.0903C20.021 16.4552 15.2275 17.2221 15.0246 17.2562L14.5065 17.3429L14.4209 17.8678C14.3873 18.0731 13.63 22.9277 16.232 25.563C17.8548 27.2065 20.3298 27.5266 22.0121 27.5266C22.4305 27.5266 22.7986 27.5067 23.0936 27.4825V30H8.36066C7.88758 28.3833 7.64709 26.7041 7.64709 24.9999C7.64709 22.7426 8.06356 20.5452 8.88486 18.4687L7.52352 17.9165C6.63251 20.1693 6.18065 22.5525 6.18065 24.9999C6.18065 26.6997 6.4014 28.3769 6.83634 30H3.59082C3.58016 29.7604 3.55455 29.5399 3.51349 29.3299C3.36323 28.5618 2.9758 27.8588 2.60107 27.1786C2.17962 26.4137 1.78153 25.6913 1.78153 24.9998C1.78153 24.3084 2.17962 23.586 2.60107 22.8211C2.9758 22.141 3.36323 21.4379 3.51359 20.6693C3.66883 19.8728 3.57537 19.0555 3.48504 18.2652C3.38738 17.4113 3.29519 16.6047 3.54282 15.9992C3.79857 15.3751 4.4349 14.8663 5.10868 14.3276C5.71823 13.84 6.3487 13.3361 6.78502 12.6754C7.22632 12.008 7.44775 11.2209 7.66195 10.4597C7.89589 9.62843 8.11674 8.84309 8.58229 8.3721C9.04685 7.9012 9.82221 7.67744 10.6431 7.44061C11.3947 7.22368 12.1719 6.99942 12.8306 6.55259C13.4832 6.11041 13.9808 5.47209 14.4621 4.85466C14.994 4.17229 15.4965 3.52783 16.1125 3.26892C16.7105 3.01783 17.507 3.11129 18.3502 3.2102C19.1305 3.30179 19.9374 3.39654 20.7246 3.23902C21.4829 3.08684 22.1772 2.69446 22.8487 2.31496C23.604 1.88802 24.3173 1.48485 25 1.48485C25.6826 1.48485 26.396 1.88802 27.1513 2.31496C27.8227 2.69446 28.5171 3.08684 29.2759 3.23921C30.0624 3.39634 30.8693 3.30189 31.6497 3.2102C32.4928 3.11139 33.2893 3.01783 33.8872 3.26882C34.5035 3.52773 35.0058 4.17229 35.5378 4.85466C36.0191 5.47199 36.5168 6.11051 37.1691 6.55239C37.8281 6.99942 38.6053 7.22368 39.357 7.44061C40.1778 7.67754 40.9531 7.9012 41.4182 8.37259C41.8832 8.84309 42.1041 9.62834 42.338 10.4596C42.5521 11.2208 42.7736 12.008 43.2148 12.675C43.6514 13.3361 44.2818 13.8401 44.8913 14.3275C45.5651 14.8662 46.2014 15.375 46.4571 15.9988C46.7049 16.6046 46.6127 17.4112 46.5151 18.2652C46.4246 19.0555 46.3312 19.8727 46.4866 20.6698C46.6369 21.4379 47.0243 22.1409 47.399 22.821C47.8206 23.586 48.2187 24.3084 48.2187 24.9998C48.2187 25.6913 47.8206 26.4137 47.399 27.1787C47.0243 27.8587 46.6369 28.5618 46.4865 29.3301C46.4455 29.54 46.4199 29.7606 46.4093 30H43.1637C43.5986 28.3769 43.8193 26.6997 43.8193 24.9999C43.8193 21.2846 42.763 17.6837 40.7646 14.5867C38.8176 11.5695 36.0839 9.18032 32.8591 7.67714L32.246 9.02635C38.3858 11.8879 42.353 18.158 42.353 24.9999C42.353 26.7042 42.1126 28.3834 41.6394 30H36.2254V31.4851H47.7082L45.1136 37.1782L47.7082 42.8713ZM30.9827 18.4847L24.5752 24.9742C24.503 23.0364 24.7032 19.715 26.6419 17.7517C28.9728 15.391 33.2442 15.5756 34.7454 15.7243C34.8927 17.2455 35.0743 21.5709 32.7435 23.9313C30.8049 25.8948 27.5255 26.0975 25.6121 26.0244L32.0198 19.535L30.9827 18.4847ZM22.0577 26.0404C20.6339 26.0482 18.5474 25.8074 17.2691 24.5126C15.6462 22.8691 15.7038 19.8848 15.8067 18.6583C17.0172 18.5521 19.9576 18.4911 21.5863 20.1405C22.8593 21.4298 23.0982 23.544 23.0923 24.9878L19.6039 21.4549L18.5671 22.5051L22.0577 26.0404Z" fill="#FF9C00"/>
<path d="M15.957 40.8911H20.6008V39.4059H17.4235V37.9208H20.6008V36.4356H17.4235V34.9505H20.6008V33.4653H15.957V40.8911Z" fill="#FF9C00"/>
<path d="M24.9033 37.9208H26.1253V38.1683C26.1253 38.8508 25.5772 39.4059 24.9033 39.4059C24.2294 39.4059 23.6813 38.8508 23.6813 38.1683V36.1881C23.6813 35.5056 24.2294 34.9505 24.9033 34.9505H26.8586V33.4653H24.9033C23.4208 33.4653 22.2148 34.6868 22.2148 36.1881V38.1683C22.2148 39.6696 23.4208 40.8911 24.9033 40.8911C26.3857 40.8911 27.5918 39.6696 27.5918 38.1683V36.4356H24.9033V37.9208Z" fill="#FF9C00"/>
<path d="M31.7471 33.4653C30.2647 33.4653 29.0586 34.6868 29.0586 36.1881V40.9406H30.525V39.5049H32.9691V40.9406H34.4355V36.1881C34.4355 34.6868 33.2294 33.4653 31.7471 33.4653ZM32.9691 38.0198H30.525V36.1881C30.525 35.5056 31.0732 34.9505 31.7471 34.9505C32.4209 34.9505 32.9691 35.5056 32.9691 36.1881V38.0198Z" fill="#FF9C00"/>
<path d="M39.8128 37.7446L37.1369 33.4655H35.9023V40.9408H37.3688V36.6121L40.0447 40.8913H41.2793V33.416H39.8128V37.7446Z" fill="#FF9C00"/>
<path d="M11.6073 38.0107L10.1552 33.3887L8.75781 33.8391L10.9733 40.8912H12.2412L14.4568 33.8391L13.0594 33.3887L11.6073 38.0107Z" fill="#FF9C00"/>
<path d="M5.25391 32.9702H6.72035V34.4554H5.25391V32.9702Z" fill="#FF9C00"/>
<path d="M43.2812 32.9702H44.7477V34.4554H43.2812V32.9702Z" fill="#FF9C00"/>
<path d="M21.0391 10.0991H22.5055V11.5843H21.0391V10.0991Z" fill="#FF9C00"/>
<path d="M21.0391 15.0493H22.5055V16.5345H21.0391V15.0493Z" fill="#FF9C00"/>
<path d="M23.4844 12.5742H24.9508V14.0594H23.4844V12.5742Z" fill="#FF9C00"/>
<path d="M18.5977 12.5742H20.0641V14.0594H18.5977V12.5742Z" fill="#FF9C00"/>
</svg>
