<svg width="50" height="50" viewBox="0 0 50 50" fill="none" xmlns="http://www.w3.org/2000/svg">
<path d="M42.6777 7.32236C37.9558 2.60049 31.6777 0 25 0C18.3223 0 12.0442 2.60049 7.32227 7.32236C2.60029 12.0442 0 18.3223 0 25C0 31.6777 2.60039 37.9558 7.32227 42.6776C12.0441 47.3995 18.3223 50 25 50C31.6777 50 37.9558 47.3995 42.6777 42.6776C47.3995 37.9558 50 31.6777 50 25C50 18.3223 47.3995 12.0442 42.6777 7.32236ZM41.6419 41.6419C37.1967 46.0871 31.2865 48.5352 25 48.5352C18.7135 48.5352 12.8033 46.0871 8.35811 41.6419C3.91289 37.1967 1.46484 31.2865 1.46484 25C1.46484 18.7135 3.91289 12.8033 8.35811 8.35811C12.8033 3.91289 18.7135 1.46484 25 1.46484C31.2865 1.46484 37.1967 3.91289 41.6419 8.35811C46.0871 12.8033 48.5352 18.7135 48.5352 25C48.5352 31.2865 46.0871 37.1967 41.6419 41.6419Z" fill="#FF9C00"/>
<path d="M40.6197 9.38008C36.4475 5.20791 30.9003 2.91016 24.9999 2.91016C19.0995 2.91016 13.5522 5.20791 9.38008 9.38008C5.20791 13.5523 2.91016 19.0995 2.91016 24.9999C2.91016 30.9003 5.20791 36.4475 9.38008 40.6197C13.5522 44.7919 19.0995 47.0896 24.9999 47.0896C30.9003 47.0896 36.4475 44.7919 40.6197 40.6197C44.7919 36.4475 47.0896 30.9003 47.0896 24.9999C47.0896 19.0995 44.7919 13.5523 40.6197 9.38008ZM24.9999 45.6248C13.6272 45.6248 4.375 36.3726 4.375 24.9999C4.375 13.6272 13.6272 4.375 24.9999 4.375C36.3726 4.375 45.6248 13.6273 45.6248 24.9999C45.6248 36.3725 36.3726 45.6248 24.9999 45.6248Z" fill="#FF9C00"/>
<path d="M30.5647 32.2265C29.1774 32.1344 26.6756 32.2077 25.0002 33.6347C23.3249 32.2077 20.8233 32.1346 19.4356 32.2265C18.5175 32.2874 17.7792 33.0257 17.7183 33.9439C17.6212 35.4074 17.7069 38.1112 19.3723 39.7765C20.7654 41.1697 22.8852 41.4575 24.3977 41.4574C24.6295 41.4574 25.4722 41.4583 25.638 41.4583C28.3559 41.4583 29.8466 40.5579 30.628 39.7765C32.2933 38.1112 32.3791 35.4074 32.282 33.9438C32.2213 33.0257 31.4829 32.2874 30.5647 32.2265ZM20.4082 38.7408C19.8688 38.2014 18.9921 36.8736 19.18 34.0409C19.1925 33.8523 19.3441 33.7006 19.5327 33.6881C19.7993 33.6704 20.0524 33.6621 20.293 33.6621C22.6082 33.6621 23.7439 34.4277 24.2326 34.9163C24.772 35.4557 25.6487 36.7834 25.4608 39.6161C25.4483 39.8047 25.2967 39.9564 25.108 39.9689C22.2753 40.157 20.9475 39.2801 20.4082 38.7408ZM29.5924 38.7408C28.8834 39.4497 27.8544 39.7713 26.8984 39.906C26.9095 39.8426 26.9181 39.7785 26.9225 39.7131C27.004 38.4833 26.9561 36.378 25.9508 34.7488C26.5832 34.2148 27.9139 33.5184 30.4679 33.6881C30.6564 33.7006 30.8081 33.8523 30.8206 34.0409C31.0085 36.8736 30.1317 38.2014 29.5924 38.7408Z" fill="#FF9C00"/>
<path d="M36.774 24.211C36.7715 24.2044 36.7689 24.1978 36.7661 24.1911C36.6361 23.875 36.3315 23.6709 35.9897 23.6709C35.9894 23.6709 35.9892 23.6709 35.9889 23.6709C35.6468 23.6712 35.342 23.876 35.2125 24.1926C35.2103 24.1981 35.208 24.2037 35.206 24.2093L33.431 28.8699C33.287 29.2479 33.4767 29.6711 33.8547 29.815C34.2328 29.959 34.6559 29.7692 34.7998 29.3913L34.9507 28.9953H37.0137L37.1623 29.3893C37.2731 29.6826 37.5517 29.8633 37.8478 29.8633C37.9336 29.8633 38.0211 29.848 38.1062 29.8159C38.4846 29.6731 38.6757 29.2505 38.5328 28.8721L36.774 24.211ZM35.5087 27.5303L35.987 26.2743L36.461 27.5303H35.5087Z" fill="#FF9C00"/>
<path d="M17.9931 29.8157C18.3715 29.673 18.5626 29.2503 18.4197 28.8719L16.6609 24.211C16.6583 24.2044 16.6557 24.1978 16.6529 24.1911C16.523 23.875 16.2183 23.6709 15.8765 23.6709C15.8762 23.6709 15.8758 23.6709 15.8755 23.6709C15.5334 23.6713 15.2286 23.8762 15.0992 24.1929C15.0971 24.1983 15.0949 24.2037 15.0928 24.2092L13.3177 28.8698C13.1737 29.2479 13.3634 29.671 13.7414 29.8149C14.1193 29.9589 14.5426 29.7691 14.6865 29.3912L14.8374 28.9952H16.9004L17.049 29.3892C17.1598 29.6825 17.4384 29.8632 17.7345 29.8632C17.8205 29.8631 17.908 29.8479 17.9931 29.8157ZM15.3955 27.5303L15.8738 26.2744L16.3478 27.5303H15.3955Z" fill="#FF9C00"/>
<path d="M11.6578 23.6705C11.2533 23.6744 10.9286 24.0054 10.9325 24.4099L10.9559 26.829L8.99912 23.9955C8.81699 23.7317 8.48437 23.6172 8.17852 23.7125C7.87246 23.8079 7.66406 24.0912 7.66406 24.4117V29.13C7.66406 29.5345 7.99199 29.8625 8.39648 29.8625C8.80098 29.8625 9.12891 29.5345 9.12891 29.13V26.7612L10.9844 29.4481C11.1941 29.7509 11.546 29.879 11.8809 29.7743C12.2214 29.6678 12.4415 29.3525 12.4414 28.9636L12.3973 24.3958C12.3934 23.9914 12.0586 23.6651 11.6578 23.6705Z" fill="#FF9C00"/>
<path d="M41.5984 28.3937C41.2866 28.3954 40.9583 28.3967 40.6797 28.3973V24.4028C40.6797 23.9983 40.3518 23.6704 39.9473 23.6704C39.5428 23.6704 39.2148 23.9983 39.2148 24.4028V29.1261C39.2148 29.4829 39.472 29.7878 39.8236 29.8479C39.8758 29.8569 39.9103 29.8628 40.4451 29.8628C40.7 29.8628 41.0685 29.8614 41.6066 29.8585C42.0111 29.8562 42.3372 29.5265 42.335 29.122C42.3327 28.7175 42.0058 28.3906 41.5984 28.3937Z" fill="#FF9C00"/>
<path d="M23.7598 23.6704C23.3553 23.6704 23.0273 23.9983 23.0273 24.4028V27.6557C23.0273 28.4204 23.3906 29.0402 24.107 29.498C24.4845 29.7393 24.91 29.8618 25.3718 29.8625H25.3754C25.7719 29.8625 26.1444 29.7761 26.4831 29.6056C27.3175 29.1854 27.777 28.4917 27.777 27.6523V24.4029C27.777 23.9984 27.449 23.6705 27.0445 23.6705C26.64 23.6705 26.3121 23.9984 26.3121 24.4029V27.6523C26.3121 27.8498 26.2541 28.0808 25.8242 28.2973C25.6899 28.3648 25.5432 28.3978 25.3754 28.3978C25.3748 28.3978 25.3742 28.3978 25.3737 28.3978C25.1928 28.3975 25.0364 28.3537 24.8957 28.2638C24.5582 28.0481 24.4922 27.8775 24.4922 27.6558V24.4029C24.4922 23.9983 24.1643 23.6704 23.7598 23.6704Z" fill="#FF9C00"/>
<path d="M18.8652 23.6704C18.4607 23.6704 18.1328 23.9983 18.1328 24.4028C18.1328 24.8073 18.4607 25.1353 18.8652 25.1353H19.4328V29.13C19.4328 29.5345 19.7607 29.8624 20.1652 29.8624C20.5697 29.8624 20.8977 29.5345 20.8977 29.13V25.1353H21.4758C21.8803 25.1353 22.2082 24.8073 22.2082 24.4028C22.2082 23.9983 21.8803 23.6704 21.4758 23.6704H18.8652Z" fill="#FF9C00"/>
<path d="M32.8058 25.6318C32.8058 24.5506 31.8948 23.6709 30.7753 23.6709H29.5191C29.5188 23.6709 29.5187 23.6709 29.5184 23.6709C29.5181 23.6709 29.5179 23.6709 29.5176 23.6709C29.1131 23.6709 28.7852 23.9988 28.7852 24.4033V29.1305C28.7852 29.535 29.1131 29.8629 29.5176 29.8629C29.9221 29.8629 30.25 29.535 30.25 29.1305V28.1673L31.5236 29.6144C31.6684 29.7789 31.8705 29.8629 32.0737 29.8629C32.2456 29.8629 32.4182 29.8027 32.5573 29.6803C32.8609 29.413 32.8905 28.9502 32.6232 28.6466L31.5611 27.4398C32.2915 27.1426 32.8058 26.4441 32.8058 25.6318ZM30.7753 25.1356C31.0767 25.1356 31.3409 25.3675 31.3409 25.6317C31.3409 25.896 31.0766 26.1278 30.7753 26.1278C30.6505 26.1278 30.4556 26.1285 30.2562 26.1294C30.2554 25.9374 30.2547 25.751 30.2547 25.6317C30.2547 25.5291 30.2543 25.3375 30.2537 25.1356H30.7753Z" fill="#FF9C00"/>
<path d="M14.1267 14.9814V20.5255C14.1267 20.93 14.4546 21.2579 14.8591 21.2579C15.2636 21.2579 15.5915 20.93 15.5915 20.5255V14.249C15.5915 13.8445 15.2636 13.5166 14.8591 13.5166H13.5176C13.1131 13.5166 12.7852 13.8445 12.7852 14.249C12.7852 14.6535 13.1131 14.9814 13.5176 14.9814H14.1267Z" fill="#FF9C00"/>
<path d="M34.0212 20.5317L36.5189 14.5805C36.6754 14.2075 36.4999 13.7782 36.127 13.6217C35.7542 13.4652 35.3248 13.6406 35.1682 14.0136L32.6705 19.9648C32.514 20.3378 32.6895 20.7671 33.0624 20.9236C33.155 20.9625 33.2511 20.9808 33.3455 20.9808C33.6318 20.9809 33.9035 20.8121 34.0212 20.5317Z" fill="#FF9C00"/>
<path d="M31.2734 17.3173C32.2858 17.3173 33.1095 16.4135 33.1095 15.3024C33.1095 14.1914 32.2858 13.2876 31.2734 13.2876C30.261 13.2876 29.4375 14.1914 29.4375 15.3024C29.4375 16.4135 30.261 17.3173 31.2734 17.3173ZM31.2734 14.7524C31.449 14.7524 31.6446 14.9783 31.6446 15.3024C31.6446 15.6266 31.449 15.8524 31.2734 15.8524C31.098 15.8524 30.9023 15.6266 30.9023 15.3024C30.9023 14.9783 31.0979 14.7524 31.2734 14.7524Z" fill="#FF9C00"/>
<path d="M37.8321 17.3564C36.8197 17.3564 35.9961 18.2603 35.9961 19.3713C35.9961 20.4823 36.8197 21.3861 37.8321 21.3861C38.8445 21.3861 39.6682 20.4823 39.6682 19.3713C39.6682 18.2603 38.8445 17.3564 37.8321 17.3564ZM37.8321 19.9213C37.6565 19.9213 37.4609 19.6954 37.4609 19.3713C37.4609 19.0472 37.6565 18.8213 37.8321 18.8213C38.0077 18.8213 38.2033 19.0472 38.2033 19.3713C38.2033 19.6954 38.0077 19.9213 37.8321 19.9213Z" fill="#FF9C00"/>
<path d="M19.1138 21.386C20.5185 21.386 21.6611 20.2433 21.6611 18.8387V15.936C21.6611 14.5313 20.5184 13.3887 19.1138 13.3887C17.7092 13.3887 16.5664 14.5314 16.5664 15.936V18.8387C16.5663 20.2433 17.7091 21.386 19.1138 21.386ZM18.0312 15.936C18.0312 15.3391 18.5168 14.8535 19.1137 14.8535C19.7105 14.8535 20.1962 15.3392 20.1962 15.936V18.8387C20.1962 19.4356 19.7105 19.9212 19.1137 19.9212C18.5168 19.9212 18.0312 19.4355 18.0312 18.8387V15.936Z" fill="#FF9C00"/>
<path d="M25.3013 21.386C26.706 21.386 27.8486 20.2433 27.8486 18.8387V15.936C27.8486 14.5313 26.7059 13.3887 25.3013 13.3887C23.8967 13.3887 22.7539 14.5314 22.7539 15.936V18.8387C22.7538 20.2433 23.8966 21.386 25.3013 21.386ZM24.2187 15.936C24.2187 15.3391 24.7043 14.8535 25.3012 14.8535C25.898 14.8535 26.3837 15.3392 26.3837 15.936V18.8387C26.3837 19.4356 25.898 19.9212 25.3012 19.9212C24.7043 19.9212 24.2187 19.4355 24.2187 18.8387V15.936Z" fill="#FF9C00"/>
</svg>
