<svg width="50" height="50" viewBox="0 0 50 50" fill="none" xmlns="http://www.w3.org/2000/svg">
<g clip-path="url(#clip0_24_128)">
<path d="M37.1641 33.1288C36.9782 32.836 36.6605 32.6611 36.3142 32.6611C35.9679 32.6611 35.6502 32.836 35.4642 33.1288C34.0039 35.4291 34.0039 36.145 34.0039 36.3802C34.0039 37.654 35.0403 38.6904 36.3142 38.6904C37.5881 38.6904 38.6245 37.654 38.6245 36.3802C38.6245 36.145 38.6245 35.4291 37.1641 33.1288ZM36.3142 37.2876C35.8138 37.2876 35.4067 36.8805 35.4067 36.3802C35.4067 36.2156 35.6056 35.6093 36.3142 34.4228C37.0227 35.6094 37.2217 36.2156 37.2217 36.3802C37.2217 36.8805 36.8146 37.2876 36.3142 37.2876Z" fill="#FF9C00"/>
<path d="M34.3075 27.584C34.3066 28.7628 34.4277 29.9459 34.6675 31.1006L34.671 31.1175C34.7388 31.4427 35.0252 31.6759 35.3573 31.6761L37.2705 31.6774H37.271C37.605 31.6774 37.8927 31.4418 37.9586 31.1143L37.9736 31.0396C38.198 29.926 38.3123 28.7851 38.3132 27.649L38.3199 19.4007L39.1911 19.4014H39.1916C39.5787 19.4014 39.8927 19.0877 39.893 18.7005L39.8946 16.667C39.8947 16.481 39.821 16.3025 39.6895 16.1709C39.5581 16.0392 39.3797 15.9652 39.1937 15.9651L38.3433 15.9644L38.6367 13.8241C38.7278 13.1607 38.5277 12.4908 38.0877 11.9861C37.6478 11.4812 37.0115 11.1915 36.3423 11.191L36.3027 11.1909C35.6335 11.1909 34.9972 11.48 34.5569 11.984C34.1167 12.4879 33.9157 13.1574 34.0057 13.8205L34.296 15.9614L33.4455 15.9608H33.4451C33.2592 15.9608 33.081 16.0346 32.9494 16.1659C32.8178 16.2973 32.7438 16.4757 32.7437 16.6617L32.7422 18.6952C32.7419 19.0826 33.0557 19.3968 33.4431 19.3971L34.3142 19.3978L34.3075 27.584ZM36.9104 27.6478C36.9097 28.526 36.8352 29.4072 36.6889 30.2743L35.9384 30.2737C35.7863 29.3862 35.7096 28.4843 35.7103 27.5852L35.717 19.3988L36.9171 19.3997L36.9104 27.6478ZM35.7118 15.9625L35.3957 13.632C35.3597 13.3663 35.437 13.1088 35.6135 12.9068C35.7898 12.7049 36.0346 12.5937 36.3031 12.5937L36.3409 12.5938C36.6091 12.594 36.8539 12.7055 37.0303 12.9077C37.2065 13.1099 37.2834 13.3676 37.2469 13.6334L36.9274 15.9634L36.3196 15.9629L35.7118 15.9625ZM34.146 17.3642L36.3222 17.3657L37.5387 17.3666H37.5392L37.5394 17.3666L38.4912 17.3673L38.4908 17.998L34.1455 17.9949L34.146 17.3642Z" fill="#FF9C00"/>
<path d="M11.5796 21.1997C10.5492 21.1997 9.71094 22.038 9.71094 23.0684C9.71094 24.0988 10.5492 24.9371 11.5796 24.9371C12.61 24.9371 13.4483 24.0988 13.4483 23.0684C13.4483 22.038 12.61 21.1997 11.5796 21.1997ZM11.5796 23.5343C11.3228 23.5343 11.1137 23.3252 11.1137 23.0684C11.1137 22.8115 11.3228 22.6025 11.5796 22.6025C11.8365 22.6025 12.0455 22.8115 12.0455 23.0684C12.0455 23.3252 11.8365 23.5343 11.5796 23.5343Z" fill="#FF9C00"/>
<path d="M31.9018 31.3865C31.9161 31.285 31.9301 31.1835 31.9409 31.0811C32.2176 28.4555 31.4036 25.9359 29.6487 23.9865C27.9174 22.0631 25.4433 20.96 22.8604 20.96C21.1658 20.96 19.5099 21.4307 18.072 22.3212C17.9508 22.3962 17.7994 22.4205 17.6667 22.3861C17.5869 22.3654 17.5238 22.3271 17.4801 22.2749C17.4837 22.1034 17.4778 21.9346 17.4631 21.7686C21.0894 19.5078 23.2658 16.9979 24.111 14.1029C24.275 13.5409 24.1229 12.9286 23.7139 12.5048C23.3062 12.0822 22.726 11.915 22.1621 12.0582C21.4488 12.2391 20.7766 12.5392 20.1501 12.9152C20.239 12.3474 20.2813 11.7828 20.272 11.225C20.2612 10.6388 19.9322 10.0991 19.4135 9.81629C18.8975 9.53512 18.2944 9.54984 17.8026 9.85426C14.6367 11.796 13.3611 16.3309 12.9816 18.0408C11.5382 18.0504 10.0125 18.5784 8.67397 19.5532C7.32909 20.5385 6.34387 21.8595 5.89982 23.2727C5.4315 24.7632 5.61145 26.1845 6.40728 27.2759C7.24303 28.4179 8.68444 29.0334 10.3267 28.9696C10.3393 30.1845 10.5254 32.6513 11.6766 34.9693C11.1136 35.2852 10.6813 35.7669 10.4785 36.3331C10.2136 37.0726 10.3587 37.8516 10.8871 38.5265C11.2276 38.9616 11.7555 39.2123 12.3354 39.2144C13.8454 39.2202 15.5174 39.2222 17.0932 39.2222C17.9916 39.2222 18.8578 39.2215 19.6452 39.2206C19.6672 39.2212 19.6892 39.2223 19.7113 39.2223C19.7233 39.2223 19.735 39.2211 19.7469 39.2205C21.8117 39.2179 23.3051 39.2134 23.3355 39.2134C23.3951 39.2132 23.453 39.2055 23.5082 39.1914C23.6979 39.1785 23.8877 39.1599 24.0767 39.1358C25.786 38.9137 27.3545 38.1995 28.6372 37.1459C28.6596 37.1557 28.6827 37.1645 28.7066 37.172C29.0353 37.2755 29.3698 37.3247 29.6999 37.3247C31.1023 37.3247 32.4271 36.4364 32.9043 35.0493C33.3606 33.7226 32.9483 32.2738 31.9018 31.3865ZM22.5069 13.4179C22.5997 13.3945 22.6653 13.4383 22.7045 13.4789C22.7339 13.5094 22.7985 13.5928 22.7644 13.7098C22.0473 16.1662 20.1849 18.3436 17.08 20.3508C16.978 20.1385 16.8575 19.9361 16.7179 19.746C16.5868 19.5654 16.4412 19.3988 16.2834 19.2452C16.7327 18.4504 17.846 16.6441 19.4039 15.2236C19.4404 15.1966 19.4745 15.1659 19.5057 15.1317C20.3827 14.3513 21.3956 13.6998 22.5069 13.4179ZM18.5385 11.0485C18.6177 10.9996 18.6929 11.0212 18.7421 11.048C18.7796 11.0685 18.8672 11.1292 18.8694 11.2495C18.8857 12.2301 18.72 13.2417 18.3811 14.2589C16.7662 15.7518 15.6294 17.5557 15.1143 18.4592C14.8841 18.3567 14.6406 18.2722 14.3847 18.2066C14.7592 16.6061 15.9211 12.6539 18.5385 11.0485ZM23.8976 37.7445C23.5478 37.7891 23.1955 37.812 22.8465 37.8106C22.8287 37.8112 22.8149 37.8111 22.7994 37.812C22.1749 37.8136 21.0478 37.8161 19.6768 37.8177C19.2262 37.7994 18.865 37.4281 18.865 36.9731V36.9418C18.865 36.4752 19.2447 36.0955 19.7113 36.0955H22.3259C22.3288 36.0956 22.3317 36.096 22.3346 36.096C22.337 36.096 22.3393 36.0955 22.3417 36.0955H23.0274C23.4148 36.0955 23.7288 35.7815 23.7288 35.3941C23.7288 35.0067 23.4148 34.6927 23.0274 34.6927H22.5089C21.7412 34.2868 21.1494 33.7422 20.7094 33.0289C20.7061 33.0224 20.7028 33.0158 20.6994 33.0094C20.4922 32.6183 20.3827 32.173 20.3827 31.7214C20.3827 30.1859 21.6319 28.9367 23.1674 28.9367C23.5548 28.9367 23.8688 28.6227 23.8688 28.2353C23.8688 27.8479 23.5548 27.5339 23.1674 27.5339C20.8584 27.5339 18.9799 29.4124 18.9799 31.7214C18.9799 32.3807 19.1361 33.0331 19.4319 33.6124C19.4451 33.6442 19.4607 33.6751 19.4786 33.7049C19.6941 34.0631 19.9425 34.3923 20.2216 34.6927H19.7113C18.4712 34.6927 17.4622 35.7017 17.4622 36.9418V36.9731C17.4622 37.2724 17.5214 37.5579 17.628 37.8192C15.9026 37.8197 14.0208 37.818 12.3407 37.8116C12.1952 37.8112 12.0648 37.7552 11.9918 37.6618C11.7645 37.3716 11.6997 37.0836 11.7991 36.8061C11.9317 36.436 12.3347 36.1264 12.8259 36.0172C13.046 35.9684 13.2292 35.8166 13.3182 35.6095C13.4072 35.4023 13.3912 35.165 13.2752 34.9717C11.7385 32.4105 11.7066 29.3827 11.7335 28.5157C11.7422 28.2339 11.6297 27.9648 11.4248 27.7774C11.2494 27.6169 11.0205 27.5295 10.7829 27.5295C10.7444 27.5295 10.7056 27.5318 10.6668 27.5364C9.30565 27.7 8.16573 27.3034 7.54006 26.4485C6.4065 24.8939 7.28712 22.3083 9.50141 20.6859C10.8116 19.7319 12.3779 19.2863 13.6918 19.4939C14.512 19.6236 15.1658 19.9957 15.585 20.5733C15.9403 21.0569 16.1052 21.646 16.0751 22.3243C16.0563 22.5721 16.1469 22.7719 16.2211 22.908C16.4536 23.3245 16.842 23.6214 17.3146 23.744C17.8182 23.8746 18.3633 23.7906 18.8105 23.5139C20.0264 22.7608 21.4269 22.3628 22.8604 22.3628C25.0463 22.3628 27.1405 23.2967 28.6061 24.925C30.0914 26.5751 30.7803 28.7092 30.5458 30.9338C30.1762 34.4277 27.3795 37.2921 23.8976 37.7445ZM31.5778 34.593C31.3185 35.3466 30.6318 35.8479 29.8788 35.9149C30.5728 35.0824 31.121 34.1268 31.4852 33.091C31.7077 33.5474 31.7524 34.0852 31.5778 34.593Z" fill="#FF9C00"/>
<path d="M42.6776 7.32182C37.9558 2.59998 31.6777 -0.000488281 25 -0.000488281C18.3223 -0.000488281 12.0442 2.59998 7.32236 7.32182C2.60046 12.0437 0 18.3218 0 24.9995C0 31.6773 2.60046 37.9554 7.32236 42.6772C12.0442 47.3991 18.3223 49.9996 25 49.9996C31.6777 49.9996 37.9558 47.3991 42.6776 42.6772C47.3996 37.9554 50 31.6773 50 24.9995C50 18.3218 47.3996 12.0437 42.6776 7.32182ZM1.40281 24.9995C1.40281 18.7453 3.84945 13.0523 7.83477 8.82522L12.6159 13.6063C12.7528 13.7432 12.9323 13.8117 13.1118 13.8117C13.2913 13.8117 13.4708 13.7432 13.6078 13.6063C13.8817 13.3323 13.8817 12.8882 13.6078 12.6143L8.82672 7.83333C13.0537 3.84858 18.7462 1.40232 25 1.40232C38.0116 1.40232 48.5972 11.988 48.5972 24.9995C48.5972 31.2533 46.1509 36.9458 42.1662 41.1728L39.6894 38.696C39.4155 38.4221 38.9714 38.4221 38.6975 38.6959C38.4235 38.9699 38.4235 39.4139 38.6974 39.6878L41.1743 42.1648C36.9472 46.1501 31.2543 48.5968 25 48.5968C11.9885 48.5968 1.40281 38.011 1.40281 24.9995Z" fill="#FF9C00"/>
</g>
<defs>
<clipPath id="clip0_24_128">
<rect width="50" height="50" fill="white"/>
</clipPath>
</defs>
</svg>
