<svg width="50" height="50" viewBox="0 0 50 50" fill="none" xmlns="http://www.w3.org/2000/svg">
<path d="M40.592 9.40983C31.9948 0.812608 18.0087 0.812608 9.41146 9.40983C5.24479 13.5765 2.95312 19.1112 2.95312 25.0001C2.95312 30.889 5.24479 36.4237 9.41146 40.5904C13.7101 44.889 19.3559 47.0418 25.0017 47.0348C30.6476 47.0348 36.2934 44.8821 40.592 40.5904C44.7587 36.4237 47.0503 30.889 47.0503 25.0001C47.0503 19.1112 44.7587 13.5765 40.592 9.40983ZM39.8559 39.8543C31.6684 48.0487 18.3351 48.0418 10.1476 39.8543C6.18229 35.889 3.99479 30.6112 3.99479 25.0001C3.99479 19.389 6.18229 14.1112 10.1476 10.1459C14.2448 6.04872 19.6198 4.00011 25.0017 4.00011C30.3837 4.00011 35.7587 6.04872 39.8559 10.1459C43.8212 14.1112 46.0087 19.389 46.0087 25.0001C46.0087 30.6112 43.8212 35.889 39.8559 39.8543Z" fill="#FF9C00"/>
<path d="M39.5375 12.4169C39.4403 12.3057 39.3083 12.2432 39.1625 12.2363C39.0097 12.2224 38.8778 12.2849 38.7736 12.3891L12.3916 38.778C12.2875 38.8821 12.2319 39.021 12.2389 39.1669C12.2458 39.3127 12.3083 39.4446 12.4194 39.5418C16.0236 42.6668 20.5097 44.2155 24.9958 44.2155C29.9403 44.2155 34.8778 42.3335 38.6069 38.6044C45.6972 31.4932 46.1139 19.9932 39.5375 12.4169ZM24.4541 28.6113H25.475V35.8544C25.475 37.6044 26.2944 39.1738 27.5861 40.153H22.3083C23.6139 39.1669 24.4541 37.5835 24.4541 35.8544V28.6113ZM25.9402 27.5696H25.0722L30.8916 21.7502C30.8847 21.8127 30.8847 21.8682 30.8777 21.9307C30.468 26.4585 26.7736 27.4099 25.9402 27.5696ZM37.8639 37.8613C31.2805 44.4446 20.6972 44.9516 13.5305 39.1044L23.4194 29.2155V35.8405C23.4194 37.9238 21.9055 39.7502 19.8778 40.0835C19.7597 40.1044 19.6416 40.1252 19.5097 40.1321C19.2319 40.1599 19.0236 40.396 19.0375 40.6738C19.0514 40.9516 19.2805 41.1738 19.5583 41.1738H30.3916C30.6694 41.1738 30.8986 40.9516 30.9125 40.6738C30.9264 40.396 30.718 40.1599 30.4403 40.1321C30.3083 40.1182 30.1903 40.1044 30.0514 40.0766C28.0444 39.7432 26.5305 37.9168 26.5305 35.8335V28.5071C27.9472 28.146 31.4958 26.7641 31.9333 22.021C31.975 21.5766 31.9889 21.1182 31.9889 20.6599L39.1208 13.528C44.9472 20.6946 44.4472 31.271 37.8639 37.8613Z" fill="#FF9C00"/>
<path d="M37.7655 10.8402C37.7585 10.6944 37.696 10.5624 37.5849 10.4652C30.0016 3.88189 18.5016 4.29161 11.4044 11.4027C4.30019 18.5069 3.89047 30.0069 10.4669 37.5833C10.5641 37.6944 10.696 37.7569 10.8419 37.7638H10.8627C11.0016 37.7638 11.1335 37.7083 11.2307 37.6111L37.6127 11.2361C37.7169 11.1249 37.7724 10.9861 37.7655 10.8402ZM19.0502 21.9236C18.8905 20.1944 19.078 18.1388 19.5571 15.8333H30.3905C30.4599 16.1527 30.5155 16.4722 30.578 16.7986L21.1613 26.2083C19.9321 25.1874 19.2169 23.7499 19.0502 21.9236ZM19.7794 14.7916C20.3071 12.5902 20.953 10.7777 21.2238 10.0624H28.703C28.9738 10.7708 29.6266 12.5833 30.1544 14.7916H19.7794ZM31.4669 15.9027C30.7655 12.3611 29.5988 9.47911 29.5433 9.34716C29.4599 9.15272 29.2724 9.02078 29.0641 9.02078H20.8696C20.6613 9.02078 20.4669 9.14578 20.3905 9.34716C20.3488 9.44439 19.4044 11.7916 18.696 14.8611C18.0641 17.5902 17.8349 19.993 18.0224 22.0208C18.2099 24.0694 19.0432 25.7569 20.4252 26.9513L10.8974 36.4722C5.05019 29.3055 5.55714 18.7291 12.1405 12.1388C15.6682 8.61105 20.3349 6.82633 25.0085 6.82633C29.071 6.82633 33.1405 8.17355 36.4738 10.8888L31.4669 15.9027Z" fill="#FF9C00"/>
<path d="M22.042 23.7919C20.549 20.5142 21.5351 17.9586 21.5559 17.91C21.667 17.6461 21.542 17.3406 21.2712 17.2294C21.0073 17.1183 20.7018 17.2433 20.5907 17.5142C20.542 17.6322 19.3893 20.5003 21.0907 24.2294C21.1809 24.4239 21.3684 24.535 21.5629 24.535C21.6323 24.535 21.7087 24.5211 21.7782 24.4864C22.049 24.3614 22.1601 24.0558 22.042 23.7919Z" fill="#FF9C00"/>
</svg>
