<svg width="50" height="50" viewBox="0 0 50 50" fill="none" xmlns="http://www.w3.org/2000/svg">
<g clip-path="url(#clip0_24_296)">
<path d="M25 10.9375C25.8288 10.9375 26.6237 10.6083 27.2097 10.0222C27.7958 9.43616 28.125 8.6413 28.125 7.8125V3.125C28.125 2.2962 27.7958 1.50134 27.2097 0.915291C26.6237 0.32924 25.8288 0 25 0C24.1712 0 23.3763 0.32924 22.7903 0.915291C22.2042 1.50134 21.875 2.2962 21.875 3.125V7.8125C21.875 8.6413 22.2042 9.43616 22.7903 10.0222C23.3763 10.6083 24.1712 10.9375 25 10.9375ZM23.4375 3.125C23.4375 2.7106 23.6021 2.31317 23.8951 2.02015C24.1882 1.72712 24.5856 1.5625 25 1.5625C25.4144 1.5625 25.8118 1.72712 26.1049 2.02015C26.3979 2.31317 26.5625 2.7106 26.5625 3.125V7.8125C26.5625 8.2269 26.3979 8.62433 26.1049 8.91735C25.8118 9.21038 25.4144 9.375 25 9.375C24.5856 9.375 24.1882 9.21038 23.8951 8.91735C23.6021 8.62433 23.4375 8.2269 23.4375 7.8125V3.125Z" fill="#FF9C00"/>
<path d="M30.4688 10.9375C30.676 10.9375 30.8747 10.8552 31.0212 10.7087C31.1677 10.5622 31.25 10.3635 31.25 10.1562V4.09219L34.4578 10.507C34.5367 10.6644 34.6663 10.7905 34.8258 10.8649C34.9853 10.9393 35.1652 10.9578 35.3365 10.9172C35.5077 10.8766 35.6602 10.7793 35.7693 10.6412C35.8784 10.5031 35.9377 10.3322 35.9375 10.1562V0.78125C35.9375 0.57405 35.8552 0.375336 35.7087 0.228823C35.5622 0.08231 35.3635 0 35.1562 0C34.949 0 34.7503 0.08231 34.6038 0.228823C34.4573 0.375336 34.375 0.57405 34.375 0.78125V6.84766L31.1672 0.432813C31.0884 0.275656 30.959 0.149656 30.7997 0.0751833C30.6405 0.000710611 30.4608 -0.0178821 30.2897 0.0224109C30.1186 0.062704 29.966 0.159528 29.8568 0.297229C29.7475 0.43493 29.6879 0.60546 29.6875 0.78125V10.1562C29.6875 10.3635 29.7698 10.5622 29.9163 10.7087C30.0628 10.8552 30.2615 10.9375 30.4688 10.9375Z" fill="#FF9C00"/>
<path d="M14.8438 10.9375C15.051 10.9375 15.2497 10.8552 15.3962 10.7087C15.5427 10.5622 15.625 10.3635 15.625 10.1562V4.09219L18.8328 10.507C18.9117 10.6644 19.0413 10.7905 19.2008 10.8649C19.3603 10.9393 19.5402 10.9578 19.7115 10.9172C19.8827 10.8766 20.0352 10.7793 20.1443 10.6412C20.2534 10.5031 20.3127 10.3322 20.3125 10.1562V0.78125C20.3125 0.57405 20.2302 0.375336 20.0837 0.228823C19.9372 0.08231 19.7385 0 19.5312 0C19.324 0 19.1253 0.08231 18.9788 0.228823C18.8323 0.375336 18.75 0.57405 18.75 0.78125V6.84766L15.5422 0.432813C15.4634 0.275656 15.334 0.149656 15.1747 0.0751833C15.0155 0.000710611 14.8358 -0.0178821 14.6647 0.0224109C14.4936 0.062704 14.341 0.159528 14.2318 0.297229C14.1225 0.43493 14.0629 0.60546 14.0625 0.78125V10.1562C14.0625 10.3635 14.1448 10.5622 14.2913 10.7087C14.4378 10.8552 14.6365 10.9375 14.8438 10.9375Z" fill="#FF9C00"/>
<path d="M17.9688 14.8438V17.9688C17.9688 18.5904 18.2157 19.1865 18.6552 19.626C19.0948 20.0656 19.6909 20.3125 20.3125 20.3125C20.9341 20.3125 21.5302 20.0656 21.9698 19.626C22.4093 19.1865 22.6562 18.5904 22.6562 17.9688V14.8438C22.6562 14.2221 22.4093 13.626 21.9698 13.1865C21.5302 12.7469 20.9341 12.5 20.3125 12.5C19.6909 12.5 19.0948 12.7469 18.6552 13.1865C18.2157 13.626 17.9688 14.2221 17.9688 14.8438ZM21.0938 14.8438V17.9688C21.0938 18.176 21.0114 18.3747 20.8649 18.5212C20.7184 18.6677 20.5197 18.75 20.3125 18.75C20.1053 18.75 19.9066 18.6677 19.7601 18.5212C19.6136 18.3747 19.5312 18.176 19.5312 17.9688V14.8438C19.5312 14.6365 19.6136 14.4378 19.7601 14.2913C19.9066 14.1448 20.1053 14.0625 20.3125 14.0625C20.5197 14.0625 20.7184 14.1448 20.8649 14.2913C21.0114 14.4378 21.0938 14.6365 21.0938 14.8438Z" fill="#FF9C00"/>
<path d="M27.4222 12.9338L26.5628 14.6604L25.7035 12.9338C25.6108 12.7484 25.4483 12.6073 25.2517 12.5417C25.0551 12.476 24.8405 12.4912 24.655 12.5838C24.4696 12.6764 24.3285 12.8389 24.2629 13.0356C24.1972 13.2322 24.2124 13.4468 24.305 13.6323L25.6894 16.4065L24.3011 19.1823C24.2085 19.3677 24.1933 19.5823 24.259 19.779C24.3246 19.9756 24.4657 20.1381 24.6511 20.2307C24.8366 20.3233 25.0512 20.3385 25.2478 20.2728C25.4444 20.2072 25.6069 20.0661 25.6995 19.8807L26.5628 18.1549L27.4222 19.8823C27.5148 20.0677 27.6773 20.2088 27.8739 20.2744C28.0706 20.34 28.2852 20.3249 28.4706 20.2323C28.6561 20.1396 28.7971 19.9771 28.8628 19.7805C28.9284 19.5839 28.9133 19.3693 28.8206 19.1838L27.4363 16.4065L28.8285 13.6323C28.9211 13.4468 28.9362 13.2322 28.8706 13.0356C28.805 12.8389 28.6639 12.6764 28.4785 12.5838C28.293 12.4912 28.0784 12.476 27.8817 12.5417C27.6851 12.6073 27.5226 12.7484 27.43 12.9338H27.4222Z" fill="#FF9C00"/>
<path d="M30.4688 13.2812V19.5312C30.4688 19.7385 30.5511 19.9372 30.6976 20.0837C30.8441 20.2302 31.0428 20.3125 31.25 20.3125C31.4572 20.3125 31.6559 20.2302 31.8024 20.0837C31.9489 19.9372 32.0312 19.7385 32.0312 19.5312V13.2812C32.0312 13.074 31.9489 12.8753 31.8024 12.7288C31.6559 12.5823 31.4572 12.5 31.25 12.5C31.0428 12.5 30.8441 12.5823 30.6976 12.7288C30.5511 12.8753 30.4688 13.074 30.4688 13.2812Z" fill="#FF9C00"/>
<path d="M12.5 14.0625H13.2812V19.5312C13.2812 19.7385 13.3636 19.9372 13.5101 20.0837C13.6566 20.2302 13.8553 20.3125 14.0625 20.3125C14.2697 20.3125 14.4684 20.2302 14.6149 20.0837C14.7614 19.9372 14.8438 19.7385 14.8438 19.5312V14.0625H15.625C15.8322 14.0625 16.0309 13.9802 16.1774 13.8337C16.3239 13.6872 16.4062 13.4885 16.4062 13.2812C16.4062 13.074 16.3239 12.8753 16.1774 12.7288C16.0309 12.5823 15.8322 12.5 15.625 12.5H12.5C12.2928 12.5 12.0941 12.5823 11.9476 12.7288C11.8011 12.8753 11.7188 13.074 11.7188 13.2812C11.7188 13.4885 11.8011 13.6872 11.9476 13.8337C12.0941 13.9802 12.2928 14.0625 12.5 14.0625Z" fill="#FF9C00"/>
<path d="M33.5938 14.8438V17.9688C33.5938 18.5904 33.8407 19.1865 34.2802 19.626C34.7198 20.0656 35.3159 20.3125 35.9375 20.3125C36.5591 20.3125 37.1552 20.0656 37.5948 19.626C38.0343 19.1865 38.2812 18.5904 38.2812 17.9688C38.2812 17.7615 38.1989 17.5628 38.0524 17.4163C37.9059 17.2698 37.7072 17.1875 37.5 17.1875C37.2928 17.1875 37.0941 17.2698 36.9476 17.4163C36.8011 17.5628 36.7188 17.7615 36.7188 17.9688C36.7188 18.176 36.6364 18.3747 36.4899 18.5212C36.3434 18.6677 36.1447 18.75 35.9375 18.75C35.7303 18.75 35.5316 18.6677 35.3851 18.5212C35.2386 18.3747 35.1562 18.176 35.1562 17.9688V14.8438C35.1562 14.6365 35.2386 14.4378 35.3851 14.2913C35.5316 14.1448 35.7303 14.0625 35.9375 14.0625C36.1447 14.0625 36.3434 14.1448 36.4899 14.2913C36.6364 14.4378 36.7188 14.6365 36.7188 14.8438C36.7188 15.051 36.8011 15.2497 36.9476 15.3962C37.0941 15.5427 37.2928 15.625 37.5 15.625C37.7072 15.625 37.9059 15.5427 38.0524 15.3962C38.1989 15.2497 38.2812 15.051 38.2812 14.8438C38.2812 14.2221 38.0343 13.626 37.5948 13.1865C37.1552 12.7469 36.5591 12.5 35.9375 12.5C35.3159 12.5 34.7198 12.7469 34.2802 13.1865C33.8407 13.626 33.5938 14.2221 33.5938 14.8438Z" fill="#FF9C00"/>
<path d="M49.1336 24.7471C49.1163 24.5665 49.0367 24.3975 48.9084 24.2692C48.7801 24.1409 48.6111 24.0613 48.4305 24.0439C47.925 23.9924 35.9149 22.8986 29.0188 29.7939C27.4748 31.3702 26.2413 33.223 25.3829 35.2557C24.5373 32.422 23.0265 29.8315 20.9766 27.7002C14.0821 20.8064 2.07036 21.9002 1.56489 21.951C1.38428 21.9683 1.21532 22.0479 1.08702 22.1762C0.958725 22.3045 0.879083 22.4735 0.861767 22.6541C0.811767 23.1619 -0.282764 35.1721 6.61177 42.0658C11.4477 46.9025 18.7813 47.8229 23.1915 47.8939C23.2157 48.6416 23.2586 49.1158 23.2696 49.2072C23.2869 49.3878 23.3665 49.5568 23.4948 49.6851C23.6231 49.8134 23.7921 49.893 23.9727 49.9103C24.1008 49.9228 24.9665 50.0025 26.3 50.0025C30.2329 50.0025 38.2344 49.3096 43.3836 44.1604C50.2782 37.2658 49.1836 25.2541 49.1336 24.7471ZM23.3633 43.3463L22.3118 42.2939V37.0924C22.3118 36.8852 22.2295 36.6865 22.0829 36.54C21.9364 36.3934 21.7377 36.3111 21.5305 36.3111C21.3233 36.3111 21.1246 36.3934 20.9781 36.54C20.8316 36.6865 20.7493 36.8852 20.7493 37.0924V40.7314L17.8899 37.8744V33.7783C17.8899 33.5711 17.8076 33.3724 17.6611 33.2259C17.5146 33.0794 17.3158 32.9971 17.1086 32.9971C16.9014 32.9971 16.7027 33.0794 16.5562 33.2259C16.4097 33.3724 16.3274 33.5711 16.3274 33.7783V36.3119L12.918 32.9025V29.9111C12.918 29.7039 12.8357 29.5052 12.6892 29.3587C12.5427 29.2122 12.344 29.1299 12.1368 29.1299C11.9296 29.1299 11.7309 29.2122 11.5843 29.3587C11.4378 29.5052 11.3555 29.7039 11.3555 29.9111V31.34L8.82739 28.8064C8.75532 28.7318 8.66912 28.6723 8.5738 28.6314C8.47849 28.5904 8.37597 28.5689 8.27224 28.568C8.1685 28.5671 8.06563 28.5868 7.96962 28.6261C7.8736 28.6654 7.78637 28.7234 7.71302 28.7968C7.63967 28.8701 7.58166 28.9573 7.54237 29.0534C7.50309 29.1494 7.48333 29.2522 7.48423 29.356C7.48513 29.4597 7.50668 29.5622 7.54763 29.6575C7.58857 29.7529 7.64809 29.8391 7.7227 29.9111L10.2563 32.4447H8.82739C8.62019 32.4447 8.42148 32.527 8.27497 32.6735C8.12845 32.8201 8.04614 33.0188 8.04614 33.226C8.04614 33.4332 8.12845 33.6319 8.27497 33.7784C8.42148 33.9249 8.62019 34.0072 8.82739 34.0072H11.8188L15.2282 37.4174H12.6915C12.4843 37.4174 12.2855 37.4997 12.139 37.6462C11.9925 37.7927 11.9102 37.9914 11.9102 38.1986C11.9102 38.4058 11.9925 38.6045 12.139 38.7511C12.2855 38.8976 12.4843 38.9799 12.6915 38.9799H16.7875L19.6446 41.8361H16.0055C15.7983 41.8361 15.5996 41.9184 15.4531 42.065C15.3066 42.2115 15.2243 42.4102 15.2243 42.6174C15.2243 42.8246 15.3066 43.0233 15.4531 43.1698C15.5996 43.3163 15.7983 43.3986 16.0055 43.3986H21.2071L23.2118 45.4041C23.1977 45.7275 23.1883 46.0393 23.1836 46.3307C19.5586 46.2596 12.2704 45.5104 7.71958 40.9604C2.22817 35.4674 2.25864 26.0291 2.37817 23.4604C4.9477 23.3424 14.3727 23.3041 19.8727 28.8025C22.2138 31.2983 23.8045 34.4031 24.4625 37.7611C23.9181 39.5833 23.55 41.4537 23.3633 43.3463ZM42.279 43.0533C37.3829 47.9494 29.3657 48.4549 25.8586 48.4221L28.7883 45.4916H33.9899C34.1971 45.4916 34.3958 45.4093 34.5423 45.2628C34.6888 45.1163 34.7711 44.9176 34.7711 44.7104C34.7711 44.5032 34.6888 44.3044 34.5423 44.1579C34.3958 44.0114 34.1971 43.9291 33.9899 43.9291H30.354L33.2118 41.0721H37.3071C37.5143 41.0721 37.713 40.9898 37.8595 40.8432C38.006 40.6967 38.0883 40.498 38.0883 40.2908C38.0883 40.0836 38.006 39.8849 37.8595 39.7384C37.713 39.5919 37.5143 39.5096 37.3071 39.5096H34.7743L38.1829 36.101H41.1711C41.3783 36.101 41.5771 36.0187 41.7236 35.8722C41.8701 35.7256 41.9524 35.5269 41.9524 35.3197C41.9524 35.1125 41.8701 34.9138 41.7236 34.7673C41.5771 34.6208 41.3783 34.5385 41.1711 34.5385H39.7454L42.279 32.0049C42.4254 31.858 42.5076 31.6589 42.5073 31.4514C42.507 31.244 42.4243 31.0451 42.2774 30.8986C42.1305 30.7521 41.9314 30.67 41.7239 30.6703C41.5165 30.6706 41.3176 30.7533 41.1711 30.9002L38.6407 33.4377V32.0049C38.6407 31.7977 38.5584 31.599 38.4118 31.4525C38.2653 31.3059 38.0666 31.2236 37.8594 31.2236C37.6522 31.2236 37.4535 31.3059 37.307 31.4525C37.1605 31.599 37.0782 31.7977 37.0782 32.0049V35.0002L33.6711 38.4057V35.8721C33.6711 35.6649 33.5888 35.4662 33.4423 35.3196C33.2958 35.1731 33.0971 35.0908 32.8899 35.0908C32.6827 35.0908 32.484 35.1731 32.3375 35.3196C32.191 35.4662 32.1086 35.6649 32.1086 35.8721V39.9682L29.2493 42.8244V39.1861C29.2493 38.9789 29.167 38.7802 29.0204 38.6337C28.8739 38.4872 28.6752 38.4049 28.468 38.4049C28.2608 38.4049 28.0621 38.4872 27.9156 38.6337C27.7691 38.7802 27.6868 38.9789 27.6868 39.1861V44.3869L24.7555 47.3189C24.7204 43.8182 25.2243 35.8041 30.1258 30.9002C35.618 25.408 45.0563 25.44 47.6211 25.5588C47.7422 28.1252 47.779 37.5525 42.279 43.0533Z" fill="#FF9C00"/>
</g>
<defs>
<clipPath id="clip0_24_296">
<rect width="50" height="50" fill="white"/>
</clipPath>
</defs>
</svg>
