<svg width="50" height="50" viewBox="0 0 50 50" fill="none" xmlns="http://www.w3.org/2000/svg">
<g clip-path="url(#clip0_24_293)">
<path d="M43.3595 37.4998C42.0646 37.5001 40.8066 37.9319 39.7846 38.7272L32.3571 31.9814C34.158 30.0964 35.161 27.5884 35.1564 24.9813C35.1518 22.3742 34.14 19.8698 32.3324 17.9911L36.687 13.6368C37.8728 14.5422 39.3584 14.9631 40.8428 14.8142C42.3273 14.6653 43.6997 13.9578 44.6821 12.8349C45.6644 11.712 46.1833 10.2577 46.1335 8.76664C46.0838 7.27553 45.4691 5.85908 44.4141 4.80417C43.3591 3.74926 41.9426 3.13477 40.4515 3.08516C38.9604 3.03554 37.5062 3.55452 36.3834 4.53696C35.2606 5.51941 34.5532 6.89188 34.4044 8.37637C34.2557 9.86087 34.6767 11.3464 35.5822 12.5321L31.1659 16.9481C29.5656 15.7107 27.6297 14.9837 25.6104 14.8619C23.5911 14.74 21.5818 15.229 19.8443 16.2651L16.1321 10.8898C17.1985 9.8713 17.8382 8.48573 17.9217 7.01346C18.0052 5.5412 17.5264 4.09217 16.582 2.95958C15.6377 1.82699 14.2983 1.09542 12.835 0.912902C11.3718 0.730382 9.89376 1.11054 8.70013 1.97645C7.5065 2.84236 6.68637 4.12937 6.4057 5.57704C6.12502 7.02472 6.40475 8.52497 7.18829 9.77421C7.97183 11.0235 9.20066 11.9284 10.6261 12.306C12.0516 12.6835 13.5673 12.5055 14.8665 11.8079L18.5588 17.1543C16.8051 18.5858 15.5829 20.5648 15.0882 22.7739C14.5934 24.983 14.8548 27.2942 15.8303 29.337L11.2574 31.9511C10.3481 30.7965 9.03415 30.0304 7.58144 29.8077C6.12874 29.585 4.64569 29.9225 3.43232 30.7517C2.21895 31.581 1.36584 32.8402 1.04558 34.2745C0.725316 35.7089 0.961811 37.2113 1.70722 38.4779C2.45263 39.7445 3.6513 40.6807 5.06074 41.0971C6.47019 41.5135 7.98518 41.3791 9.29924 40.7209C10.6133 40.0627 11.6283 38.93 12.139 37.5519C12.6496 36.1738 12.6178 34.6532 12.0499 33.2977L16.5982 30.6976C16.9147 31.1585 17.2686 31.5926 17.6561 31.9956V32.0311H17.6884C19.4159 33.8398 21.7529 34.9434 24.2472 35.1284C26.7415 35.3134 29.2158 34.5667 31.1913 33.0326L38.6861 39.8396C37.8947 40.8943 37.4827 42.1854 37.5169 43.5036C37.5511 44.8218 38.0295 46.0899 38.8746 47.1021C39.7196 48.1144 40.8818 48.8116 42.1727 49.0807C43.4636 49.3498 44.8076 49.175 45.9867 48.5846C47.1658 47.9943 48.111 47.0231 48.6691 45.8283C49.2271 44.6335 49.3653 43.2853 49.0612 42.0022C48.757 40.7191 48.0285 39.5763 46.9936 38.7591C45.9587 37.9419 44.6782 37.4982 43.3595 37.4998ZM42.1876 12.8067C41.5838 13.1184 40.9141 13.2811 40.2345 13.2811C39.555 13.2811 38.8853 13.1184 38.2814 12.8067V11.7186C38.2816 11.5114 38.364 11.3128 38.5105 11.1664C38.6569 11.0199 38.8555 10.9375 39.0626 10.9373H41.4064C41.6135 10.9375 41.8121 11.0199 41.9586 11.1664C42.1051 11.3128 42.1874 11.5114 42.1876 11.7186V12.8067ZM39.4533 8.59357C39.4533 8.43905 39.4991 8.28801 39.5849 8.15953C39.6708 8.03105 39.7928 7.93092 39.9356 7.87179C40.0783 7.81266 40.2354 7.79719 40.3869 7.82733C40.5385 7.85748 40.6777 7.93188 40.787 8.04114C40.8962 8.1504 40.9706 8.28961 41.0008 8.44115C41.0309 8.5927 41.0154 8.74979 40.9563 8.89254C40.8972 9.0353 40.797 9.15731 40.6686 9.24315C40.5401 9.329 40.389 9.37482 40.2345 9.37482C40.0274 9.37461 39.8288 9.29224 39.6823 9.14577C39.5359 8.9993 39.4535 8.80071 39.4533 8.59357ZM40.2345 4.68732C41.0242 4.68599 41.799 4.90268 42.4734 5.31352C43.1479 5.72437 43.6958 6.31341 44.0568 7.01576C44.4179 7.71811 44.578 8.50649 44.5197 9.29405C44.4613 10.0816 44.1866 10.8378 43.726 11.4792C43.6846 11.0697 43.536 10.6784 43.2951 10.3447C43.0541 10.011 42.7294 9.74679 42.3537 9.57873C42.5001 9.27084 42.5768 8.93447 42.5783 8.59357C42.5783 7.97197 42.3313 7.37583 41.8918 6.93629C41.4523 6.49675 40.8561 6.24982 40.2345 6.24982C39.6129 6.24982 39.0168 6.49675 38.5772 6.93629C38.1377 7.37583 37.8908 7.97197 37.8908 8.59357C37.8923 8.93447 37.969 9.27084 38.1153 9.57873C37.7396 9.74678 37.4149 10.011 37.174 10.3447C36.933 10.6783 36.7844 11.0697 36.7431 11.4792C36.2824 10.8377 36.0078 10.0816 35.9494 9.29402C35.891 8.50647 36.0512 7.71809 36.4122 7.01575C36.7733 6.31341 37.3212 5.72437 37.9956 5.31353C38.6701 4.90269 39.4448 4.68599 40.2345 4.68732ZM14.0626 10.4629C13.4588 10.7747 12.7891 10.9373 12.1095 10.9373C11.43 10.9373 10.7603 10.7747 10.1564 10.4629V9.37482C10.1566 9.16768 10.239 8.96909 10.3855 8.82262C10.5319 8.67615 10.7305 8.59378 10.9376 8.59357H13.2814C13.4885 8.59378 13.6871 8.67615 13.8336 8.82262C13.9801 8.96909 14.0624 9.16768 14.0626 9.37482V10.4629ZM11.3283 6.24982C11.3283 6.0953 11.3741 5.94426 11.4599 5.81578C11.5458 5.6873 11.6678 5.58717 11.8106 5.52804C11.9533 5.46891 12.1104 5.45344 12.2619 5.48358C12.4135 5.51373 12.5527 5.58813 12.662 5.69739C12.7712 5.80665 12.8456 5.94586 12.8758 6.0974C12.9059 6.24895 12.8904 6.40604 12.8313 6.54879C12.7722 6.69155 12.672 6.81356 12.5436 6.8994C12.4151 6.98525 12.264 7.03107 12.1095 7.03107C11.9024 7.03086 11.7038 6.94849 11.5573 6.80202C11.4109 6.65555 11.3285 6.45696 11.3283 6.24982ZM14.2287 7.23498C14.3751 6.92709 14.4518 6.59072 14.4533 6.24982C14.4533 5.62822 14.2063 5.03208 13.7668 4.59254C13.3273 4.153 12.7311 3.90607 12.1095 3.90607C11.4879 3.90607 10.8918 4.153 10.4522 4.59254C10.0127 5.03208 9.76577 5.62822 9.76577 6.24982C9.76729 6.59072 9.84396 6.92709 9.99031 7.23498C9.61462 7.40303 9.28991 7.66723 9.04897 8.0009C8.80803 8.33458 8.6594 8.72592 8.61807 9.13541C8.15746 8.4933 7.88284 7.7366 7.82441 6.94853C7.76598 6.16046 7.92601 5.37154 8.2869 4.66852C8.64778 3.96551 9.19555 3.37563 9.86995 2.96375C10.5444 2.55188 11.3193 2.33396 12.1095 2.33396C12.8998 2.33396 13.6747 2.55188 14.3491 2.96375C15.0235 3.37563 15.5713 3.96551 15.9322 4.66852C16.293 5.37154 16.4531 6.16046 16.3946 6.94853C16.3362 7.7366 16.0616 8.4933 15.601 9.13541C15.5596 8.72592 15.411 8.33459 15.1701 8.00091C14.9291 7.66724 14.6044 7.40304 14.2287 7.23498ZM8.5939 39.3692C7.99005 39.6809 7.32035 39.8436 6.64077 39.8436C5.9612 39.8436 5.2915 39.6809 4.68765 39.3692V38.2811C4.68786 38.0739 4.77023 37.8753 4.9167 37.7289C5.06317 37.5824 5.26176 37.5 5.4689 37.4998H7.81265C8.01979 37.5 8.21838 37.5824 8.36485 37.7289C8.51132 37.8753 8.59369 38.0739 8.5939 38.2811V39.3692ZM5.85952 35.1561C5.85952 35.0016 5.90534 34.8505 5.99119 34.722C6.07703 34.5936 6.19905 34.4934 6.3418 34.4343C6.48456 34.3752 6.64164 34.3597 6.79319 34.3898C6.94474 34.42 7.08394 34.4944 7.1932 34.6036C7.30246 34.7129 7.37687 34.8521 7.40701 35.0037C7.43716 35.1552 7.42169 35.3123 7.36256 35.455C7.30342 35.5978 7.20329 35.7198 7.07481 35.8057C6.94634 35.8915 6.79529 35.9373 6.64077 35.9373C6.43364 35.9371 6.23504 35.8547 6.08858 35.7083C5.94211 35.5618 5.85973 35.3632 5.85952 35.1561ZM10.1322 38.0417C10.0909 37.6322 9.94225 37.2409 9.70131 36.9072C9.46038 36.5735 9.13568 36.3093 8.75999 36.1413C8.90635 35.8334 8.98301 35.497 8.98452 35.1561C8.98452 34.5345 8.73759 33.9383 8.29806 33.4988C7.85852 33.0593 7.26238 32.8123 6.64077 32.8123C6.01917 32.8123 5.42303 33.0593 4.98349 33.4988C4.54395 33.9383 4.29702 34.5345 4.29702 35.1561C4.29854 35.497 4.37521 35.8333 4.52156 36.1412C4.14586 36.3093 3.82115 36.5735 3.58021 36.9072C3.33927 37.2409 3.19064 37.6322 3.14932 38.0417C2.68871 37.3996 2.41409 36.6429 2.35566 35.8548C2.29723 35.0668 2.45726 34.2778 2.81815 33.5748C3.17903 32.8718 3.7268 32.2819 4.4012 31.87C5.07561 31.4582 5.85054 31.2402 6.64077 31.2402C7.43101 31.2402 8.20594 31.4582 8.88034 31.87C9.55475 32.2819 10.1025 32.8718 10.4634 33.5748C10.8243 34.2778 10.9843 35.0668 10.9259 35.8548C10.8675 36.6429 10.5928 37.3996 10.1322 38.0417ZM24.2189 33.554C22.3547 33.383 20.598 32.605 19.2186 31.3394V29.3749C19.2186 28.5578 19.3605 27.1872 20.3126 27.1872H23.1248C23.4149 27.1875 23.693 27.3029 23.8981 27.508C24.1032 27.7131 24.2186 27.9912 24.2189 28.2812V33.554ZM20.6255 23.8279C20.6255 23.5962 20.6942 23.3696 20.8229 23.1769C20.9517 22.9842 21.1347 22.834 21.3489 22.7453C21.563 22.6566 21.7986 22.6334 22.026 22.6786C22.2533 22.7238 22.4621 22.8354 22.626 22.9993C22.7899 23.1632 22.9015 23.372 22.9467 23.5993C22.9919 23.8266 22.9687 24.0623 22.88 24.2764C22.7913 24.4905 22.6411 24.6736 22.4484 24.8023C22.2557 24.9311 22.0291 24.9998 21.7973 24.9998C21.4866 24.9995 21.1888 24.8759 20.9691 24.6562C20.7494 24.4365 20.6258 24.1386 20.6255 23.8279ZM23.7692 25.7128C24.1666 25.3061 24.4242 24.7835 24.5047 24.2206C24.5853 23.6577 24.4846 23.0838 24.2172 22.582C24.7734 22.7851 25.3835 22.785 25.9397 22.5817C25.6756 23.0763 25.574 23.6413 25.649 24.1969C25.7241 24.7524 25.9721 25.2703 26.358 25.677C25.8437 25.7791 25.3712 26.0313 25.0001 26.4017C24.6595 26.0652 24.2342 25.8272 23.7692 25.7128ZM23.9061 19.9999C23.9061 19.7681 23.9748 19.5416 24.1036 19.3488C24.2324 19.1561 24.4154 19.0059 24.6295 18.9172C24.8437 18.8285 25.0793 18.8053 25.3066 18.8505C25.5339 18.8958 25.7427 19.0074 25.9066 19.1713C26.0705 19.3351 26.1821 19.544 26.2273 19.7713C26.2726 19.9986 26.2493 20.2342 26.1606 20.4484C26.072 20.6625 25.9218 20.8455 25.729 20.9743C25.5363 21.103 25.3098 21.1718 25.078 21.1718C24.7673 21.1714 24.4694 21.0479 24.2497 20.8282C24.03 20.6085 23.9064 20.3106 23.9061 19.9999ZM30.7817 31.3394C29.4023 32.605 27.6456 33.383 25.7814 33.554V28.2812C25.7817 27.9912 25.8971 27.7131 26.1022 27.508C26.3073 27.3029 26.5854 27.1875 26.8755 27.1872H29.6876C29.9777 27.1875 30.2558 27.3029 30.4609 27.508C30.666 27.7131 30.7814 27.9912 30.7817 28.2812L30.7817 31.3394ZM27.1875 23.8279C27.1875 23.5962 27.2562 23.3696 27.385 23.1769C27.5138 22.9842 27.6968 22.834 27.9109 22.7453C28.125 22.6566 28.3607 22.6334 28.588 22.6786C28.8153 22.7238 29.0241 22.8354 29.188 22.9993C29.3519 23.1632 29.4635 23.372 29.5087 23.5993C29.5539 23.8266 29.5307 24.0623 29.442 24.2764C29.3533 24.4905 29.2031 24.6736 29.0104 24.8023C28.8177 24.9311 28.5911 24.9998 28.3594 24.9998C28.0487 24.9995 27.7508 24.8759 27.5311 24.6562C27.3114 24.4365 27.1878 24.1386 27.1875 23.8279ZM30.3314 25.7126C30.7615 25.2754 31.0309 24.7054 31.0957 24.0956C31.1605 23.4857 31.017 22.8719 30.6884 22.354C30.3599 21.8361 29.8657 21.4447 29.2863 21.2435C28.7069 21.0424 28.0765 21.0433 27.4977 21.2461C27.7014 20.8621 27.8094 20.4346 27.8124 19.9999C27.8124 19.2747 27.5243 18.5792 27.0115 18.0664C26.4987 17.5536 25.8032 17.2655 25.078 17.2655C24.3528 17.2655 23.6573 17.5536 23.1445 18.0664C22.6317 18.5792 22.3436 19.2747 22.3436 19.9999C22.3466 20.4345 22.4545 20.8619 22.6581 21.2458C22.3814 21.1486 22.0906 21.0972 21.7973 21.0936C21.2651 21.0917 20.744 21.2457 20.2984 21.5365C19.8527 21.8274 19.502 22.2425 19.2895 22.7304C19.077 23.2183 19.0121 23.7578 19.1027 24.2822C19.1934 24.8067 19.4356 25.293 19.7995 25.6814C18.96 25.8606 17.6561 26.587 17.6561 29.3749V29.4397C16.8642 28.1365 16.4333 26.6462 16.4076 25.1215C16.3819 23.5968 16.7624 22.0928 17.51 20.7637C18.2575 19.4347 19.3453 18.3284 20.6616 17.5586C21.9778 16.7888 23.4753 16.383 25.0001 16.383C26.525 16.383 28.0225 16.7888 29.3387 17.5586C30.655 18.3284 31.7428 19.4347 32.4903 20.7637C33.2379 22.0928 33.6184 23.5968 33.5927 25.1215C33.567 26.6462 33.1361 28.1365 32.3442 29.4397V28.2812C32.3425 27.6901 32.1436 27.1164 31.779 26.6512C31.4144 26.1859 30.905 25.8556 30.3314 25.7126ZM45.3126 47.1817C44.7088 47.4934 44.0391 47.6561 43.3595 47.6561C42.68 47.6561 42.0103 47.4934 41.4064 47.1817V46.0936C41.4066 45.8864 41.489 45.6878 41.6355 45.5414C41.7819 45.3949 41.9805 45.3125 42.1876 45.3123H44.5314C44.7385 45.3125 44.9371 45.3949 45.0836 45.5414C45.2301 45.6878 45.3124 45.8864 45.3126 46.0936V47.1817ZM42.5783 42.9686C42.5783 42.8141 42.6241 42.663 42.7099 42.5345C42.7958 42.4061 42.9178 42.3059 43.0606 42.2468C43.2033 42.1877 43.3604 42.1722 43.5119 42.2023C43.6635 42.2325 43.8027 42.3069 43.912 42.4161C44.0212 42.5254 44.0956 42.6646 44.1258 42.8162C44.1559 42.9677 44.1404 43.1248 44.0813 43.2675C44.0222 43.4103 43.922 43.5323 43.7936 43.6182C43.6651 43.704 43.514 43.7498 43.3595 43.7498C43.1524 43.7496 42.9538 43.6672 42.8073 43.5208C42.6609 43.3743 42.5785 43.1757 42.5783 42.9686ZM46.851 45.8542C46.8096 45.4447 46.661 45.0534 46.4201 44.7197C46.1791 44.386 45.8544 44.1218 45.4787 43.9538C45.6251 43.6459 45.7018 43.3095 45.7033 42.9686C45.7033 42.347 45.4563 41.7508 45.0168 41.3113C44.5773 40.8718 43.9811 40.6248 43.3595 40.6248C42.7379 40.6248 42.1418 40.8718 41.7022 41.3113C41.2627 41.7508 41.0158 42.347 41.0158 42.9686C41.0173 43.3095 41.094 43.6458 41.2403 43.9537C40.8646 44.1218 40.5399 44.386 40.299 44.7197C40.058 45.0533 39.9094 45.4447 39.8681 45.8542C39.4075 45.212 39.1328 44.4554 39.0744 43.6673C39.016 42.8792 39.176 42.0903 39.5369 41.3873C39.8978 40.6843 40.4455 40.0944 41.12 39.6825C41.7944 39.2706 42.5693 39.0527 43.3595 39.0527C44.1498 39.0527 44.9247 39.2706 45.5991 39.6825C46.2735 40.0944 46.8213 40.6843 47.1822 41.3873C47.543 42.0903 47.7031 42.8792 47.6446 43.6673C47.5862 44.4554 47.3116 45.2121 46.851 45.8542Z" fill="#FF9C00"/>
<path d="M25.7813 42.1875C25.7813 41.5694 25.598 40.9652 25.2546 40.4513C24.9112 39.9374 24.4232 39.5369 23.8521 39.3004C23.2811 39.0639 22.6528 39.002 22.0466 39.1225C21.4404 39.2431 20.8836 39.5408 20.4465 39.9778C20.0095 40.4148 19.7119 40.9717 19.5913 41.5778C19.4707 42.184 19.5326 42.8124 19.7691 43.3834C20.0057 43.9544 20.4062 44.4425 20.9201 44.7858C21.434 45.1292 22.0382 45.3125 22.6563 45.3125C23.4848 45.3116 24.2791 44.9821 24.865 44.3962C25.4508 43.8104 25.7804 43.016 25.7813 42.1875ZM21.0938 42.1875C21.0938 41.8785 21.1854 41.5764 21.3571 41.3194C21.5288 41.0625 21.7728 40.8622 22.0583 40.7439C22.3438 40.6257 22.658 40.5947 22.9611 40.655C23.2642 40.7153 23.5426 40.8641 23.7611 41.0826C23.9796 41.3012 24.1284 41.5796 24.1887 41.8827C24.249 42.1858 24.2181 42.4999 24.0998 42.7854C23.9816 43.071 23.7813 43.315 23.5243 43.4867C23.2674 43.6584 22.9653 43.75 22.6563 43.75C22.242 43.7495 21.8448 43.5848 21.5519 43.2918C21.259 42.9989 21.0942 42.6018 21.0938 42.1875Z" fill="#FF9C00"/>
<path d="M5.85938 21.0938C6.40018 21.0938 6.92885 20.9334 7.37851 20.6329C7.82818 20.3325 8.17865 19.9054 8.38561 19.4058C8.59257 18.9061 8.64672 18.3563 8.54121 17.8259C8.4357 17.2955 8.17528 16.8083 7.79287 16.4259C7.41046 16.0435 6.92324 15.783 6.39283 15.6775C5.86241 15.572 5.31262 15.6262 4.81297 15.8331C4.31333 16.0401 3.88628 16.3906 3.58583 16.8402C3.28537 17.2899 3.125 17.8186 3.125 18.3594C3.12588 19.0843 3.41424 19.7793 3.92685 20.2919C4.43945 20.8045 5.13444 21.0929 5.85938 21.0938ZM5.85938 17.1875C6.09115 17.1875 6.31772 17.2562 6.51043 17.385C6.70315 17.5138 6.85335 17.6968 6.94205 17.9109C7.03074 18.1251 7.05395 18.3607 7.00873 18.588C6.96352 18.8153 6.85191 19.0241 6.68802 19.188C6.52413 19.3519 6.31532 19.4635 6.088 19.5087C5.86067 19.554 5.62505 19.5307 5.41092 19.442C5.19679 19.3534 5.01376 19.2031 4.885 19.0104C4.75623 18.8177 4.6875 18.5912 4.6875 18.3594C4.68784 18.0487 4.81141 17.7508 5.03111 17.5311C5.2508 17.3114 5.54868 17.1878 5.85938 17.1875Z" fill="#FF9C00"/>
<path d="M37.5 24.6094C37.5 25.1502 37.6604 25.6788 37.9608 26.1285C38.2613 26.5782 38.6883 26.9286 39.188 27.1356C39.6876 27.3426 40.2374 27.3967 40.7678 27.2912C41.2982 27.1857 41.7855 26.9253 42.1679 26.5429C42.5503 26.1605 42.8107 25.6732 42.9162 25.1428C43.0217 24.6124 42.9676 24.0626 42.7606 23.563C42.5536 23.0633 42.2032 22.6363 41.7535 22.3358C41.3038 22.0354 40.7752 21.875 40.2344 21.875C39.5094 21.8759 38.8145 22.1642 38.3018 22.6768C37.7892 23.1895 37.5009 23.8844 37.5 24.6094ZM41.4062 24.6094C41.4062 24.8411 41.3375 25.0677 41.2088 25.2604C41.08 25.4531 40.897 25.6033 40.6828 25.692C40.4687 25.7807 40.2331 25.8039 40.0058 25.7587C39.7784 25.7135 39.5696 25.6019 39.4057 25.438C39.2418 25.2741 39.1302 25.0653 39.085 24.838C39.0398 24.6107 39.063 24.3751 39.1517 24.1609C39.2404 23.9468 39.3906 23.7638 39.5833 23.635C39.776 23.5062 40.0026 23.4375 40.2344 23.4375C40.5451 23.4378 40.8429 23.5614 41.0626 23.7811C41.2823 24.0008 41.4059 24.2987 41.4062 24.6094Z" fill="#FF9C00"/>
<path d="M22.6562 9.375C22.6562 9.99307 22.8395 10.5973 23.1829 11.1112C23.5263 11.6251 24.0143 12.0256 24.5854 12.2621C25.1564 12.4986 25.7847 12.5605 26.3909 12.44C26.9971 12.3194 27.5539 12.0217 27.991 11.5847C28.428 11.1477 28.7256 10.5908 28.8462 9.98466C28.9668 9.37847 28.9049 8.75013 28.6684 8.17911C28.4318 7.60809 28.0313 7.12004 27.5174 6.77666C27.0035 6.43328 26.3993 6.25 25.7812 6.25C24.9527 6.25088 24.1584 6.58041 23.5725 7.16627C22.9867 7.75213 22.6571 8.54647 22.6562 9.375ZM27.3438 9.375C27.3438 9.68403 27.2521 9.98613 27.0804 10.2431C26.9087 10.5 26.6647 10.7003 26.3792 10.8186C26.0937 10.9368 25.7795 10.9678 25.4764 10.9075C25.1733 10.8472 24.8949 10.6984 24.6764 10.4799C24.4579 10.2613 24.3091 9.98292 24.2488 9.67983C24.1885 9.37673 24.2194 9.06257 24.3377 8.77706C24.456 8.49155 24.6562 8.24752 24.9132 8.07583C25.1701 7.90414 25.4722 7.8125 25.7812 7.8125C26.1955 7.81297 26.5927 7.97775 26.8856 8.27067C27.1785 8.56359 27.3433 8.96074 27.3438 9.375Z" fill="#FF9C00"/>
</g>
<defs>
<clipPath id="clip0_24_293">
<rect width="50" height="50" fill="white"/>
</clipPath>
</defs>
</svg>
