<svg width="36" height="36" viewBox="0 0 36 36" fill="none" xmlns="http://www.w3.org/2000/svg">
<path d="M30.728 5.2721C27.3281 1.87235 22.808 0 18 0C13.192 0 8.67185 1.87235 5.27203 5.2721C1.87221 8.67185 0 13.192 0 18C0 22.808 1.87228 27.3281 5.27203 30.7279C8.67178 34.1276 13.192 36 18 36C22.808 36 27.3281 34.1276 30.728 30.7279C34.1276 27.3281 36 22.808 36 18C36 13.192 34.1276 8.67185 30.728 5.2721ZM29.9822 29.9822C26.7816 33.1827 22.5263 34.9453 18 34.9453C13.4737 34.9453 9.21839 33.1827 6.01784 29.9822C2.81728 26.7816 1.05469 22.5263 1.05469 18C1.05469 13.4737 2.81728 9.21839 6.01784 6.01784C9.21839 2.81728 13.4737 1.05469 18 1.05469C22.5263 1.05469 26.7816 2.81728 29.9822 6.01784C33.1827 9.21839 34.9453 13.4737 34.9453 18C34.9453 22.5263 33.1827 26.7816 29.9822 29.9822Z" fill="white"/>
<path d="M29.2446 6.75356C26.2406 3.7496 22.2466 2.09521 17.9984 2.09521C13.7501 2.09521 9.75605 3.7496 6.75209 6.75356C3.74813 9.75759 2.09375 13.7516 2.09375 17.9998C2.09375 22.2481 3.74813 26.2421 6.75209 29.2461C9.75605 32.2501 13.7501 33.9044 17.9984 33.9044C22.2466 33.9044 26.2406 32.2501 29.2446 29.2461C32.2486 26.2421 33.903 22.2481 33.903 17.9998C33.903 13.7516 32.2486 9.75759 29.2446 6.75356ZM17.9984 32.8498C9.81005 32.8498 3.14844 26.1881 3.14844 17.9998C3.14844 9.81152 9.81005 3.1499 17.9984 3.1499C26.1867 3.1499 32.8483 9.81159 32.8483 17.9998C32.8483 26.1881 26.1867 32.8498 17.9984 32.8498Z" fill="white"/>
<path d="M22.0071 23.2029C21.0082 23.1366 19.2069 23.1894 18.0006 24.2168C16.7944 23.1894 14.9933 23.1367 13.9941 23.2029C13.333 23.2468 12.8015 23.7783 12.7576 24.4394C12.6877 25.4931 12.7495 27.4398 13.9485 28.6389C14.9516 29.642 16.4778 29.8492 17.5668 29.8491C17.7337 29.8491 18.3404 29.8498 18.4598 29.8498C20.4168 29.8498 21.49 29.2015 22.0526 28.6389C23.2517 27.4398 23.3134 25.4931 23.2435 24.4393C23.1998 23.7783 22.6682 23.2468 22.0071 23.2029ZM14.6944 27.8931C14.306 27.5048 13.6748 26.5488 13.81 24.5092C13.819 24.3734 13.9282 24.2643 14.064 24.2553C14.256 24.2425 14.4382 24.2365 14.6114 24.2365C16.2784 24.2365 17.0961 24.7877 17.4479 25.1396C17.8363 25.5279 18.4675 26.4839 18.3323 28.5234C18.3233 28.6592 18.2141 28.7684 18.0782 28.7774C16.0387 28.9128 15.0827 28.2815 14.6944 27.8931ZM21.307 27.8931C20.7965 28.4036 20.0556 28.6352 19.3673 28.7321C19.3753 28.6865 19.3815 28.6404 19.3846 28.5932C19.4433 27.7078 19.4089 26.1919 18.685 25.0189C19.1404 24.6344 20.0984 24.133 21.9373 24.2553C22.0731 24.2643 22.1823 24.3734 22.1913 24.5092C22.3266 26.5488 21.6953 27.5048 21.307 27.8931Z" fill="white"/>
<path d="M26.4768 17.4319C26.475 17.4271 26.4731 17.4223 26.4711 17.4175C26.3776 17.1899 26.1582 17.043 25.9121 17.043C25.9119 17.043 25.9117 17.043 25.9115 17.043C25.6652 17.0432 25.4458 17.1906 25.3525 17.4186C25.3509 17.4226 25.3493 17.4266 25.3478 17.4306L24.0698 20.7863C23.9662 21.0584 24.1027 21.3631 24.3749 21.4667C24.6472 21.5704 24.9518 21.4338 25.0554 21.1617L25.164 20.8765H26.6494L26.7564 21.1602C26.8361 21.3714 27.0367 21.5015 27.2499 21.5015C27.3117 21.5015 27.3747 21.4905 27.436 21.4674C27.7084 21.3646 27.846 21.0603 27.7432 20.7878L26.4768 17.4319ZM25.5658 19.8217L25.9102 18.9174L26.2514 19.8217H25.5658Z" fill="white"/>
<path d="M12.9556 21.4672C13.2281 21.3644 13.3657 21.0601 13.2628 20.7877L11.9964 17.4319C11.9946 17.4271 11.9927 17.4223 11.9907 17.4175C11.8972 17.1899 11.6778 17.043 11.4317 17.043C11.4315 17.043 11.4312 17.043 11.431 17.043C11.1847 17.0433 10.9652 17.1908 10.8721 17.4188C10.8705 17.4227 10.869 17.4266 10.8674 17.4305L9.58936 20.7862C9.48572 21.0584 9.62227 21.363 9.89445 21.4667C10.1666 21.5703 10.4713 21.4337 10.5749 21.1616L10.6836 20.8765H12.1689L12.2759 21.1601C12.3557 21.3713 12.5563 21.5014 12.7695 21.5014C12.8314 21.5013 12.8944 21.4904 12.9556 21.4672ZM11.0854 19.8217L11.4298 18.9175L11.771 19.8217H11.0854Z" fill="white"/>
<path d="M8.39503 17.0425C8.1038 17.0453 7.87001 17.2837 7.87282 17.5749L7.88963 19.3166L6.48077 17.2765C6.34964 17.0866 6.11016 17.0041 5.88994 17.0728C5.66958 17.1415 5.51953 17.3454 5.51953 17.5762V20.9734C5.51953 21.2647 5.75564 21.5008 6.04688 21.5008C6.33811 21.5008 6.57422 21.2647 6.57422 20.9734V19.2678L7.91016 21.2024C8.06119 21.4205 8.31452 21.5126 8.55563 21.4373C8.8008 21.3606 8.95929 21.1336 8.95922 20.8536L8.92744 17.5647C8.92462 17.2736 8.68359 17.0387 8.39503 17.0425Z" fill="white"/>
<path d="M29.9506 20.4432C29.7261 20.4445 29.4897 20.4454 29.2891 20.4458V17.5698C29.2891 17.2786 29.053 17.0425 28.7617 17.0425C28.4705 17.0425 28.2344 17.2786 28.2344 17.5698V20.9706C28.2344 21.2275 28.4195 21.447 28.6727 21.4903C28.7103 21.4968 28.7351 21.501 29.1202 21.501C29.3037 21.501 29.569 21.5 29.9565 21.4979C30.2477 21.4963 30.4825 21.2588 30.4809 20.9676C30.4792 20.6764 30.2438 20.441 29.9506 20.4432Z" fill="white"/>
<path d="M17.1055 17.0425C16.8142 17.0425 16.5781 17.2786 16.5781 17.5698V19.9119C16.5781 20.4625 16.8397 20.9088 17.3555 21.2384C17.6273 21.4121 17.9336 21.5003 18.2661 21.5008H18.2687C18.5542 21.5008 18.8224 21.4386 19.0663 21.3158C19.667 21.0133 19.9978 20.5138 19.9978 19.9095V17.5699C19.9978 17.2787 19.7617 17.0426 19.4705 17.0426C19.1793 17.0426 18.9432 17.2787 18.9432 17.5699V19.9095C18.9432 20.0516 18.9014 20.2179 18.5919 20.3738C18.4952 20.4225 18.3895 20.4462 18.2687 20.4462C18.2683 20.4462 18.2679 20.4462 18.2675 20.4462C18.1372 20.446 18.0247 20.4145 17.9233 20.3497C17.6803 20.1945 17.6328 20.0716 17.6328 19.9119V17.5699C17.6328 17.2786 17.3967 17.0425 17.1055 17.0425Z" fill="white"/>
<path d="M13.582 17.0425C13.2908 17.0425 13.0547 17.2786 13.0547 17.5698C13.0547 17.8611 13.2908 18.0972 13.582 18.0972H13.9907V20.9734C13.9907 21.2646 14.2268 21.5007 14.518 21.5007C14.8093 21.5007 15.0454 21.2646 15.0454 20.9734V18.0972H15.4616C15.7529 18.0972 15.989 17.8611 15.989 17.5698C15.989 17.2786 15.7529 17.0425 15.4616 17.0425H13.582Z" fill="white"/>
<path d="M23.6214 18.4548C23.6214 17.6763 22.9655 17.043 22.1595 17.043H21.255C21.2548 17.043 21.2547 17.043 21.2545 17.043C21.2543 17.043 21.2541 17.043 21.2539 17.043C20.9627 17.043 20.7266 17.2791 20.7266 17.5703V20.9739C20.7266 21.2651 20.9627 21.5012 21.2539 21.5012C21.5451 21.5012 21.7812 21.2651 21.7812 20.9739V20.2804L22.6983 21.3223C22.8025 21.4407 22.948 21.5012 23.0943 21.5012C23.2181 21.5012 23.3423 21.4579 23.4425 21.3697C23.6611 21.1773 23.6824 20.8441 23.49 20.6255L22.7253 19.7566C23.2511 19.5426 23.6214 19.0397 23.6214 18.4548ZM22.1595 18.0976C22.3764 18.0976 22.5667 18.2645 22.5667 18.4548C22.5667 18.645 22.3764 18.812 22.1595 18.812C22.0696 18.812 21.9293 18.8125 21.7857 18.8131C21.7851 18.6749 21.7846 18.5406 21.7846 18.4548C21.7846 18.3809 21.7843 18.2429 21.7839 18.0976H22.1595Z" fill="white"/>
<path d="M10.1729 10.7866V14.7783C10.1729 15.0696 10.409 15.3057 10.7003 15.3057C10.9915 15.3057 11.2276 15.0696 11.2276 14.7783V10.2593C11.2276 9.96804 10.9915 9.73193 10.7003 9.73193H9.73438C9.44314 9.73193 9.20703 9.96804 9.20703 10.2593C9.20703 10.5505 9.44314 10.7866 9.73438 10.7866H10.1729Z" fill="white"/>
<path d="M24.4942 14.783L26.2925 10.4981C26.4052 10.2296 26.2789 9.92051 26.0103 9.8078C25.742 9.69516 25.4328 9.82144 25.32 10.09L23.5217 14.3749C23.409 14.6434 23.5353 14.9525 23.8039 15.0652C23.8705 15.0932 23.9397 15.1064 24.0077 15.1064C24.2138 15.1065 24.4095 14.9849 24.4942 14.783Z" fill="white"/>
<path d="M22.5172 12.4683C23.2461 12.4683 23.8391 11.8175 23.8391 11.0176C23.8391 10.2176 23.2461 9.56689 22.5172 9.56689C21.7883 9.56689 21.1953 10.2176 21.1953 11.0176C21.1953 11.8175 21.7883 12.4683 22.5172 12.4683ZM22.5172 10.6216C22.6436 10.6216 22.7844 10.7842 22.7844 11.0176C22.7844 11.2509 22.6436 11.4136 22.5172 11.4136C22.3908 11.4136 22.25 11.2509 22.25 11.0176C22.25 10.7842 22.3908 10.6216 22.5172 10.6216Z" fill="white"/>
<path d="M27.2399 12.4966C26.511 12.4966 25.918 13.1473 25.918 13.9473C25.918 14.7472 26.511 15.398 27.2399 15.398C27.9688 15.398 28.5619 14.7472 28.5619 13.9473C28.5619 13.1473 27.9688 12.4966 27.2399 12.4966ZM27.2399 14.3433C27.1135 14.3433 26.9727 14.1806 26.9727 13.9473C26.9727 13.7139 27.1135 13.5513 27.2399 13.5513C27.3663 13.5513 27.5072 13.7139 27.5072 13.9473C27.5072 14.1806 27.3663 14.3433 27.2399 14.3433Z" fill="white"/>
<path d="M13.7638 15.3978C14.7752 15.3978 15.5979 14.575 15.5979 13.5636V11.4738C15.5979 10.4624 14.7751 9.63965 13.7638 9.63965C12.7525 9.63965 11.9297 10.4624 11.9297 11.4738V13.5636C11.9296 14.575 12.7524 15.3978 13.7638 15.3978ZM12.9843 11.4738C12.9843 11.0439 13.334 10.6943 13.7637 10.6943C14.1935 10.6943 14.5431 11.044 14.5431 11.4738V13.5636C14.5431 13.9935 14.1935 14.3431 13.7637 14.3431C13.334 14.3431 12.9843 13.9934 12.9843 13.5636V11.4738Z" fill="white"/>
<path d="M18.2169 15.3978C19.2283 15.3978 20.051 14.575 20.051 13.5636V11.4738C20.051 10.4624 19.2282 9.63965 18.2169 9.63965C17.2056 9.63965 16.3828 10.4624 16.3828 11.4738V13.5636C16.3827 14.575 17.2055 15.3978 18.2169 15.3978ZM17.4374 11.4738C17.4374 11.0439 17.7871 10.6943 18.2168 10.6943C18.6466 10.6943 18.9963 11.044 18.9963 11.4738V13.5636C18.9963 13.9935 18.6466 14.3431 18.2168 14.3431C17.7871 14.3431 17.4374 13.9934 17.4374 13.5636V11.4738Z" fill="white"/>
</svg>
