<svg width="140" height="63" viewBox="0 0 140 63" fill="none" xmlns="http://www.w3.org/2000/svg">
<g clip-path="url(#clip0_1680_13523)">
<path d="M19.5142 20.7019L24.8119 21.844L26.2733 15.0653L19.3424 15.2853L19.5142 20.7019ZM14.2575 23.3032L9.8994 20.0821L9.87655 20.1129L9.85406 20.1443L14.2575 23.3032ZM12.8484 34.7381L7.93755 37.0298L7.96851 37.0962L8.00125 37.1617L12.8484 34.7381ZM13.2278 35.6052V41.0245H18.6471V35.6052H13.2278ZM8.83815 34.4129L5.24742 38.472L5.32972 38.5448L5.41489 38.6142L8.83815 34.4129ZM9.32585 23.3574L13.9659 26.1574L13.9764 26.1399L13.9869 26.1224L9.32585 23.3574ZM15.3413 18.209L13.0461 13.2997L13.0338 13.3055L13.0214 13.3114L15.3413 18.209ZM29.3775 16.529L28.7053 21.9066L28.7791 21.9158L28.8531 21.9229L29.3775 16.529ZM39.7826 16.2581L44.924 17.9718L48.3168 7.79297L38.1108 11.1031L39.7826 16.2581ZM39.1865 18.4258L44.4229 19.8222L44.4285 19.8011L44.434 19.78L39.1865 18.4258ZM37.6149 21.2439L33.6948 17.5019L33.6905 17.5064L37.6149 21.2439ZM34.6342 22.7613V28.1806H35.1709L35.6971 28.0754L34.6342 22.7613ZM27.0471 21.7316L28.2848 16.4554L22.8891 15.1898L21.7447 20.6125L27.0471 21.7316ZM24.771 32.5161L19.4685 31.397L18.0885 37.9355H24.771V32.5161ZM32.6833 32.5161L37.9802 33.6614L39.3997 27.0968H32.6833V32.5161ZM31.8162 36.5265V41.9458H36.189L37.1131 37.6717L31.8162 36.5265ZM23.9039 36.5265V31.1071H19.5278L18.6061 35.3851L23.9039 36.5265ZM19.5142 56.9032V62.3226H23.8905L24.8121 58.0445L19.5142 56.9032ZM11.7104 56.9032L6.41275 55.7612L4.99832 62.3226H11.7104V56.9032ZM19.3424 15.2853C15.6015 15.4041 12.2231 16.9382 9.8994 20.0821L18.6156 26.5244C18.7477 26.3457 18.8368 26.2932 18.8965 26.2636C18.972 26.2263 19.1967 26.1341 19.6862 26.1186L19.3424 15.2853ZM9.85406 20.1443C7.6088 23.2741 7.04977 27.6448 7.04977 31.92H17.8884C17.8884 30.1165 18.0224 28.7692 18.2225 27.8052C18.3209 27.331 18.4265 26.9932 18.5164 26.765C18.6066 26.5367 18.6668 26.4539 18.661 26.4622L9.85406 20.1443ZM7.04977 31.92C7.04977 33.3049 7.13593 35.3121 7.93755 37.0298L17.7594 32.4463C17.8711 32.6858 17.9182 32.8572 17.9324 32.9126C17.948 32.9736 17.9447 32.977 17.9349 32.9041C17.914 32.749 17.8884 32.4362 17.8884 31.92H7.04977ZM8.00125 37.1617C8.05358 37.2663 8.09376 37.3486 8.12357 37.4111C8.1383 37.4419 8.14933 37.4655 8.15719 37.4825C8.1652 37.5 8.16846 37.5074 8.168 37.5064C8.16789 37.5061 8.16091 37.4902 8.14943 37.4617C8.13889 37.4356 8.11653 37.3793 8.08902 37.3006C8.06496 37.2319 8.01441 37.0825 7.96435 36.8823C7.9386 36.7793 7.90404 36.6275 7.87429 36.4406C7.84646 36.2655 7.80848 35.9721 7.80848 35.6052H18.6471C18.6471 34.9331 18.5197 34.4143 18.4794 34.2535C18.4215 34.0217 18.3591 33.8339 18.3192 33.72C18.2388 33.4902 18.1543 33.2906 18.098 33.162C17.9796 32.8913 17.8367 32.5964 17.6957 32.3144L8.00125 37.1617ZM13.2278 30.1858C12.6026 30.1858 12.246 30.1202 12.0876 30.0772C11.941 30.0374 12.0531 30.0419 12.2614 30.2116L5.41489 38.6142C7.76351 40.5278 10.6801 41.0245 13.2278 41.0245V30.1858ZM12.4289 30.3538C12.5787 30.4864 12.6942 30.6272 12.7767 30.7552C12.8572 30.8801 12.892 30.9703 12.9018 30.9984C12.9108 31.0245 12.8964 30.9913 12.8802 30.8802C12.8641 30.7688 12.8484 30.5951 12.8484 30.3484H2.00977C2.00977 33.0002 2.66711 36.1894 5.24742 38.472L12.4289 30.3538ZM12.8484 30.3484C12.8484 28.7205 13.2363 27.3665 13.9659 26.1574L4.68591 20.5574C2.88647 23.5393 2.00977 26.8459 2.00977 30.3484H12.8484ZM13.9869 26.1224C14.5874 25.11 15.6685 24.0506 17.6614 23.1067L13.0214 13.3114C9.52266 14.9686 6.59344 17.3416 4.66495 20.5925L13.9869 26.1224ZM17.6366 23.1183C19.4777 22.2576 22.1501 21.6774 25.9091 21.6774V10.8387C21.1417 10.8387 16.769 11.5591 13.0461 13.2997L17.6366 23.1183ZM25.9091 21.6774C26.4517 21.6774 27.3553 21.7378 28.7053 21.9066L30.0497 11.1515C28.5094 10.959 27.1007 10.8387 25.9091 10.8387V21.6774ZM28.8531 21.9229C31.4543 22.1758 33.5311 22.3277 34.9052 22.3277V11.489C34.1116 11.489 32.5033 11.3881 29.9019 11.1351L28.8531 21.9229ZM34.9052 22.3277C37.1967 22.3277 39.422 22.0723 41.4546 21.413L38.1108 11.1031C37.4698 11.3109 36.4435 11.489 34.9052 11.489V22.3277ZM34.6414 14.5444C34.4622 15.082 34.2162 15.9978 33.9391 17.0716L44.434 19.78C44.5747 19.2346 44.6889 18.8041 44.7777 18.4808C44.8221 18.3195 44.8576 18.1943 44.885 18.1007C44.9143 18.0009 44.9262 17.9649 44.924 17.9718L34.6414 14.5444ZM33.9501 17.0294C33.8907 17.2524 33.8111 17.3801 33.6948 17.5019L41.5351 24.9858C42.9361 23.5179 43.9043 21.7669 44.4229 19.8222L33.9501 17.0294ZM33.6905 17.5064C33.7316 17.4634 33.772 17.4286 33.8074 17.4026C33.8424 17.3768 33.8652 17.3647 33.8692 17.3627C33.876 17.3593 33.7926 17.4029 33.5715 17.4472L35.6971 28.0754C37.7994 27.655 39.8858 26.7176 41.5393 24.9813L33.6905 17.5064ZM34.6342 17.3419C33.0503 17.3419 30.9568 17.0823 28.2848 16.4554L25.8095 27.0077C28.9904 27.7539 31.955 28.1806 34.6342 28.1806V17.3419ZM21.7447 20.6125L19.4685 31.397L30.0736 33.6352L32.3497 22.8507L21.7447 20.6125ZM24.771 37.9355H32.6833V27.0968H24.771V37.9355ZM27.3864 31.3708L26.5193 35.3812L37.1131 37.6717L37.9802 33.6614L27.3864 31.3708ZM31.8162 31.1071H23.9039V41.9458H31.8162V31.1071ZM18.6061 35.3851L14.2165 55.7619L24.8121 58.0445L29.2018 37.6678L18.6061 35.3851ZM19.5142 51.4839H11.7104V62.3226H19.5142V51.4839ZM17.0081 58.0453L24.8119 21.844L14.2166 19.5599L6.41275 55.7612L17.0081 58.0453ZM35.5005 29.8065V24.3871H31.1097L30.199 28.6826L35.5005 29.8065ZM43.3044 29.8065L48.6084 30.9186L49.978 24.3871H43.3044V29.8065ZM42.5999 33.1665L37.2959 32.0543L33.9463 48.0294L46.1854 37.2301L42.5999 33.1665ZM45.9057 30.6735L43.217 25.9682L43.1797 25.9895L43.1429 26.0113L45.9057 30.6735ZM51.867 30.9987L47.6727 34.4304L47.7184 34.4863L47.7655 34.5409L51.867 30.9987ZM47.3689 37.2852L42.7968 40.1947L42.9541 40.4418L43.1371 40.6706L47.3689 37.2852ZM46.7728 35.6052L52.0869 34.5423L52.0713 34.4642L52.0534 34.3865L46.7728 35.6052ZM43.9005 34.7381L46.5892 39.4434L46.6394 39.4148L46.6888 39.3852L43.9005 34.7381ZM41.8954 36.3097L38.2413 32.3076L36.9519 33.4847L36.5923 35.1932L41.8954 36.3097ZM37.5599 56.9032V62.3226H41.9571L42.863 58.0197L37.5599 56.9032ZM29.756 56.9032L24.4545 55.7793L23.0673 62.3226H29.756V56.9032ZM35.5005 35.2258H43.3044V24.3871H35.5005V35.2258ZM38.0004 28.6943L37.2959 32.0543L47.9039 34.2786L48.6084 30.9186L38.0004 28.6943ZM46.1854 37.2301C47.2608 36.2812 48.0828 35.6828 48.6685 35.3357L43.1429 26.0113C41.7777 26.8204 40.3957 27.8839 39.0143 29.1028L46.1854 37.2301ZM48.5944 35.3789C48.7939 35.2649 48.952 35.2258 49.1573 35.2258V24.3871C47.0503 24.3871 45.0408 24.9261 43.217 25.9682L48.5944 35.3789ZM49.1573 35.2258C49.1114 35.2258 48.8633 35.2163 48.5193 35.0649C48.157 34.9055 47.8655 34.6662 47.6727 34.4304L56.0614 27.567C54.244 25.3458 51.7082 24.3871 49.1573 24.3871V35.2258ZM47.7655 34.5409C47.6873 34.4503 47.5986 34.3113 47.5378 34.1418C47.5097 34.0634 47.4938 33.9958 47.4854 33.9449C47.4771 33.8946 47.4773 33.8683 47.4773 33.871H58.316C58.316 31.5441 57.5643 29.3043 55.9684 27.4565L47.7655 34.5409ZM47.4773 33.871C47.4773 33.7917 47.4926 33.6393 47.5608 33.4558C47.6291 33.2725 47.7165 33.1494 47.7655 33.0927L55.9684 40.177C57.5028 38.4005 58.316 36.2227 58.316 33.871H47.4773ZM47.7655 33.0927C47.9663 32.8602 48.2453 32.6529 48.5564 32.5237C48.8462 32.4035 49.0254 32.4077 48.9947 32.4077V43.2465C51.5028 43.2465 54.0741 42.3705 55.9684 40.177L47.7655 33.0927ZM48.9947 32.4077C48.9972 32.4077 49.0604 32.4077 49.1717 32.4226C49.2821 32.4376 49.4685 32.4712 49.7059 32.5504C50.1928 32.7127 50.9544 33.0918 51.6007 33.8997L43.1371 40.6706C45.0024 43.0021 47.6961 43.2465 48.9947 43.2465V32.4077ZM51.941 34.3756C52.0138 34.4901 52.0618 34.5832 52.0909 34.6446C52.12 34.7063 52.1341 34.7452 52.1376 34.7548C52.1426 34.7691 52.1198 34.7069 52.0869 34.5423L41.4586 36.668C41.6686 37.7181 42.0404 39.0061 42.7968 40.1947L51.941 34.3756ZM52.0534 34.3865C51.9237 33.8245 51.7016 32.9655 51.2949 32.1519L41.6004 36.9991C41.5359 36.87 41.4956 36.7712 41.475 36.7181C41.4536 36.6627 41.4433 36.6302 41.4424 36.6274C41.4412 36.6235 41.4457 36.6376 41.4551 36.673C41.4644 36.7078 41.4769 36.7575 41.4923 36.8238L52.0534 34.3865ZM51.2949 32.1519C50.7827 31.1276 49.9531 30.1962 48.8124 29.574C47.7264 28.9816 46.6575 28.831 45.8515 28.831V39.6697C45.3345 39.6697 44.5096 39.5732 43.6222 39.0893C42.6802 38.5754 42.0041 37.8066 41.6004 36.9991L51.2949 32.1519ZM45.8515 28.831C44.3083 28.831 42.6513 29.1676 41.1123 30.091L46.6888 39.3852C46.2336 39.6582 45.8772 39.6697 45.8515 39.6697V28.831ZM41.2118 30.0327C40.1724 30.6267 39.1481 31.4796 38.2413 32.3076L45.5494 40.3118C45.8947 39.9966 46.1636 39.7694 46.363 39.613C46.5747 39.4471 46.6424 39.4131 46.5892 39.4434L41.2118 30.0327ZM36.5923 35.1932L32.2568 55.7868L42.863 58.0197L47.1985 37.4262L36.5923 35.1932ZM37.5599 51.4839H29.756V62.3226H37.5599V51.4839ZM35.0576 58.0271L40.8021 30.9303L30.199 28.6826L24.4545 55.7793L35.0576 58.0271ZM53.3289 55.6026L49.4325 59.3691L49.4644 59.4022L49.4969 59.4346L53.3289 55.6026ZM52.1909 47.2026L46.8892 46.0795L46.8828 46.1096L46.8767 46.1398L52.1909 47.2026ZM55.876 29.8065V24.3871H51.4845L50.5744 28.6834L55.876 29.8065ZM63.6799 29.8065L68.9817 30.9292L70.367 24.3871H63.6799V29.8065ZM59.778 48.2323L54.4762 47.1096L54.4699 47.1394L54.4638 47.1694L59.778 48.2323ZM63.8425 50.7252L67.9319 54.2813L67.9693 54.2383L68.0057 54.1945L63.8425 50.7252ZM65.5767 47.2026L70.7778 48.7249L70.8357 48.5272L70.8783 48.3257L65.5767 47.2026ZM69.2618 29.8065V24.3871H64.8703L63.9602 28.6834L69.2618 29.8065ZM77.0657 29.8065L82.3675 30.9292L83.7529 24.3871H77.0657V29.8065ZM73.1638 48.2323L78.4001 49.6286L78.4364 49.4926L78.4655 49.355L73.1638 48.2323ZM73.4347 51.5381L69.6027 55.3701L69.8149 55.5824L70.0493 55.7699L73.4347 51.5381ZM77.7702 50.671L73.6917 47.1023L73.6487 47.1515L73.607 47.2016L77.7702 50.671ZM79.5586 47.2026V41.7832H75.5264L74.3678 45.6453L79.5586 47.2026ZM81.8347 47.2026L86.9615 48.959L89.4199 41.7832H81.8347V47.2026ZM76.8489 55.169L79.9678 59.601L79.9757 59.5954L79.9837 59.5898L76.8489 55.169ZM67.2025 55.9277L63.4494 59.8372L63.4877 59.8739L63.5266 59.9099L67.2025 55.9277ZM65.5767 52.08L70.9656 51.5067L69.291 35.7651L60.967 49.2304L65.5767 52.08ZM61.6747 56.1445L59.1507 51.3488L59.1241 51.3628L59.0977 51.3771L61.6747 56.1445ZM57.556 51.809C57.4046 51.809 57.3009 51.7972 57.2371 51.7862C57.1746 51.7754 57.1468 51.7649 57.1441 51.7638C57.1423 51.7631 57.1511 51.7667 57.1632 51.7745C57.1751 51.7824 57.1747 51.7842 57.161 51.7706L49.4969 59.4346C51.7338 61.6716 54.5903 62.6477 57.556 62.6477V51.809ZM57.2254 51.836C57.3499 51.9648 57.3502 52.038 57.3085 51.9082C57.2589 51.7544 57.1767 51.3891 57.1767 50.7252H46.338C46.338 53.6831 47.0506 56.9052 49.4325 59.3691L57.2254 51.836ZM57.1767 50.7252C57.1767 50.3306 57.248 49.5501 57.505 48.2654L46.8767 46.1398C46.5556 47.7454 46.338 49.3132 46.338 50.7252H57.1767ZM57.4925 48.3257L61.1777 30.9295L50.5744 28.6834L46.8892 46.0795L57.4925 48.3257ZM55.876 35.2258H63.6799V24.3871H55.876V35.2258ZM58.3781 28.6837L54.4762 47.1096L65.0797 49.355L68.9817 30.9292L58.3781 28.6837ZM54.4638 47.1694C54.2974 48.0018 54.196 48.8671 54.196 49.7497H65.0347C65.0347 49.6929 65.0418 49.5466 65.0921 49.2951L54.4638 47.1694ZM54.196 49.7497C54.196 50.991 54.3945 52.9028 55.6482 54.6164C57.1328 56.6452 59.326 57.391 61.2412 57.391V46.5523C61.5832 46.5523 62.1404 46.6112 62.7766 46.901C63.4429 47.2046 63.9978 47.6725 64.3954 48.2159C65.1073 49.1888 65.0347 49.9897 65.0347 49.7497H54.196ZM61.2412 57.391C63.9715 57.391 66.2829 56.1777 67.9319 54.2813L59.753 47.1691C59.8071 47.1068 59.9845 46.9279 60.3084 46.7727C60.6439 46.612 60.9797 46.5523 61.2412 46.5523V57.391ZM68.0057 54.1945C69.3448 52.5878 70.2076 50.6733 70.7778 48.7249L60.3755 45.6803C60.0787 46.6944 59.7854 47.1283 59.6792 47.2558L68.0057 54.1945ZM70.8783 48.3257L74.5635 30.9295L63.9602 28.6834L60.275 46.0795L70.8783 48.3257ZM69.2618 35.2258H77.0657V24.3871H69.2618V35.2258ZM71.764 28.6837L67.862 47.1096L78.4655 49.355L82.3675 30.9292L71.764 28.6837ZM67.9274 46.8359C67.6505 47.8742 67.5276 48.9251 67.5276 49.9665H78.3664C78.3664 49.7794 78.388 49.6742 78.4001 49.6286L67.9274 46.8359ZM67.5276 49.9665C67.5276 51.3301 67.8105 53.578 69.6027 55.3701L77.2668 47.706C77.8354 48.2746 78.1154 48.8782 78.2448 49.295C78.3668 49.6882 78.3664 49.9452 78.3664 49.9665H67.5276ZM70.0493 55.7699C71.8505 57.2108 73.9431 57.391 75.1689 57.391V46.5523C75.0773 46.5523 75.1973 46.5416 75.4536 46.6056C75.7113 46.6701 76.2437 46.8451 76.8202 47.3063L70.0493 55.7699ZM75.1689 57.391C77.9877 57.391 80.3157 56.0817 81.9335 54.1404L73.607 47.2016C73.6465 47.1543 73.8183 46.9672 74.1543 46.7992C74.5063 46.6233 74.8711 46.5523 75.1689 46.5523V57.391ZM81.8487 54.2396C83.2498 52.6384 84.1591 50.7276 84.7495 48.7598L74.3678 45.6453C74.091 46.5679 73.808 46.9694 73.6917 47.1023L81.8487 54.2396ZM79.5586 52.6219H81.8347V41.7832H79.5586V52.6219ZM76.7079 45.4462C75.5097 48.9435 74.3279 50.3132 73.7142 50.7483L79.9837 59.5898C83.3442 57.2068 85.4862 53.2655 86.9615 48.959L76.7079 45.4462ZM73.7301 50.7371C72.5053 51.5989 71.6038 51.809 70.9418 51.809V62.6477C74.2541 62.6477 77.2906 61.4849 79.9678 59.601L73.7301 50.7371ZM70.9418 51.809C70.6664 51.809 70.5817 51.7706 70.6222 51.7846C70.6426 51.7918 70.6835 51.8085 70.7358 51.8396C70.7885 51.8709 70.8374 51.9078 70.8783 51.9456L63.5266 59.9099C65.673 61.8911 68.3348 62.6477 70.9418 62.6477V51.809ZM70.9556 52.0183C71.0915 52.1487 71.1274 52.2457 71.1107 52.2062C71.0872 52.1507 71.0119 51.9419 70.9656 51.5067L60.1878 52.6533C60.4544 55.1595 61.3376 57.8098 63.4494 59.8372L70.9556 52.0183ZM60.967 49.2304C60.0092 50.7798 59.3395 51.2495 59.1507 51.3488L64.1988 60.9402C66.7558 59.5944 68.6874 57.3544 70.1864 54.9296L60.967 49.2304ZM59.0977 51.3771C58.4888 51.7062 57.9955 51.809 57.556 51.809V62.6477C59.9347 62.6477 62.1872 62.028 64.2517 60.9119L59.0977 51.3771ZM80.6904 55.6026L76.7938 59.3691L76.8258 59.4022L76.8582 59.4346L80.6904 55.6026ZM79.5523 47.2026L74.2523 46.0709L74.245 46.1053L74.2382 46.1398L79.5523 47.2026ZM82.8039 31.9742L88.1038 33.1058L89.5026 26.5548H82.8039V31.9742ZM81.0155 31.9742L75.7014 30.9114L74.4049 37.3936H81.0155V31.9742ZM81.4491 29.8065V24.3871H77.0062L76.1349 28.7436L81.4491 29.8065ZM83.2375 29.8065V35.2258H87.6053L88.5331 30.9577L83.2375 29.8065ZM84.8633 22.3277L84.1375 16.9572L80.3742 17.4658L79.5676 21.1765L84.8633 22.3277ZM92.8837 21.2439L98.1821 22.3839L99.8051 14.8399L92.1584 15.8733L92.8837 21.2439ZM91.0411 29.8065L85.7432 28.6664L84.3317 35.2258H91.0411V29.8065ZM94.2928 29.8065L99.6073 30.8693L100.903 24.3871H94.2928V29.8065ZM93.8592 31.9742V37.3936H98.3022L99.1738 33.037L93.8592 31.9742ZM90.6076 31.9742V26.5548H86.2226L85.3076 30.8435L90.6076 31.9742ZM87.1394 48.2323L92.3761 49.6286L92.4113 49.4966L92.4393 49.3629L87.1394 48.2323ZM87.4104 51.5381L83.5782 55.3701L83.7905 55.5824L84.0249 55.7699L87.4104 51.5381ZM92.0708 50.671L95.8237 54.5804L95.8644 54.5421L95.9032 54.503L92.0708 50.671ZM94.0218 47.2026V41.7832H89.9197L88.8061 45.7314L94.0218 47.2026ZM96.2979 47.2026L101.425 48.959L103.883 41.7832H96.2979V47.2026ZM91.1495 55.169L94.1193 59.7021L94.1464 59.6844L94.1735 59.6663L91.1495 55.169ZM84.9175 51.809C84.766 51.809 84.6622 51.7972 84.5985 51.7862C84.536 51.7754 84.5082 51.7649 84.5054 51.7638C84.5036 51.7631 84.5124 51.7667 84.5246 51.7745C84.5366 51.7824 84.536 51.7842 84.5224 51.7706L76.8582 59.4346C79.0953 61.6716 81.9517 62.6477 84.9175 62.6477V51.809ZM84.5868 51.836C84.7112 51.9648 84.7116 52.038 84.6698 51.9082C84.6202 51.7544 84.5381 51.3891 84.5381 50.7252H73.6994C73.6994 53.6831 74.412 56.9052 76.7938 59.3691L84.5868 51.836ZM84.5381 50.7252C84.5381 50.3306 84.6095 49.5501 84.8664 48.2654L74.2382 46.1398C73.9171 47.7454 73.6994 49.3132 73.6994 50.7252H84.5381ZM84.8522 48.3342L88.1038 33.1058L77.504 30.8425L74.2523 46.0709L84.8522 48.3342ZM82.8039 26.5548H81.0155V37.3936H82.8039V26.5548ZM86.3296 33.037L86.7632 30.8693L76.1349 28.7436L75.7014 30.9114L86.3296 33.037ZM81.4491 35.2258H83.2375V24.3871H81.4491V35.2258ZM88.5331 30.9577L90.1589 23.479L79.5676 21.1765L77.9417 28.6552L88.5331 30.9577ZM85.589 27.6983L93.6099 26.6145L92.1584 15.8733L84.1375 16.9572L85.589 27.6983ZM87.5858 20.1038L85.7432 28.6664L96.3395 30.9465L98.1821 22.3839L87.5858 20.1038ZM91.0411 35.2258H94.2928V24.3871H91.0411V35.2258ZM88.9788 28.7436L88.5453 30.9114L99.1738 33.037L99.6073 30.8693L88.9788 28.7436ZM93.8592 26.5548H90.6076V37.3936H93.8592V26.5548ZM85.3076 30.8435L81.8393 47.1016L92.4393 49.3629L95.9077 33.1049L85.3076 30.8435ZM81.903 46.8359C81.6261 47.8742 81.5033 48.9251 81.5033 49.9665H92.3418C92.3418 49.7794 92.3635 49.6741 92.3761 49.6286L81.903 46.8359ZM81.5033 49.9665C81.5033 51.3301 81.7862 53.578 83.5782 55.3701L91.2426 47.706C91.8107 48.2746 92.0907 48.8782 92.2208 49.295C92.3427 49.6882 92.3418 49.9452 92.3418 49.9665H81.5033ZM84.0249 55.7699C85.8261 57.2108 87.9187 57.391 89.1445 57.391V46.5523C89.0528 46.5523 89.1729 46.5416 89.4292 46.6056C89.6869 46.6701 90.2193 46.8451 90.7955 47.3063L84.0249 55.7699ZM89.1445 57.391C91.8568 57.391 94.1211 56.2151 95.8237 54.5804L88.3179 46.7615C88.2427 46.8338 88.2851 46.7723 88.4609 46.6942C88.6527 46.609 88.8955 46.5523 89.1445 46.5523V57.391ZM95.9032 54.503C97.5525 52.8535 98.6255 50.8431 99.2379 48.6738L88.8061 45.7314C88.6231 46.3801 88.3959 46.682 88.2389 46.8389L95.9032 54.503ZM94.0218 52.6219H96.2979V41.7832H94.0218V52.6219ZM91.1712 45.4462C89.9946 48.8808 88.7913 50.2243 88.1257 50.6718L94.1735 59.6663C97.6988 57.2957 99.928 53.3283 101.425 48.959L91.1712 45.4462ZM88.1797 50.6359C86.7741 51.5569 85.7127 51.809 84.9175 51.809V62.6477C88.2409 62.6477 91.3347 61.527 94.1193 59.7021L88.1797 50.6359ZM100.016 19.5639L103.848 23.3959L103.889 23.3552L103.928 23.3135L100.016 19.5639ZM106.085 19.5639L102.173 23.3135L102.253 23.3968L102.336 23.4766L106.085 19.5639ZM106.085 25.6335L102.336 21.7209L102.294 21.7607L102.254 21.8015L106.085 25.6335ZM95.1382 55.6026L91.2417 59.3691L91.2742 59.4022L91.3067 59.4346L95.1382 55.6026ZM94.0001 47.2026L88.6986 46.0795L88.6923 46.1096L88.6863 46.1398L94.0001 47.2026ZM97.6853 29.8065V24.3871H93.2938L92.3842 28.6834L97.6853 29.8065ZM105.489 29.8065L110.791 30.9292L112.177 24.3871H105.489V29.8065ZM101.587 48.2323L106.824 49.6286L106.86 49.4926L106.889 49.355L101.587 48.2323ZM101.858 51.5381L98.0267 55.3701L98.239 55.5824L98.4729 55.7699L101.858 51.5381ZM106.519 50.671L110.272 54.5804L110.312 54.5421L110.351 54.503L106.519 50.671ZM108.47 47.2026V41.7832H104.367L103.255 45.7314L108.47 47.2026ZM110.746 47.2026L115.873 48.959L118.331 41.7832H110.746V47.2026ZM105.598 55.169L108.567 59.7021L108.594 59.6844L108.622 59.6663L105.598 55.169ZM103.05 21.4606C103.097 21.4606 103.253 21.4715 103.457 21.5554C103.663 21.6399 103.795 21.7481 103.848 21.8015L96.1841 29.4656C98.0475 31.3294 100.445 32.2994 103.05 32.2994V21.4606ZM103.848 21.8015C103.901 21.8549 104.01 21.9869 104.094 22.1927C104.178 22.3969 104.188 22.5527 104.188 22.5987H93.3498C93.3498 25.2048 94.3199 27.6019 96.1841 29.4656L103.848 21.8015ZM104.188 22.5987C104.188 22.6447 104.178 22.8005 104.094 23.0047C104.01 23.2106 103.901 23.3425 103.848 23.3959L96.1841 15.7318C94.3199 17.5956 93.3498 19.9926 93.3498 22.5987H104.188ZM103.928 23.3135C103.887 23.3575 103.755 23.4742 103.533 23.5696C103.31 23.6652 103.126 23.6826 103.05 23.6826V12.8439C100.369 12.8439 97.9481 13.8894 96.1028 15.8142L103.928 23.3135ZM103.05 23.6826C102.975 23.6826 102.792 23.6652 102.569 23.5696C102.346 23.4742 102.215 23.3575 102.173 23.3135L109.998 15.8142C108.154 13.8894 105.732 12.8439 103.05 12.8439V23.6826ZM102.336 23.4766C102.292 23.4345 102.175 23.303 102.079 23.0806C101.984 22.8573 101.967 22.6748 101.967 22.5987H112.805C112.805 19.9169 111.76 17.4958 109.835 15.6512L102.336 23.4766ZM101.967 22.5987C101.967 22.5227 101.984 22.3401 102.079 22.1168C102.175 21.8944 102.292 21.763 102.336 21.7209L109.835 29.5462C111.76 27.7016 112.805 25.2805 112.805 22.5987H101.967ZM102.254 21.8015C102.307 21.7481 102.439 21.6399 102.645 21.5554C102.849 21.4715 103.004 21.4606 103.05 21.4606V32.2994C105.657 32.2994 108.053 31.3294 109.918 29.4656L102.254 21.8015ZM99.3653 51.809C99.2144 51.809 99.1106 51.7972 99.0464 51.7862C98.9841 51.7754 98.9561 51.7649 98.9534 51.7638C98.9516 51.7631 98.9606 51.7667 98.9724 51.7745C98.985 51.7824 98.9841 51.7842 98.9706 51.7706L91.3067 59.4346C93.5431 61.6716 96.4 62.6477 99.3653 62.6477V51.809ZM99.0347 51.836C99.1593 51.9648 99.1593 52.038 99.1178 51.9082C99.0681 51.7544 98.9859 51.3891 98.9859 50.7252H88.1475C88.1475 53.6831 88.8601 56.9052 91.2417 59.3691L99.0347 51.836ZM98.9859 50.7252C98.9859 50.3306 99.0573 49.5501 99.3147 48.2654L88.6863 46.1398C88.3652 47.7454 88.1475 49.3132 88.1475 50.7252H98.9859ZM99.302 48.3257L102.987 30.9295L92.3842 28.6834L88.6986 46.0795L99.302 48.3257ZM97.6853 35.2258H105.489V24.3871H97.6853V35.2258ZM100.187 28.6837L96.2853 47.1096L106.889 49.355L110.791 30.9292L100.187 28.6837ZM96.3512 46.8359C96.0739 47.8742 95.9511 48.9251 95.9511 49.9665H106.79C106.79 49.7794 106.811 49.6741 106.824 49.6286L96.3512 46.8359ZM95.9511 49.9665C95.9511 51.3301 96.2338 53.578 98.0267 55.3701L105.691 47.706C106.259 48.2746 106.539 48.8782 106.669 49.295C106.791 49.6882 106.79 49.9452 106.79 49.9665H95.9511ZM98.4729 55.7699C100.274 57.2108 102.367 57.391 103.592 57.391V46.5523C103.501 46.5523 103.621 46.5416 103.877 46.6056C104.135 46.6701 104.667 46.8451 105.243 47.3063L98.4729 55.7699ZM103.592 57.391C106.306 57.391 108.569 56.2151 110.272 54.5804L102.766 46.7615C102.691 46.8338 102.733 46.7723 102.909 46.6942C103.101 46.609 103.344 46.5523 103.592 46.5523V57.391ZM110.351 54.503C112.001 52.8535 113.074 50.8431 113.686 48.6738L103.255 45.7314C103.071 46.3801 102.844 46.682 102.687 46.8389L110.351 54.503ZM108.47 52.6219H110.746V41.7832H108.47V52.6219ZM105.619 45.4462C104.442 48.8808 103.239 50.2243 102.574 50.6718L108.622 59.6663C112.147 57.2957 114.376 53.3283 115.873 48.959L105.619 45.4462ZM102.628 50.6359C101.222 51.5569 100.161 51.809 99.3653 51.809V62.6477C102.689 62.6477 105.783 61.527 108.567 59.7021L102.628 50.6359ZM121.888 48.5574L127.21 49.5809L127.214 49.5625L127.217 49.5442L121.888 48.5574ZM122.43 45.7394L117.161 44.4747L117.136 44.5752L117.116 44.6765L122.43 45.7394ZM122.864 44.0052L128.075 45.494L128.115 45.3543L128.147 45.2128L122.864 44.0052ZM119.612 35.9303L123.844 39.3158L123.876 39.2755L123.908 39.2346L119.612 35.9303ZM117.878 39.5071L112.677 37.9848L112.619 38.1825L112.577 38.384L117.878 39.5071ZM114.193 56.9032V62.3226H118.584L119.495 58.0263L114.193 56.9032ZM106.389 56.9032L101.088 55.7793L99.7004 62.3226H106.389V56.9032ZM112.133 29.8065V24.3871H107.743L106.832 28.6826L112.133 29.8065ZM119.937 29.8065L125.239 30.9281L126.623 24.3871H119.937V29.8065ZM119.341 32.6245L114.039 31.5029L109.826 51.4181L123.384 36.2339L119.341 32.6245ZM131.318 39.2361L136.632 40.299L136.635 40.2848L136.638 40.2705L131.318 39.2361ZM130.234 43.8968L135.482 45.251L135.483 45.2431L135.485 45.2354L130.234 43.8968ZM129.421 47.2026L124.143 45.9711L124.128 46.0377L124.115 46.1046L129.421 47.2026ZM133.052 51.6465L138.434 52.2796L139.804 40.6314L130.046 47.1373L133.052 51.6465ZM131.047 55.8194L127.565 51.6671L127.531 51.6953L127.498 51.724L131.047 55.8194ZM127.091 51.809C126.662 51.809 126.575 51.7422 126.691 51.7904C126.755 51.8166 126.854 51.8677 126.968 51.9548C127.082 52.0428 127.179 52.1434 127.253 52.2426L118.582 58.7458C120.788 61.6857 124.073 62.6477 127.091 62.6477V51.809ZM127.253 52.2426C127.236 52.2195 127.036 51.9718 127.036 51.1045H116.198C116.198 53.7779 116.866 56.4567 118.582 58.7458L127.253 52.2426ZM127.036 51.1045C127.036 50.7645 127.079 50.2658 127.21 49.5809L116.566 47.534C116.337 48.7278 116.198 49.9272 116.198 51.1045H127.036ZM127.217 49.5442C127.393 48.5922 127.569 47.6782 127.745 46.8022L117.116 44.6765C116.93 45.6069 116.744 46.5717 116.56 47.5706L127.217 49.5442ZM127.7 47.0041C127.806 46.561 127.893 46.2089 127.959 45.9428C127.992 45.8099 128.019 45.7045 128.04 45.6237C128.051 45.5837 128.059 45.5526 128.065 45.5292C128.068 45.5177 128.071 45.5089 128.072 45.5027C128.074 45.4964 128.075 45.4937 128.075 45.494L117.653 42.5164C117.543 42.9033 117.369 43.6037 117.161 44.4747L127.7 47.0041ZM128.147 45.2128C128.445 43.9113 128.724 42.6267 128.985 41.3586L118.369 39.173C118.124 40.3617 117.862 41.57 117.581 42.7975L128.147 45.2128ZM128.985 41.3586C129.27 39.971 129.475 38.5706 129.475 37.2852H118.637C118.637 37.5171 118.589 38.1038 118.369 39.173L128.985 41.3586ZM129.475 37.2852C129.475 35.8915 129.259 33.877 127.996 32.087C126.488 29.9513 124.206 29.1019 122.105 29.1019V39.9406C121.792 39.9406 121.258 39.884 120.644 39.5944C120.004 39.2918 119.493 38.8354 119.141 38.3375C118.528 37.4688 118.637 36.8363 118.637 37.2852H129.475ZM122.105 29.1019C119.052 29.1019 116.77 30.7371 115.317 32.6261L123.908 39.2346C123.93 39.2057 123.794 39.3938 123.444 39.5915C123.06 39.8087 122.585 39.9406 122.105 39.9406V29.1019ZM115.38 32.5449C114.096 34.151 113.246 36.0394 112.677 37.9848L123.079 41.0294C123.377 40.0122 123.684 39.5161 123.844 39.3158L115.38 32.5449ZM112.577 38.384L108.892 55.7802L119.495 58.0263L123.18 40.6302L112.577 38.384ZM114.193 51.4839H106.389V62.3226H114.193V51.4839ZM111.691 58.0271L117.435 30.9303L106.832 28.6826L101.088 55.7793L111.691 58.0271ZM112.133 35.2258H119.937V24.3871H112.133V35.2258ZM114.635 28.6848L114.039 31.5029L124.643 33.7461L125.239 30.9281L114.635 28.6848ZM123.384 36.2339C124.3 35.2077 125.001 35.009 125.682 35.009V24.1703C121.522 24.1703 117.995 25.9948 115.299 29.0151L123.384 36.2339ZM125.682 35.009C126.112 35.009 126.326 35.0684 126.391 35.091C126.439 35.1074 126.411 35.1032 126.374 35.0689L133.769 27.1453C131.453 24.9833 128.548 24.1703 125.682 24.1703V35.009ZM126.374 35.0689C126.306 35.0052 126.252 34.9379 126.215 34.8799C126.179 34.8236 126.172 34.7974 126.18 34.8211C126.201 34.8791 126.278 35.1429 126.278 35.7136H137.116C137.116 32.7533 136.325 29.5303 133.769 27.1453L126.374 35.0689ZM126.278 35.7136C126.278 36.3371 126.202 37.157 125.999 38.2018L136.638 40.2705C136.94 38.714 137.116 37.1854 137.116 35.7136H126.278ZM126.004 38.1733C125.776 39.3133 125.439 40.7685 124.983 42.5582L135.485 45.2354C135.968 43.3398 136.354 41.688 136.632 40.299L126.004 38.1733ZM124.987 42.5426C124.687 43.7018 124.406 44.8447 124.143 45.9711L134.699 48.434C134.942 47.3927 135.203 46.3318 135.482 45.251L124.987 42.5426ZM124.115 46.1046C123.869 47.2899 123.676 48.5385 123.676 49.6955H134.515C134.515 49.6986 134.515 49.6685 134.521 49.5995C134.526 49.5315 134.535 49.4368 134.551 49.3125C134.584 49.0606 134.64 48.7269 134.728 48.3005L124.115 46.1046ZM123.676 49.6955C123.676 51.1676 124.004 53.1139 125.39 54.8072L133.778 47.9438C134.513 48.8422 134.515 49.6686 134.515 49.6955H123.676ZM125.39 54.8072C127.203 57.0228 129.742 57.391 131.264 57.391V46.5523C131.289 46.5523 131.599 46.5515 132.06 46.7152C132.563 46.8938 133.222 47.2634 133.778 47.9438L125.39 54.8072ZM131.264 57.391C131.897 57.391 132.608 57.3535 133.331 57.2222C133.998 57.1009 135.035 56.8374 136.059 56.1556L130.046 47.1373C130.419 46.889 130.745 46.7519 130.954 46.6783C131.166 46.6035 131.321 46.5711 131.392 46.5584C131.517 46.5355 131.498 46.5523 131.264 46.5523V57.391ZM127.67 51.0133C127.618 51.4562 127.532 51.6654 127.503 51.7244C127.484 51.7649 127.502 51.72 127.565 51.6671L134.53 59.9716C136.972 57.9232 138.102 55.1098 138.434 52.2796L127.67 51.0133ZM127.498 51.724C127.47 51.7479 127.454 51.7578 127.448 51.7611C127.443 51.7641 127.438 51.7671 127.427 51.7709C127.411 51.7763 127.316 51.809 127.091 51.809V62.6477C129.831 62.6477 132.442 61.7817 134.596 59.9147L127.498 51.724Z" fill="#5DC001"/>
<path d="M19.5148 20.7019C17.2387 20.7742 15.4864 21.6413 14.258 23.3032C13.0658 24.9652 12.4696 27.8374 12.4696 31.92C12.4696 33.2568 12.5961 34.1961 12.849 34.7381C13.1019 35.2439 13.2284 35.5329 13.2284 35.6052C11.2774 35.6052 9.81416 35.2077 8.83872 34.4129C7.89937 33.5819 7.42969 32.2271 7.42969 30.3484C7.42969 27.7832 8.06195 25.4529 9.32642 23.3574C10.5909 21.2258 12.5961 19.5097 15.3419 18.209C18.1238 16.9084 21.6464 16.2581 25.9096 16.2581C26.7767 16.2581 27.9329 16.3484 29.378 16.529C31.9793 16.7819 33.8219 16.9084 34.9058 16.9084C36.8206 16.9084 38.4464 16.6916 39.7832 16.2581C39.6748 16.5832 39.4761 17.3058 39.1871 18.4258C38.898 19.5097 38.3742 20.449 37.6155 21.2439C36.8929 22.0026 35.8993 22.5084 34.6348 22.7613C32.5032 22.7613 29.9742 22.4181 27.0477 21.7316L24.7716 32.5161H32.6838L31.8167 36.5264H23.9045L19.5148 56.9032H11.7109L19.5148 20.7019ZM35.5011 29.8064H43.305L42.6004 33.1664C43.8288 32.0826 44.9308 31.2516 45.9062 30.6735C46.9179 30.0955 48.0017 29.8064 49.1579 29.8064C50.314 29.8064 51.2172 30.2039 51.8675 30.9987C52.554 31.7935 52.8972 32.751 52.8972 33.871C52.8972 34.9187 52.554 35.84 51.8675 36.6348C51.1811 37.4297 50.2237 37.8271 48.9953 37.8271C48.2004 37.8271 47.6585 37.6464 47.3695 37.2852C47.1166 36.8877 46.9179 36.3277 46.7733 35.6052C46.665 35.1355 46.5566 34.7922 46.4482 34.5755C46.3398 34.3587 46.1411 34.2503 45.8521 34.2503C45.0933 34.2503 44.443 34.4129 43.9011 34.7381C43.3953 35.0271 42.7269 35.551 41.8959 36.3097L37.5604 56.9032H29.7566L35.5011 29.8064ZM57.5566 57.2284C55.8224 57.2284 54.4134 56.6864 53.3295 55.6026C52.2818 54.5187 51.7579 52.8929 51.7579 50.7252C51.7579 49.8219 51.9024 48.6477 52.1914 47.2026L55.8766 29.8064H63.6805L59.7785 48.2323C59.6701 48.7742 59.6159 49.28 59.6159 49.7497C59.6159 51.231 60.1579 51.9716 61.2418 51.9716C62.2534 51.9716 63.1205 51.5561 63.843 50.7252C64.5656 49.8581 65.1437 48.6839 65.5772 47.2026L69.2624 29.8064H77.0663L73.1643 48.2323C73.0198 48.7742 72.9476 49.3523 72.9476 49.9664C72.9476 50.689 73.1101 51.2129 73.4353 51.5381C73.7966 51.8271 74.3747 51.9716 75.1695 51.9716C76.1811 51.9716 77.0482 51.5381 77.7708 50.671C78.5295 49.8039 79.1256 48.6477 79.5592 47.2026H81.8353C80.4985 51.1045 78.8366 53.76 76.8495 55.169C74.8985 56.5419 72.9295 57.2284 70.9424 57.2284C69.3889 57.2284 68.1424 56.7948 67.203 55.9277C66.2998 55.0606 65.7579 53.7781 65.5772 52.08C64.3489 54.0671 63.0482 55.4219 61.6753 56.1445C60.3385 56.8671 58.9656 57.2284 57.5566 57.2284ZM84.918 57.2284C83.1838 57.2284 81.7748 56.6864 80.6909 55.6026C79.6432 54.5187 79.1193 52.8929 79.1193 50.7252C79.1193 49.8219 79.2638 48.6477 79.5529 47.2026L82.8045 31.9742H81.0161L81.4496 29.8064H83.238L84.8638 22.3277L92.8843 21.2439L91.0417 29.8064H94.2933L93.8598 31.9742H90.6082L87.1399 48.2323C86.9954 48.7742 86.9232 49.3523 86.9232 49.9664C86.9232 50.689 87.0858 51.2129 87.4109 51.5381C87.7722 51.8271 88.3503 51.9716 89.1451 51.9716C90.1929 51.9716 91.1682 51.5381 92.0714 50.671C92.9746 49.7677 93.6249 48.6116 94.0224 47.2026H96.2985C94.9617 51.1045 93.2456 53.76 91.1501 55.169C89.0548 56.5419 86.9774 57.2284 84.918 57.2284ZM103.051 26.88C101.859 26.88 100.847 26.4645 100.016 25.6335C99.1852 24.8026 98.7697 23.791 98.7697 22.5987C98.7697 21.4064 99.1852 20.3948 100.016 19.5639C100.847 18.6968 101.859 18.2632 103.051 18.2632C104.243 18.2632 105.255 18.6968 106.086 19.5639C106.953 20.3948 107.386 21.4064 107.386 22.5987C107.386 23.791 106.953 24.8026 106.086 25.6335C105.255 26.4645 104.243 26.88 103.051 26.88ZM99.3658 57.2284C97.6316 57.2284 96.2226 56.6864 95.1387 55.6026C94.091 54.5187 93.5671 52.8929 93.5671 50.7252C93.5671 49.8219 93.7116 48.6477 94.0007 47.2026L97.6858 29.8064H105.49L101.588 48.2323C101.443 48.7742 101.371 49.3523 101.371 49.9664C101.371 50.689 101.534 51.2129 101.859 51.5381C102.22 51.8271 102.798 51.9716 103.593 51.9716C104.641 51.9716 105.616 51.5381 106.519 50.671C107.423 49.7677 108.073 48.6116 108.47 47.2026H110.746C109.41 51.1045 107.694 53.76 105.598 55.169C103.503 56.5419 101.425 57.2284 99.3658 57.2284ZM127.091 57.2284C125.176 57.2284 123.785 56.6503 122.918 55.4942C122.051 54.3381 121.618 52.8748 121.618 51.1045C121.618 50.3458 121.708 49.4968 121.889 48.5574C122.069 47.5819 122.25 46.6426 122.431 45.7393C122.647 44.8361 122.792 44.2581 122.864 44.0052C123.153 42.7406 123.424 41.4942 123.677 40.2658C123.93 39.0374 124.056 38.0439 124.056 37.2852C124.056 35.4426 123.406 34.5213 122.105 34.5213C121.166 34.5213 120.335 34.991 119.613 35.9303C118.89 36.8335 118.312 38.0258 117.878 39.5071L114.193 56.9032H106.389L112.134 29.8064H119.938L119.342 32.6245C121.148 30.6013 123.262 29.5897 125.682 29.5897C127.525 29.5897 128.988 30.0955 130.072 31.1071C131.156 32.1187 131.698 33.6542 131.698 35.7135C131.698 36.7613 131.571 37.9355 131.318 39.2361C131.065 40.5006 130.704 42.0542 130.234 43.8968C129.945 45.0168 129.674 46.1187 129.422 47.2026C129.205 48.2503 129.096 49.0813 129.096 49.6955C129.096 50.4181 129.259 50.9781 129.584 51.3755C129.909 51.7729 130.469 51.9716 131.264 51.9716C132.131 51.9716 132.727 51.8632 133.053 51.6464C132.836 53.489 132.167 54.88 131.047 55.8193C129.964 56.7587 128.645 57.2284 127.091 57.2284Z" fill="white"/>
<path d="M85.806 0C85.806 0 58.1143 0.242628 59.6802 20.2247C62.1651 17.4865 67.1179 12.5299 73.4835 8.73455C73.4835 8.73455 64.3437 17.1052 61.161 23.2228L61.229 23.2748C61.212 23.2921 78.7427 27.2435 85.806 0Z" fill="#5DC001"/>
<path d="M46.0645 9.93042C46.0645 9.93042 60.3444 11.7847 58.336 21.9924C57.2126 20.4327 54.9489 17.5558 51.9024 15.1988C51.9024 15.1988 56.1233 20.086 57.3998 23.4482L57.3658 23.4655C57.3488 23.4655 48.0729 24.4187 46.0645 9.93042Z" fill="#5DC001"/>
<path d="M54.0802 4.15918C54.0802 4.15918 61.5691 7.81591 58.6587 13.0323C58.3183 11.9579 57.6034 9.98224 56.3439 8.12785C56.3439 8.12785 57.7906 11.594 57.8758 13.6563H57.8417C57.8587 13.6736 52.5995 12.4778 54.0802 4.15918Z" fill="#5DC001"/>
<path d="M120.022 20.2061C122.327 20.2061 124.195 18.3301 124.195 16.0158C124.195 13.7017 122.327 11.8257 120.022 11.8257C117.717 11.8257 115.849 13.7017 115.849 16.0158C115.849 18.3301 117.717 20.2061 120.022 20.2061Z" fill="#5DC001"/>
<path d="M122.433 7.96141C123.38 7.96141 124.148 7.19015 124.148 6.23875C124.148 5.28737 123.38 4.51611 122.433 4.51611C121.485 4.51611 120.717 5.28737 120.717 6.23875C120.717 7.19015 121.485 7.96141 122.433 7.96141Z" fill="#5DC001"/>
<path d="M113.437 22.5807C114.231 22.5807 114.875 21.9345 114.875 21.1374C114.875 20.3403 114.231 19.6941 113.437 19.6941C112.644 19.6941 112 20.3403 112 21.1374C112 21.9345 112.644 22.5807 113.437 22.5807Z" fill="#5DC001"/>
<path d="M133.698 19.694C135.183 19.694 136.387 18.4849 136.387 16.9936C136.387 15.5022 135.183 14.2932 133.698 14.2932C132.213 14.2932 131.008 15.5022 131.008 16.9936C131.008 18.4849 132.213 19.694 133.698 19.694Z" fill="#5DC001"/>
</g>
<defs>
<clipPath id="clip0_1680_13523">
<rect width="140" height="62.3226" fill="white"/>
</clipPath>
</defs>
</svg>
