<svg width="36" height="36" viewBox="0 0 36 36" fill="none" xmlns="http://www.w3.org/2000/svg">
<path d="M35.9994 17.9937C36.1315 41.9717 -0.135173 42.0366 0.000543265 17.9815C-0.16193 -6.01814 36.1729 -5.97356 35.9994 17.9937ZM21.6041 22.5217L21.6305 22.4792L21.6125 22.5107C22.356 24.3782 24.543 26.1981 23.5874 28.3445C24.053 29.3491 26.3438 28.7315 26.807 27.6928C26.4152 27.2848 26.0399 26.7445 25.5398 26.4704C25.1847 27.337 24.1293 26.4439 24.9449 25.9877C25.1048 25.8498 24.8793 25.7168 24.8032 25.6071C23.7162 24.6493 22.7987 23.2367 21.6041 22.5217ZM18.8856 14.6617C18.7964 15.3698 18.9396 16.0443 18.7924 16.7377C17.8346 17.7407 17.9478 15.6681 17.9497 15.0866C17.5331 14.6346 16.5829 15.1009 15.9917 15.0258C15.698 15.1868 16.2477 15.5082 16.3454 15.6859C20.9703 20.4219 25.5911 25.1622 30.2201 29.8939C30.4125 30.1212 30.6157 29.8211 30.7552 29.6794C35.4876 24.3935 36.4988 16.1556 33.1668 9.84261C29.1269 1.80413 19.3219 -1.73028 11.368 1.81372C10.4571 2.25858 5.19833 4.80391 6.71482 5.82344C9.63455 8.44192 12.1145 12.1003 15.2919 14.1795C16.5439 13.1498 19.1212 14.4325 19.0862 13.1457C19.0556 12.3711 19.3736 11.0972 18.1946 11.3107C17.0468 11.0871 12.8153 11.8109 12.4274 10.9094C12.4679 9.83082 17.639 10.6444 18.7201 10.4171C20.4921 10.4863 20.4685 14.2774 18.8856 14.6617ZM22.8674 29.2517C18.1961 30.2658 12.9473 29.6358 8.14503 29.547C5.00316 28.225 7.49485 24.7649 8.66465 22.7758C9.55614 21.1944 10.4458 19.6118 11.3433 18.0337C12.5071 12.1408 9.86163 16.6867 10.5157 10.9981C9.00011 9.38464 7.42138 7.82362 5.88278 6.23118C3.19263 6.63416 0.64965 14.8417 0.8783 17.7578C-0.0814446 32.3581 19.5091 41.6994 29.7007 30.6759C28.9958 29.91 28.2799 29.0496 27.4544 28.4309C26.1165 29.8249 24.5751 30.039 22.8674 29.2517ZM14.5627 15.131C13.9112 15.2837 12.7281 14.8638 12.444 15.5251C12.3459 16.8124 12.7491 17.5887 11.9628 18.7045C11.3318 20.8813 4.70004 28.2394 8.96162 28.8112C12.9609 28.8182 16.9598 28.812 20.9587 28.8138C22.4689 29.0889 23.6275 27.3941 22.5615 26.0057C20.4861 21.8825 18.0447 18.1533 14.5627 15.131ZM12.3474 13.7327V13.7457C12.5947 13.731 13.3305 13.8584 12.8755 13.3923C12.3847 12.9865 11.9462 12.2281 11.3946 12.0243C11.2717 12.8666 11.1193 14.0106 12.3474 13.7327Z" fill="white"/>
<path d="M33.339 2.73091C33.2657 3.10475 32.9081 3.36745 32.6298 3.59346C31.0388 3.91415 33.072 1.20839 33.339 2.73091Z" fill="white"/>
<path d="M31.3731 2.22242C31.449 2.62233 31.2504 3.25784 30.7072 2.93796C29.9677 2.03748 31.2624 0.420884 31.395 2.22147C31.3877 2.22177 31.3804 2.22206 31.3731 2.22242Z" fill="white"/>
<path d="M33.4357 5.21577C32.8559 5.3846 32.2624 4.60742 32.9999 4.35819C34.1808 4.07038 34.8552 5.15156 33.4357 5.21577Z" fill="white"/>
<path d="M21.0561 10.5886C19.577 10.2813 19.4429 6.89914 20.7491 6.40757C21.3819 6.36167 24.9988 5.88445 24.7909 6.83266C24.3125 7.8751 21.0933 6.42895 20.8139 7.64806C20.917 8.24257 20.4648 9.3925 21.2125 9.60226C23.406 9.65475 25.6032 9.60226 27.7977 9.62357C28.9581 9.75923 28.491 8.39962 28.5622 7.66556C28.5564 6.832 27.3244 7.53443 27.2675 6.76421C27.2562 6.24957 27.8237 6.30522 28.1739 6.31356C29.9885 6.31151 29.9405 10.1711 28.366 10.5497C28.2457 15.72 28.377 20.9067 28.3181 26.0822C28.3082 26.3798 28.1912 26.7394 27.8244 26.6951C27.6459 26.6777 27.4687 26.5147 27.4544 26.3374C27.4189 22.2169 27.4561 18.0941 27.4404 13.9729C27.4392 12.8152 27.5668 12.9618 26.4627 12.9557C25.2946 13.1271 22.7137 12.581 21.9279 13.2001C21.6698 14.9051 22.4193 19.0157 21.5913 20.143C20.3831 20.2181 21.3683 12.0458 21.0561 10.5886ZM24.6421 12.0768C25.5287 12.0547 26.4232 12.1256 27.3058 12.0421C27.5642 11.7852 27.3614 11.2581 27.4205 10.9072C27.4029 10.7051 27.1826 10.7274 27.0383 10.7382C25.3832 10.8679 23.7037 10.8895 22.0617 11.1017C21.2447 12.6783 23.8056 11.9088 24.6421 12.0768Z" fill="white"/>
<path d="M25.6722 19.43C25.1398 19.4075 25.1804 18.5883 25.6814 18.5742C26.2362 18.5728 26.2403 19.4712 25.6722 19.43Z" fill="white"/>
<path d="M24.2113 21.5914C23.7419 21.6201 23.6549 20.7424 24.1995 20.738C24.8018 20.7215 24.7485 21.5903 24.2113 21.5914Z" fill="white"/>
<path d="M26.0619 7.16626C25.4975 7.22066 25.4812 6.31074 26.0345 6.32238C26.5494 6.31484 26.5815 7.1459 26.0619 7.16626Z" fill="white"/>
<path d="M23.8051 15.1034C24.3906 15.1369 24.281 16.0074 23.7469 15.9596C23.2404 15.8955 23.2866 15.0726 23.8051 15.1034Z" fill="white"/>
<path d="M15.1496 27.953C4.34465 28.2857 8.44862 27.9823 13.0727 18.4675C13.466 17.7703 13.4086 17.8001 14.1944 17.7991C15.1091 17.9274 16.2963 17.5082 17.0727 18.0233C21.7802 27.7641 26.2898 28.3661 15.1496 27.953ZM14.0041 18.6812C7.23533 30.6294 7.40195 26.3202 20.9483 27.0536C20.103 24.4472 17.9657 21.7405 16.689 19.1097C16.2056 18.2356 14.8516 18.8486 14.0041 18.6812Z" fill="white"/>
<path d="M16.0782 21.3163C16.1036 21.9004 15.2308 21.8858 15.2423 21.3218C15.2599 20.8009 16.0694 20.786 16.0782 21.3163Z" fill="white"/>
<path d="M16.719 24.8454C16.6774 25.4432 15.8317 25.3073 15.8983 24.7624C15.9571 24.2585 16.7762 24.3046 16.719 24.8454Z" fill="white"/>
<path d="M14.2173 23.6438C14.2342 24.1601 13.3981 24.1984 13.3915 23.668C13.3598 23.079 14.2072 23.0789 14.2173 23.6438Z" fill="white"/>
</svg>
