<svg width="166" height="40" viewBox="0 0 166 40" fill="none" xmlns="http://www.w3.org/2000/svg">
<path d="M6.73519 2.38683H6.74981C6.75955 2.37712 6.76929 2.37227 6.77904 2.37227C6.76929 2.37227 6.75468 2.37712 6.73519 2.38683ZM36.9735 2.3577H36.9881H37.0027H36.9735ZM37.3096 1.38187C37.3583 1.46925 37.3973 1.57121 37.4265 1.68772C37.4655 1.80424 37.4899 1.92561 37.4996 2.05184C37.5191 2.17807 37.4899 2.27517 37.4119 2.34314C37.3437 2.4111 37.2317 2.42081 37.0758 2.37227C37.0563 2.36256 37.0319 2.3577 37.0027 2.3577C37.0124 2.3577 37.0222 2.3577 37.0319 2.3577C37.0514 2.34799 37.0709 2.34314 37.0904 2.34314C37.0806 2.34314 37.066 2.34799 37.0465 2.3577C37.0271 2.3577 37.0076 2.3577 36.9881 2.3577H36.9735H36.915C36.8955 2.3577 36.8663 2.36741 36.8273 2.38683C36.7981 2.40625 36.7737 2.41596 36.7542 2.41596L36.7396 2.43052C36.7299 2.44023 36.725 2.44509 36.725 2.44509C36.7055 2.44509 36.6958 2.44994 36.6958 2.45965C36.4327 2.62472 36.1453 2.87232 35.8335 3.20245C35.2976 3.78504 34.6302 4.7366 33.8313 6.05714C33.1492 7.20289 32.4916 8.36321 31.8582 9.5381C31.2347 10.713 30.5673 12.0772 29.856 13.6308C29.1447 15.1843 28.6137 16.3447 28.263 17.1117C27.922 17.8788 27.3227 19.2722 26.4653 21.2918C25.6079 23.3115 25.0867 24.5349 24.9015 24.9621C24.4144 26.0982 23.7567 27.7343 22.9285 29.8704C22.1003 32.0066 21.506 33.5116 21.1455 34.3855C20.9312 34.9195 20.595 35.7885 20.1371 36.9926C19.6889 38.2063 19.3284 39.1336 19.0556 39.7744C19.0069 39.9395 18.8656 39.9977 18.6317 39.9492C17.9789 39.7938 17.4479 39.4152 17.0387 38.8132C16.6295 38.2209 16.3762 37.5606 16.2787 36.8324C16.1716 36.0264 16.1277 34.8127 16.1472 33.1912C16.1569 31.8901 16.2203 29.9481 16.3372 27.3653C16.3859 26.3458 16.459 24.899 16.5564 23.025C16.6539 21.151 16.7172 19.9179 16.7464 19.3256C16.7951 18.2866 16.8828 16.801 17.0095 14.8688C17.1361 12.9268 17.2141 11.7325 17.2433 11.2859C16.8536 11.9558 16.5174 12.5918 16.2349 13.1938C15.699 14.3008 15.129 15.5388 14.5249 16.9078C13.9209 18.2769 13.4386 19.3838 13.0781 20.2286C12.7273 21.0733 12.1866 22.3793 11.4558 24.1465C10.7251 25.9137 10.2428 27.074 10.0089 27.6275C9.1905 29.5986 8.22104 32.0745 7.10056 35.0555C6.93493 35.4924 6.63289 36.2546 6.19444 37.3421C5.76573 38.4393 5.44421 39.2889 5.22985 39.8909L5.21524 39.9055V39.9201C5.12755 40.0657 4.91807 40.0123 4.5868 39.7599C3.80733 39.119 3.13505 38.3228 2.56994 37.3712C2.00483 36.4197 1.57125 35.4924 1.26921 34.5894C0.976911 33.6961 0.718714 32.6814 0.494618 31.5454C-0.0217756 28.9431 -0.133823 25.603 0.158475 21.5249C0.392314 18.3497 0.845377 14.9465 1.51766 11.315C2.06329 8.38263 2.68199 5.727 3.37376 3.3481C3.6758 2.33828 3.934 1.56635 4.14835 1.03231C4.15809 1.0226 4.17758 0.969199 4.20681 0.872101C4.24578 0.765293 4.27501 0.687615 4.2945 0.639066C4.31398 0.590517 4.34809 0.522548 4.3968 0.43516C4.44552 0.347772 4.48936 0.279803 4.52834 0.231254C4.56731 0.182705 4.61603 0.139011 4.67449 0.100172C4.74269 0.0516226 4.80602 0.0273481 4.86448 0.0273481C5.40036 -0.0114911 5.94598 0.338062 6.50135 1.07601C6.55007 1.14398 6.60366 1.23136 6.66212 1.33817C6.73032 1.44498 6.79852 1.57606 6.86672 1.73142C6.93493 1.87707 6.96416 2.013 6.95441 2.13923C6.94467 2.26546 6.88621 2.34314 6.77904 2.37227C6.79852 2.36256 6.80339 2.35285 6.79365 2.34314C6.77416 2.34314 6.75468 2.3577 6.73519 2.38683V2.40139L6.61827 2.59074C6.55007 2.73638 6.45751 2.96456 6.34059 3.27528C6.06778 3.9938 5.77061 4.94536 5.44908 6.12996C3.83169 12.0918 2.84275 18.0585 2.48225 24.03C2.2679 27.4867 2.32148 30.5598 2.64301 33.2494C2.76967 34.269 3.04736 35.4439 3.47606 36.7741C3.65144 37.3081 3.86579 37.7791 4.11912 38.1869C4.40167 37.4295 4.82064 36.2983 5.376 34.7933C5.94111 33.298 6.36495 32.1765 6.6475 31.4288C8.3136 26.9915 10.4571 21.4375 13.0781 14.7668C13.7991 12.8249 14.3593 11.3733 14.7588 10.412C15.0901 9.59636 15.3775 8.97493 15.6211 8.5477C15.7185 8.37292 15.8013 8.2467 15.8695 8.16902C15.9475 8.09134 16.0546 8.02822 16.191 7.97968C16.3275 7.93113 16.4833 7.9554 16.6587 8.0525C16.9608 8.17873 17.2531 8.38749 17.5356 8.67878C17.8279 8.97008 18.0277 9.26622 18.1348 9.56723C18.1446 9.58665 18.1494 9.61092 18.1494 9.64005C18.1592 9.65947 18.1641 9.68375 18.1641 9.71288C18.1738 9.742 18.1787 9.76628 18.1787 9.7857C18.2079 9.84396 18.2225 9.89251 18.2225 9.93135C18.2225 10.98 18.2323 12.7423 18.2518 15.2183C18.281 17.6846 18.2859 19.5829 18.2664 20.9131C18.1884 27.0594 18.1787 31.4677 18.2371 34.1379C18.2761 35.6623 18.3394 36.8032 18.4271 37.5606C18.5246 37.2984 18.8217 36.5022 19.3186 35.172C19.8253 33.8514 20.215 32.8368 20.4878 32.128C21.1699 30.3511 23.5667 24.3504 27.6784 14.126C27.9609 13.3686 28.2776 12.5481 28.6283 11.6645C30.0216 8.11076 31.3224 5.26579 32.5305 3.12963C33.0372 2.22662 33.3538 1.67801 33.4805 1.48382C34.26 0.328352 35.0005 -0.152283 35.702 0.0419128C36.3548 0.226399 36.8907 0.67305 37.3096 1.38187Z" fill="#F1F45B"/>
<path d="M63.6749 13.0045C63.7626 13.053 63.8552 13.1599 63.9526 13.3249C64.0111 13.4317 63.9965 13.4754 63.9088 13.456C62.535 13.1744 61.0394 12.9899 59.422 12.9025C57.8144 12.8054 56.3821 12.7763 55.1252 12.8152C53.8683 12.8443 52.3581 12.922 50.5946 13.0482C50.39 13.0579 50.1074 13.0822 49.7469 13.121C47.6229 18.5779 45.9227 23.0687 44.6463 26.5934C43.6817 29.283 42.8779 31.7541 42.2348 34.0068C41.8159 35.4633 41.5431 36.4197 41.4164 36.876C41.3969 36.9537 41.3628 37.0848 41.3141 37.2693C41.2751 37.4635 41.241 37.6043 41.2118 37.6917C41.1826 37.7888 41.1339 37.9004 41.0656 38.0267C41.0072 38.1626 40.9244 38.2645 40.8172 38.3325C40.71 38.4102 40.5834 38.4733 40.4372 38.5219C40.2131 38.5898 39.9647 38.4733 39.6918 38.1723C39.4288 37.881 39.2631 37.614 39.1949 37.3712C39.039 36.8178 39.0244 36.3954 39.1511 36.1041C39.2485 35.8905 39.4044 35.4973 39.6188 34.9244C39.7552 34.5748 39.9647 34.0456 40.2472 33.3368C40.5298 32.628 40.7393 32.094 40.8757 31.7347C41.4797 30.1811 42.0741 28.5499 42.6587 26.841C43.253 25.132 43.9156 23.1464 44.6463 20.884C45.3868 18.6119 45.9324 16.9612 46.2832 15.932C46.5365 15.1746 46.8191 14.3202 47.1308 13.3686C47.1211 13.3686 47.1065 13.3735 47.087 13.3832C47.0773 13.3832 47.0675 13.3832 47.0578 13.3832C45.9665 15.6261 44.924 17.6895 43.9302 19.5732C42.4492 22.3793 41.2167 24.5543 40.2326 26.0982C40.2034 26.1467 40.1303 26.2632 40.0134 26.4477C39.8965 26.6322 39.8136 26.7584 39.7649 26.8264C39.7259 26.8847 39.6529 26.9963 39.5457 27.1614C39.4385 27.3265 39.3508 27.4527 39.2826 27.5401C39.2242 27.6178 39.1413 27.7294 39.0342 27.8751C38.9367 28.011 38.8491 28.1275 38.7711 28.2246C38.6932 28.3217 38.6006 28.4285 38.4934 28.545C38.396 28.6518 38.2986 28.7538 38.2011 28.8509C37.7724 29.2587 37.3729 29.4286 37.0027 29.3607C36.8468 29.3315 36.6227 29.215 36.3304 29.0111C35.6971 28.681 35.1612 28.2343 34.7228 27.6712C34.2843 27.108 33.9969 26.4914 33.8605 25.8214C33.8215 25.8797 33.7484 25.9816 33.6413 26.1273C33.5438 26.2729 33.4708 26.3846 33.422 26.4623C33.0713 26.9963 32.5451 27.7877 31.8436 28.8363C30.7232 30.5064 30.085 31.4386 29.9291 31.6328C29.7634 31.8367 29.6075 31.9969 29.4614 32.1134C29.4419 32.1231 29.4176 32.1425 29.3883 32.1716C29.3591 32.2008 29.3347 32.2251 29.3152 32.2445C29.2763 32.2736 29.2227 32.2979 29.1545 32.3173L29.1691 32.3319H29.096C28.6966 32.3416 28.3263 32.1668 27.9853 31.8075C27.6345 31.4483 27.3861 31.0599 27.2399 30.6424C27.123 30.3025 27.0499 29.953 27.0207 29.5937C26.9817 29.2247 27.0012 28.8363 27.0792 28.4285C27.1571 28.0207 27.2351 27.6614 27.313 27.3507C27.3812 27.04 27.5079 26.6565 27.693 26.2001C27.8781 25.7438 28.0194 25.4088 28.1168 25.1952C28.2143 24.9718 28.3701 24.6368 28.5845 24.1902C29.1594 22.9668 29.7683 21.8501 30.4114 20.8403C30.4309 20.8112 30.4844 20.7286 30.5721 20.5927C30.6598 20.4568 30.7183 20.3694 30.7475 20.3305C30.7767 20.282 30.8303 20.1995 30.9083 20.0829C30.996 19.9567 31.0593 19.8693 31.0983 19.8208C31.1372 19.7625 31.1957 19.68 31.2736 19.5732C31.3613 19.4664 31.4344 19.3838 31.4929 19.3256C31.5513 19.2576 31.6195 19.1848 31.6975 19.1071C31.7754 19.0197 31.8534 18.9469 31.9313 18.8886C32.0093 18.8207 32.0872 18.7576 32.1652 18.6993C32.4185 18.5148 32.6864 18.4226 32.969 18.4226C33.2613 18.4226 33.5292 18.4954 33.7728 18.641C34.0261 18.7867 34.2551 18.9663 34.4597 19.1799C34.6741 19.3935 34.8592 19.6314 35.0151 19.8936C35.1222 20.0684 35.2294 20.3014 35.3366 20.5927C35.7848 19.7577 36.1112 19.1362 36.3158 18.7284C36.4912 18.3595 36.9004 18.4323 37.5435 18.9469C37.8552 19.2091 38.0939 19.4858 38.2596 19.7771C38.4642 20.1072 38.5324 20.3451 38.4642 20.4908C38.357 20.7335 38.0209 21.4423 37.4558 22.6172C36.9004 23.7824 36.5155 24.6951 36.3012 25.3554C36.0381 26.2001 35.9358 26.8313 35.9943 27.2488C35.9943 27.2682 35.9991 27.3022 36.0089 27.3507C36.0186 27.3896 36.0284 27.4187 36.0381 27.4381C36.0479 27.4478 36.0527 27.4672 36.0527 27.4964C36.0527 27.5158 36.0576 27.5304 36.0673 27.5401L36.1112 27.6275C36.1307 27.6469 36.155 27.6712 36.1843 27.7003C36.2135 27.7197 36.2379 27.7343 36.2573 27.744C36.2671 27.7343 36.2866 27.7294 36.3158 27.7294C36.345 27.7197 36.3645 27.7148 36.3743 27.7148C36.3937 27.7051 36.4084 27.7003 36.4181 27.7003C36.6519 27.5546 36.8907 27.3702 37.1342 27.1468C37.7675 26.5642 38.5714 25.5496 39.5457 24.1028C41.5041 21.2093 43.6086 17.6846 45.8593 13.5288C45.0019 13.6453 44.3638 13.7376 43.9448 13.8056C43.4869 13.8735 42.7318 14.0095 41.6795 14.2134C42.4979 14.4076 43.2822 14.6649 44.0325 14.9853C44.2176 15.063 44.3491 15.1941 44.4271 15.3785C44.4368 15.398 44.4417 15.4222 44.4417 15.4514C44.4514 15.4805 44.4563 15.5145 44.4563 15.5533C44.4563 15.5825 44.4466 15.6019 44.4271 15.6116C44.4076 15.6213 44.3784 15.6213 44.3394 15.6116C43.1117 15.2232 41.8159 15.0193 40.4518 14.9999C39.9159 14.9999 39.2631 15.0436 38.4934 15.1309C37.8699 15.2183 37.5435 15.262 37.5142 15.262C37.2609 15.2814 37.0709 15.2814 36.9442 15.262C36.8663 15.2426 36.803 15.2232 36.7542 15.2038V15.2183C36.7348 15.2378 36.6909 15.2329 36.6227 15.2038C36.5935 15.1941 36.5643 15.1795 36.535 15.1601C36.5058 15.1407 36.4814 15.1212 36.4619 15.1018C36.4425 15.0824 36.4181 15.063 36.3889 15.0436C36.3694 15.0144 36.3499 14.9902 36.3304 14.9707C36.3207 14.9513 36.3061 14.927 36.2866 14.8979C36.2768 14.8591 36.2671 14.8348 36.2573 14.8251C36.2476 14.8057 36.233 14.7765 36.2135 14.7377C36.194 14.6989 36.1794 14.6697 36.1697 14.6503C35.6922 14.2231 35.3853 13.8007 35.2489 13.3832C35.1612 13.0919 35.2197 12.9268 35.4243 12.888C35.7848 12.8103 36.1697 12.7423 36.5789 12.6841C36.9881 12.6258 37.4509 12.5724 37.9673 12.5239C38.4837 12.4656 38.8734 12.4219 39.1365 12.3928C39.4288 12.3539 40.6369 12.2471 42.761 12.0724C44.2712 11.9558 45.6109 11.8733 46.7801 11.8248C47.0529 11.3198 47.4621 10.5576 48.0077 9.5381C48.5534 8.50886 48.9626 7.73693 49.2354 7.22231C49.6154 6.20278 49.8687 5.53281 49.9954 5.21238C50.122 4.90167 50.4484 4.91623 50.9746 5.25608C51.4617 5.56679 51.8174 5.93576 52.0415 6.36299C52.1681 6.61545 52.1973 6.8145 52.1291 6.96015C51.944 7.38738 51.754 7.85345 51.5592 8.35836C51.3643 8.85356 51.1548 9.40216 50.9307 10.0042C50.7164 10.5965 50.5459 11.0625 50.4192 11.4024C50.4095 11.4412 50.39 11.4946 50.3607 11.5626C50.3413 11.6209 50.3218 11.6645 50.3023 11.6937C52.2314 11.6451 54.5065 11.6791 57.1274 11.7956C58.0823 11.8442 58.8471 11.8927 59.422 11.9413C59.9968 11.9898 60.6886 12.1063 61.4973 12.2908C62.3157 12.4656 63.0416 12.7035 63.6749 13.0045ZM36.082 27.5983L36.0673 27.5838H36.0527L36.082 27.5983ZM36.1697 27.7294C36.1697 27.71 36.1599 27.6906 36.1404 27.6712L36.1697 27.7294ZM28.2045 30.89C28.0973 30.8511 28.0437 30.8414 28.0437 30.8608C28.0437 30.8608 28.0584 30.8705 28.0876 30.89H28.1753L28.1607 30.9045H28.1753C28.185 30.9045 28.1899 30.9045 28.1899 30.9045C28.1899 30.8948 28.1948 30.89 28.2045 30.89ZM28.9791 31.8075C28.9986 31.7978 28.9937 31.759 28.9645 31.691L28.9791 31.8075ZM32.9982 25.0932C33.5926 24.2776 33.9238 23.8261 33.992 23.7387C34.0992 23.3309 34.2453 22.8939 34.4305 22.4279C34.4012 22.3016 34.3574 22.1123 34.2989 21.8598C34.2502 21.6074 34.2113 21.418 34.182 21.2918C34.1138 21.0588 34.0651 20.9083 34.0359 20.8403L34.0066 20.8694C33.7533 21.1413 33.5 21.4472 33.2467 21.787C32.1749 23.2726 31.1908 25.1466 30.2944 27.409C30.1483 27.7683 29.8609 28.5693 29.4322 29.8122C29.4419 29.7927 29.4614 29.7685 29.4906 29.7393C29.5199 29.7005 29.5442 29.6714 29.5637 29.652C30.0119 29.1179 30.6793 28.2489 31.5659 27.0449C31.7316 26.8215 31.9703 26.4963 32.2821 26.069C32.6036 25.6321 32.8423 25.3068 32.9982 25.0932Z" fill="#F1F45B"/>
<path d="M57.829 23.3454C57.8777 23.2969 57.9459 23.3066 58.0336 23.3746C58.1213 23.4328 58.1943 23.5105 58.2528 23.6076C58.321 23.7047 58.3405 23.7824 58.3113 23.8406C58.0384 24.3261 57.7315 24.831 57.3905 25.3554C57.0495 25.8797 56.6598 26.4574 56.2213 27.0886C55.7926 27.7197 55.4662 28.21 55.2421 28.5596C54.5406 29.6277 53.917 30.4919 53.3714 31.1521C52.8648 31.7444 52.4214 32.1522 52.0415 32.3756C51.4179 32.7251 50.6579 32.6183 49.7615 32.0551C49.7031 32.0163 49.6592 31.992 49.63 31.9823C48.9674 31.6133 48.4218 31.0939 47.9931 30.4239C47.5644 29.7442 47.3306 29.0305 47.2916 28.2829C47.1844 26.37 48.0272 24.03 49.82 21.2627C50.5312 20.1752 51.1987 19.3644 51.8222 18.8304C52.173 18.5197 52.4848 18.3303 52.7576 18.2624C53.5371 18.0585 54.3457 18.374 55.1837 19.2091C55.5247 19.5489 55.7195 19.8548 55.7683 20.1266C55.856 20.2237 55.9193 20.3111 55.9583 20.3888C56.1531 20.7189 56.1872 20.952 56.0606 21.0879C56.0313 21.1073 55.9924 21.1365 55.9436 21.1753C55.9047 21.2141 55.8754 21.2481 55.856 21.2773C55.8267 21.3064 55.7878 21.3598 55.739 21.4375C55.6903 21.5054 55.6513 21.554 55.6221 21.5831C55.5637 21.6511 55.3542 21.9424 54.9937 22.457C54.8183 22.6997 54.1216 23.6076 52.9037 25.1806C52.8843 25.2097 52.8501 25.2097 52.8014 25.1806C52.7527 25.1418 52.7089 25.0932 52.6699 25.0349C52.6309 24.9767 52.6212 24.933 52.6407 24.9039C52.9037 24.4475 53.2448 23.8989 53.6637 23.2581C54.034 22.6755 54.297 22.2288 54.4529 21.9181C54.677 21.452 54.7842 21.0831 54.7744 20.8112C54.7744 20.7141 54.755 20.5879 54.716 20.4325C54.6186 20.4325 54.5698 20.4276 54.5698 20.4179C54.4139 20.4956 54.297 20.5684 54.2191 20.6364C53.9852 20.8112 53.7076 21.0879 53.386 21.4666C52.0804 23.0007 51.0623 24.7534 50.3315 26.7244C49.9418 27.7828 49.7128 28.7587 49.6446 29.652C49.6349 29.8073 49.6349 29.9675 49.6446 30.1326C49.6446 30.2006 49.6544 30.2928 49.6738 30.4093C49.6738 30.4287 49.6787 30.4482 49.6885 30.4676C49.6982 30.487 49.7079 30.5064 49.7177 30.5258C49.8054 30.6812 49.9125 30.7929 50.0392 30.8608C50.1951 30.9385 50.3802 30.9628 50.5946 30.9336L50.9453 30.8463C50.9941 30.8268 51.1207 30.7734 51.3253 30.686C51.6274 30.4919 52.0804 30.0695 52.6845 29.4189C53.2399 28.8266 54.0681 27.8362 55.169 26.4477C56.2798 25.0495 57.1664 24.0154 57.829 23.3454ZM50.0977 30.9919L50.1123 31.0065H50.1561C50.1464 30.9968 50.1366 30.9919 50.1269 30.9919C50.1172 30.9919 50.1074 30.9919 50.0977 30.9919ZM49.4838 30.4239C49.4644 30.4045 49.4254 30.3753 49.3669 30.3365C49.3864 30.3559 49.4254 30.385 49.4838 30.4239Z" fill="#F1F45B"/>
<path d="M71.6401 23.4037C71.679 23.3649 71.7326 23.3697 71.8008 23.4183C71.8788 23.4668 71.9421 23.5348 71.9908 23.6222C72.0395 23.6998 72.0493 23.7581 72.0201 23.7969C71.1237 25.1369 70.1542 26.4526 69.1117 27.744C69.063 27.8022 68.9168 27.9867 68.6732 28.2974C68.4297 28.6082 68.2591 28.8218 68.1617 28.9383C68.0643 29.0451 67.9133 29.215 67.7086 29.448C67.5138 29.6714 67.3335 29.8656 67.1679 30.0306C67.0023 30.1957 66.8269 30.3559 66.6418 30.5113C66.3397 30.754 65.9987 30.8366 65.6187 30.7589C65.57 30.7492 65.4726 30.7152 65.3264 30.6569C64.8393 30.5016 64.4106 30.2006 64.0403 29.7539C63.6798 29.3073 63.4362 28.8218 63.3096 28.2974C63.2414 28.0353 63.2024 27.7634 63.1926 27.4818C63.1829 27.1905 63.2073 26.8847 63.2657 26.5642C63.3242 26.2438 63.3778 25.9622 63.4265 25.7195C63.4849 25.4767 63.5775 25.1757 63.7042 24.8165C63.8406 24.4475 63.9429 24.1805 64.0111 24.0154C64.0793 23.8406 64.1913 23.5639 64.3472 23.1852C64.3959 23.0784 64.43 22.9959 64.4495 22.9376C64.9367 21.7822 65.2631 20.9811 65.4287 20.5345C65.419 20.5442 65.4044 20.5636 65.3849 20.5927C65.3654 20.6218 65.3459 20.6413 65.3264 20.651C64.7029 21.253 63.8942 22.2337 62.9003 23.593C61.7214 25.2049 60.7325 26.6322 59.9335 27.8751C59.0956 29.1665 58.5792 29.9869 58.3843 30.3365C58.3356 30.4239 58.2138 30.6326 58.019 30.9628C57.8241 31.2929 57.6779 31.5502 57.5805 31.7347C57.3467 32.1716 57.0982 32.4484 56.8352 32.5649C56.7962 32.5843 56.7621 32.5989 56.7328 32.6086V32.594C56.5672 32.6232 56.3529 32.5455 56.0898 32.361C55.9826 32.2833 55.8754 32.1911 55.7683 32.0843C55.398 31.8901 55.1301 31.5891 54.9644 31.1812C54.7598 30.6278 54.7355 30.1908 54.8914 29.8704C54.9401 29.7636 55.0132 29.6034 55.1106 29.3898C55.1983 29.1665 55.2665 29.0014 55.3152 28.8946C55.8706 27.6712 56.2311 26.8701 56.3967 26.4914C56.8839 25.3457 57.3662 24.1416 57.8436 22.8794C58.321 21.6074 58.8569 20.1363 59.4512 18.4663C60.0553 16.7962 60.4986 15.5727 60.7812 14.796C60.9371 14.3784 61.1807 13.7133 61.5119 12.8006C61.8432 11.8782 62.1014 11.1548 62.2865 10.6305C62.4814 10.1061 62.7298 9.46528 63.0319 8.70791C63.3339 7.95055 63.6262 7.26115 63.9088 6.63972C64.0549 6.3193 64.3959 6.33872 64.9318 6.69798C65.419 7.01841 65.7697 7.39223 65.9841 7.81946C66.101 8.06221 66.1254 8.2564 66.0572 8.40205C65.8428 8.82928 65.5651 9.44586 65.2241 10.2518C64.8928 11.0577 64.6639 11.6014 64.5372 11.883C63.0562 15.1843 61.4924 18.8547 59.8458 22.8939C59.2125 24.4378 58.6474 25.9622 58.1505 27.4672C58.209 27.3993 58.6084 26.8992 59.3489 25.9671C60.7519 24.1902 61.9309 22.6997 62.8857 21.4957C63.0124 21.3307 63.3339 20.9131 63.8503 20.2432C64.3764 19.5732 64.7857 19.0634 65.078 18.7139C65.2923 18.4517 65.4774 18.3061 65.6333 18.2769C65.8185 18.2478 66.0036 18.2963 66.1887 18.4226H66.2179C66.5005 18.4517 66.783 18.5973 67.0656 18.8595C67.3482 19.1217 67.5771 19.4033 67.7525 19.7043C68.0643 20.2383 68.0886 20.9568 67.8256 21.8598C67.6307 22.491 67.3043 23.3697 66.8464 24.496C66.3982 25.6127 66.101 26.3798 65.9549 26.7973C65.5846 27.8654 65.3654 28.6276 65.2972 29.0839V29.1568C65.3069 29.1568 65.3215 29.1519 65.341 29.1422C65.3605 29.1325 65.3751 29.1276 65.3849 29.1276C65.3946 29.1276 65.4044 29.1228 65.4141 29.1131C65.4336 29.1034 65.4482 29.0936 65.458 29.0839C65.4677 29.0839 65.4774 29.0791 65.4872 29.0694C65.6626 28.9528 66.0425 28.6616 66.6271 28.1955C66.8805 27.9916 67.5187 27.4041 68.5417 26.4332C68.7755 26.2098 69.2481 25.7438 69.9594 25.0349C70.6804 24.3261 71.2406 23.7824 71.6401 23.4037Z" fill="#F1F45B"/>
<path d="M100.811 13.0045C100.899 13.053 100.992 13.1599 101.089 13.3249C101.148 13.4317 101.133 13.4754 101.045 13.456C98.4438 12.9123 95.326 12.7083 91.6917 12.8443C90.4154 15.7087 88.9977 19.0537 87.4388 22.8794C86.7373 24.6077 86.1673 26.1419 85.7289 27.4818C86.4888 26.54 86.8932 26.0351 86.9419 25.9671C88.3449 24.1902 89.5239 22.6997 90.4787 21.4957C90.5274 21.4375 90.8295 21.0491 91.3848 20.3305C91.9402 19.6023 92.3738 19.0634 92.6856 18.7139C92.8999 18.4517 93.0802 18.3061 93.2263 18.2769C93.4114 18.2478 93.5965 18.2963 93.7817 18.4226H93.8109C94.0935 18.4517 94.3711 18.5973 94.644 18.8595C94.9265 19.1217 95.1555 19.4033 95.3309 19.7043C95.6524 20.248 95.6816 20.9665 95.4185 21.8598C95.2237 22.4813 94.9022 23.3503 94.454 24.4669C94.0058 25.5835 93.7037 26.3555 93.5478 26.7827C93.1776 27.8508 92.9584 28.613 92.8902 29.0694C92.8902 29.0791 92.8853 29.0936 92.8755 29.1131C92.8755 29.1325 92.8755 29.147 92.8755 29.1568C92.8853 29.1568 92.8999 29.1519 92.9194 29.1422C92.9486 29.1325 92.9681 29.1276 92.9779 29.1276C92.9876 29.1276 92.9973 29.1228 93.0071 29.1131C93.0266 29.1034 93.0412 29.0985 93.0509 29.0985L93.0802 29.0694C93.314 28.914 93.694 28.6276 94.2201 28.21C94.4442 28.0256 95.0824 27.4333 96.1347 26.4332C96.3685 26.2098 96.8411 25.7438 97.5523 25.0349C98.2733 24.3261 98.8336 23.7824 99.233 23.4037C99.272 23.3649 99.3256 23.3697 99.3938 23.4183C99.4718 23.4668 99.5351 23.5348 99.5838 23.6222C99.6325 23.6998 99.6423 23.7581 99.613 23.7969C98.7556 25.0786 97.7862 26.3895 96.7047 27.7294C96.6267 27.8265 96.4757 28.0159 96.2516 28.2974C96.0372 28.5693 95.8716 28.7732 95.7547 28.9092C95.6475 29.0451 95.4965 29.2247 95.3016 29.448C95.1165 29.6617 94.9363 29.8559 94.7609 30.0306C94.5952 30.1957 94.4199 30.3559 94.2347 30.5113C93.9327 30.754 93.5917 30.8366 93.2117 30.7589C93.1727 30.7589 93.0704 30.72 92.9048 30.6424C92.4176 30.487 91.9938 30.1908 91.6333 29.7539C91.2728 29.3073 91.0292 28.8218 90.9025 28.2974C90.6395 27.2002 90.9854 25.5107 91.9402 23.2289C91.9499 23.1901 91.9597 23.161 91.9694 23.1415C91.9889 23.1124 92.0035 23.0784 92.0133 23.0396C92.0328 23.0007 92.0474 22.9668 92.0571 22.9376C92.5443 21.7822 92.8707 20.9811 93.0363 20.5345L92.9194 20.651C92.2958 21.253 91.4871 22.2337 90.4933 23.593C89.3144 25.2049 88.3254 26.6322 87.5265 27.8751C86.6886 29.1665 86.1722 29.9869 85.9773 30.3365C85.9091 30.453 85.7776 30.6666 85.5827 30.9773C85.3976 31.2881 85.2563 31.5357 85.1589 31.7201C85.0712 31.8949 84.9981 32.026 84.9396 32.1134C84.8909 32.2008 84.813 32.293 84.7058 32.3901C84.5986 32.4872 84.472 32.56 84.3258 32.6086V32.594C84.1699 32.6134 83.9556 32.5309 83.6828 32.3464C83.5464 32.2493 83.4392 32.1619 83.3612 32.0843C82.9715 31.8804 82.7036 31.5794 82.5574 31.1812C82.4502 30.89 82.3869 30.6715 82.3674 30.5258C82.3577 30.3802 82.3967 30.1666 82.4843 29.885C82.5331 29.7782 82.6061 29.618 82.7036 29.4044C82.801 29.181 82.8741 29.016 82.9228 28.9092C83.41 27.8411 83.7705 27.0352 84.0043 26.4914C84.4915 25.3554 84.9737 24.1465 85.4512 22.8648C85.9383 21.5831 86.4693 20.1218 87.0442 18.4808C87.6288 16.8302 88.0721 15.6019 88.3742 14.796C88.4424 14.5921 88.5544 14.291 88.7103 13.8929C88.8662 13.4851 88.9782 13.1793 89.0464 12.9754L87.7311 13.0628C87.3609 13.0822 87.0832 13.1016 86.898 13.121C84.774 18.5779 83.0738 23.0687 81.7974 26.5934C80.7841 29.4189 79.9754 31.8901 79.3714 34.0068C78.9524 35.4633 78.6796 36.4197 78.5529 36.876C78.5334 36.9537 78.5042 37.0848 78.4652 37.2693C78.4165 37.4635 78.3775 37.6043 78.3483 37.6917C78.3191 37.7888 78.2752 37.9004 78.2168 38.0267C78.1486 38.1626 78.0609 38.2694 77.9537 38.3471C77.8465 38.4248 77.7199 38.4879 77.5737 38.5364C77.3399 38.6044 77.0914 38.4879 76.8284 38.1869C76.5653 37.8956 76.3997 37.6237 76.3315 37.3712C76.1756 36.8081 76.1609 36.3808 76.2876 36.0896C76.385 35.8759 76.5409 35.4827 76.7553 34.9098C76.8917 34.5505 77.1012 34.0214 77.3837 33.3223C77.6565 32.6232 77.8612 32.094 77.9976 31.7347C78.6016 30.1811 79.2009 28.5499 79.7952 26.841C80.3798 25.132 81.0375 23.1464 81.7682 20.884C82.5087 18.6119 83.0543 16.9612 83.4051 15.932C83.5999 15.3688 83.8825 14.5144 84.2527 13.3686C83.2005 13.4851 82.1433 13.6308 81.0813 13.8056C80.5747 13.8832 79.8244 14.0192 78.8306 14.2134C79.6101 14.3979 80.3847 14.6552 81.1544 14.9853C81.3492 15.0727 81.4856 15.1989 81.5636 15.364C81.5733 15.3834 81.5782 15.4077 81.5782 15.4368C81.588 15.4659 81.5928 15.4999 81.5928 15.5388C81.5928 15.5679 81.5831 15.5922 81.5636 15.6116C81.5441 15.6213 81.5149 15.6213 81.4759 15.6116C80.219 15.2135 78.9183 15.0047 77.5737 14.9853C77.1353 14.9853 76.4874 15.0338 75.6299 15.1309C75.0064 15.2183 74.68 15.262 74.6507 15.262C74.3974 15.2814 74.2074 15.2814 74.0808 15.262C74.0028 15.2426 73.9395 15.2232 73.8908 15.2038C73.8615 15.2329 73.8177 15.2329 73.7592 15.2038C73.6033 15.1358 73.4523 14.9562 73.3062 14.6649C72.8287 14.2376 72.5218 13.8104 72.3854 13.3832C72.288 13.0822 72.3416 12.9123 72.5462 12.8734C72.9067 12.7957 73.2915 12.7326 73.7008 12.6841C74.11 12.6258 74.5728 12.5724 75.0892 12.5239C75.5958 12.4753 75.9856 12.4316 76.2584 12.3928C76.5312 12.3637 77.7442 12.2568 79.8975 12.0724C81.281 11.9655 82.9082 11.8685 84.7789 11.7811C85.6947 9.00406 86.4791 6.8145 87.1319 5.21238C87.2585 4.90167 87.5849 4.91623 88.1111 5.25608C88.5983 5.56679 88.9539 5.93576 89.178 6.36299C89.3046 6.61545 89.3339 6.8145 89.2657 6.96015C89.0805 7.38738 88.8905 7.85345 88.6957 8.35836C88.5008 8.85356 88.2913 9.40216 88.0672 10.0042C87.8529 10.5965 87.6824 11.0625 87.5557 11.4024C87.546 11.4315 87.5314 11.4801 87.5119 11.548C87.4924 11.6063 87.4729 11.6548 87.4534 11.6937C87.9113 11.684 88.5983 11.6791 89.5141 11.6791C90.2351 9.66918 90.9025 7.98939 91.5164 6.63972C91.6625 6.3193 91.9987 6.33386 92.5248 6.68342C93.0022 6.99413 93.3481 7.3631 93.5625 7.79034C93.6989 8.04279 93.7281 8.24184 93.6501 8.38749C93.4845 8.70791 93.3189 9.05261 93.1532 9.42158C92.9973 9.79055 92.822 10.2081 92.6271 10.6741C92.4322 11.1402 92.2861 11.4898 92.1887 11.7228C92.6661 11.7325 93.3578 11.7568 94.264 11.7956C95.2188 11.8442 95.9837 11.8927 96.5585 11.9413C97.1334 11.9898 97.8251 12.1063 98.6338 12.2908C99.4523 12.4656 100.178 12.7035 100.811 13.0045Z" fill="#F1F45B"/>
<path d="M107.666 23.3454C107.715 23.2969 107.783 23.3066 107.87 23.3746C107.968 23.4328 108.046 23.5105 108.104 23.6076C108.163 23.7047 108.177 23.7824 108.148 23.8406C107.875 24.3261 107.568 24.831 107.227 25.3554C106.886 25.8797 106.497 26.4574 106.058 27.0886C105.63 27.7197 105.303 28.21 105.079 28.5596C104.377 29.6277 103.754 30.4919 103.208 31.1521C102.702 31.7444 102.258 32.1522 101.878 32.3756C101.255 32.7251 100.495 32.6183 99.5984 32.0551C99.5789 32.0454 99.5546 32.0357 99.5253 32.026C99.4961 32.0066 99.4766 31.992 99.4669 31.9823C98.8043 31.6133 98.2587 31.0939 97.83 30.4239C97.4013 29.7442 97.1675 29.0305 97.1285 28.2829C97.0213 26.37 97.8641 24.03 99.6569 21.2627C100.368 20.1752 101.036 19.3644 101.659 18.8304C102.01 18.5197 102.322 18.3303 102.594 18.2624C103.374 18.0585 104.183 18.374 105.021 19.2091C105.215 19.3935 105.362 19.5732 105.459 19.748C105.722 19.9616 105.927 20.2092 106.073 20.4908C106.248 20.8015 106.316 21.0442 106.277 21.219C106.258 21.2967 106.195 21.4229 106.087 21.5977C106.078 21.6171 106.058 21.6462 106.029 21.6851C106.009 21.7142 105.995 21.7385 105.985 21.7579C105.975 21.787 105.966 21.8064 105.956 21.8161L105.912 21.8744C105.854 21.9909 105.776 22.122 105.678 22.2677C105.659 22.2968 105.595 22.4279 105.488 22.6609C105.459 22.7192 105.415 22.7968 105.357 22.8939C105.308 22.991 105.269 23.0687 105.24 23.127C104.821 23.9717 104.485 24.5495 104.231 24.8602C103.783 25.4039 103.325 25.6806 102.858 25.6904C102.507 25.7001 102.166 25.6078 101.834 25.4136C101.513 25.2097 101.269 24.9476 101.104 24.6271C100.753 25.2777 100.441 25.9768 100.168 26.7244C99.7787 27.7828 99.5497 28.7587 99.4815 29.652C99.4718 29.8073 99.4718 29.9675 99.4815 30.1326C99.4815 30.1908 99.4912 30.2782 99.5107 30.3948C99.5302 30.453 99.5497 30.4967 99.5692 30.5258C99.6764 30.7006 99.7884 30.8171 99.9053 30.8754C100.071 30.9628 100.251 30.9919 100.446 30.9628C100.631 30.9336 100.846 30.8608 101.089 30.7443C101.148 30.7055 101.206 30.6666 101.265 30.6278C101.323 30.589 101.381 30.5453 101.44 30.4967C101.508 30.4384 101.562 30.3948 101.601 30.3656C101.649 30.3268 101.708 30.2734 101.776 30.2054C101.844 30.1374 101.893 30.0889 101.922 30.0598C101.961 30.0306 102.015 29.9772 102.083 29.8996C102.161 29.8122 102.21 29.7588 102.229 29.7393C102.249 29.7199 102.297 29.6665 102.375 29.5791C102.463 29.482 102.512 29.4286 102.521 29.4189C103.077 28.8266 103.905 27.8362 105.006 26.4477C106.117 25.0495 107.003 24.0154 107.666 23.3454ZM103.223 21.4666C102.638 22.1463 102.083 22.9328 101.557 23.8261C101.557 23.9717 101.562 24.0785 101.571 24.1465C101.62 24.4378 101.654 24.6126 101.674 24.6708V24.6854L101.688 24.7H101.703C101.966 24.7291 102.195 24.7 102.39 24.6126C102.594 24.5058 102.809 24.3164 103.033 24.0445C103.364 23.6367 103.671 23.059 103.954 22.3113C104.041 22.0783 104.134 21.719 104.231 21.2336C104.241 21.1753 104.246 21.0782 104.246 20.9423C104.256 20.8063 104.261 20.7189 104.261 20.6801C104.261 20.6607 104.261 20.6315 104.261 20.5927C104.27 20.5442 104.275 20.5102 104.275 20.4908C104.256 20.5102 104.222 20.5345 104.173 20.5636C104.124 20.5927 104.085 20.617 104.056 20.6364C103.822 20.8112 103.544 21.0879 103.223 21.4666ZM99.9346 30.9919L99.9492 31.0065H99.993C99.9833 30.9968 99.9735 30.9919 99.9638 30.9919C99.954 30.9919 99.9443 30.9919 99.9346 30.9919ZM99.3207 30.4239C99.3012 30.4045 99.2623 30.3753 99.2038 30.3365C99.2233 30.3559 99.2623 30.385 99.3207 30.4239Z" fill="#F1F45B"/>
<path d="M127.542 24.1756C127.747 24.331 127.854 24.4863 127.864 24.6417C127.873 24.7194 127.854 24.7679 127.805 24.7873C127.757 24.7971 127.698 24.7873 127.63 24.7582C127.094 24.564 126.612 24.229 126.183 23.7533C125.754 23.2678 125.408 22.7289 125.145 22.1366C125.048 21.923 124.98 21.7579 124.941 21.6414C124.161 23.593 123.426 25.2825 122.734 26.7099C121.867 28.4965 121.214 29.7491 120.775 30.4676C120.318 31.2152 119.899 31.7784 119.519 32.1571C119.236 32.4387 118.968 32.5892 118.715 32.6086C118.627 32.6183 118.505 32.6037 118.349 32.5649L118.072 32.4775C118.091 32.4872 118.125 32.4969 118.174 32.5066C117.833 32.4192 117.521 32.2008 117.239 31.8512C116.527 31.1715 116.05 30.4773 115.806 29.7685C115.582 29.1179 115.543 28.2683 115.689 27.2197C115.787 26.4914 116.06 25.3262 116.508 23.7241C116.674 23.1415 116.927 22.2725 117.268 21.117C117.619 19.9519 117.877 19.078 118.042 18.4954C118.13 18.175 118.442 18.1798 118.978 18.51C119.484 18.8207 119.874 19.2091 120.147 19.6751C120.303 19.947 120.356 20.1752 120.308 20.3597C120.074 21.1656 119.67 22.4521 119.095 24.2193C118.52 25.9865 118.096 27.3459 117.823 28.2974C117.56 29.1907 117.453 29.8753 117.502 30.3511C117.502 30.3608 117.507 30.419 117.516 30.5258C117.526 30.6326 117.536 30.7103 117.546 30.7589L117.56 30.8171C117.57 30.8463 117.575 30.8657 117.575 30.8754C117.575 30.8851 117.58 30.9045 117.589 30.9336C117.599 30.9531 117.609 30.9725 117.619 30.9919H117.633C117.867 30.9531 118.116 30.8268 118.379 30.6132C118.496 30.5258 118.603 30.4287 118.7 30.3219C118.807 30.2151 118.919 30.0889 119.036 29.9432C119.163 29.7879 119.251 29.6762 119.299 29.6083C119.358 29.5403 119.46 29.4044 119.606 29.2004C119.752 28.9868 119.835 28.8655 119.855 28.8363C120.439 28.0207 121.043 27.0691 121.667 25.9816C122.3 24.8942 122.778 24.0348 123.099 23.4037C123.43 22.7726 123.947 21.7676 124.648 20.3888C124.648 20.3694 124.644 20.3354 124.634 20.2868C124.634 20.2383 124.634 20.2043 124.634 20.1849C124.614 19.3499 124.756 18.743 125.058 18.3643C125.136 18.2672 125.311 18.2721 125.584 18.3789C125.759 18.4468 125.964 18.5876 126.198 18.8013C126.665 19.2285 126.899 19.646 126.899 20.0538C126.899 20.248 126.87 20.5247 126.811 20.884C126.753 21.2433 126.719 21.4812 126.709 21.5977C126.699 21.6656 126.685 21.7676 126.665 21.9035C126.656 22.0298 126.651 22.0977 126.651 22.1074C126.651 22.1171 126.665 22.3356 126.694 22.7628C126.694 22.792 126.694 22.8211 126.694 22.8502C126.704 22.8697 126.714 22.8988 126.724 22.9376C126.733 22.9668 126.738 22.991 126.738 23.0105C126.777 23.0881 126.797 23.1464 126.797 23.1852C126.807 23.2046 126.816 23.2386 126.826 23.2872C126.846 23.326 126.86 23.3551 126.87 23.3746C126.87 23.3843 126.875 23.4037 126.884 23.4328C126.894 23.4522 126.899 23.4668 126.899 23.4765L126.914 23.4911C126.923 23.5008 126.928 23.5105 126.928 23.5202C126.938 23.5396 126.948 23.5591 126.958 23.5785C126.977 23.5979 126.992 23.6173 127.001 23.6367L127.016 23.6804C127.035 23.6998 127.05 23.7144 127.06 23.7241C127.109 23.7824 127.138 23.8164 127.148 23.8261C127.216 23.9038 127.347 24.0203 127.542 24.1756Z" fill="#F1F45B"/>
<path d="M135.683 23.2581C135.731 23.2095 135.8 23.2192 135.887 23.2872C135.975 23.3454 136.048 23.4231 136.107 23.5202C136.165 23.6173 136.18 23.695 136.15 23.7533C135.429 24.899 134.148 26.6759 132.307 29.0839C131.313 30.3948 130.65 31.2298 130.319 31.5891C129.822 32.1619 129.427 32.4872 129.135 32.5649C128.677 32.7008 128.146 32.4532 127.542 31.8221L127.323 31.6036C126.592 30.9045 126.105 30.152 125.861 29.3461C125.637 28.5887 125.618 27.6906 125.803 26.6516C125.939 25.8943 126.314 24.7097 126.928 23.0978C126.977 22.9716 127.62 21.4229 128.857 18.4517C128.994 18.1216 129.335 18.1313 129.881 18.4808C130.377 18.8013 130.753 19.1848 131.006 19.6314C131.152 19.913 131.191 20.1363 131.123 20.3014C130.908 20.7966 130.567 21.554 130.1 22.5735C129.642 23.593 129.242 24.5058 128.901 25.3117C128.57 26.1176 128.283 26.8944 128.039 27.642C127.766 28.4965 127.62 29.1616 127.601 29.6374C127.601 29.7248 127.605 29.7879 127.615 29.8267C127.683 30.254 127.873 30.6472 128.185 31.0065C128.195 30.9968 128.21 30.9919 128.229 30.9919C128.258 30.9919 128.278 30.9871 128.288 30.9773L128.317 30.9628C128.336 30.9531 128.356 30.9434 128.375 30.9336C128.395 30.9239 128.419 30.9142 128.448 30.9045C128.478 30.8851 128.502 30.8657 128.521 30.8463C128.56 30.8171 128.663 30.7346 128.828 30.5987C129.121 30.3365 129.379 30.0889 129.603 29.8559C129.866 29.584 130.251 29.1665 130.757 28.6033C131.264 28.0304 131.649 27.608 131.912 27.3362C132.185 27.0449 132.75 26.4137 133.607 25.4428C134.465 24.4718 135.157 23.7435 135.683 23.2581ZM130.947 17.9128C130.032 17.0972 129.598 16.267 129.647 15.4222C129.666 15.0727 129.827 14.6163 130.129 14.0532C130.324 13.6745 130.436 13.4026 130.465 13.2375C130.465 13.2084 130.47 13.1744 130.48 13.1356C130.49 13.087 130.494 13.053 130.494 13.0336C130.494 13.0239 130.494 13.0094 130.494 12.9899C130.504 12.9608 130.509 12.9414 130.509 12.9317V12.9025C130.509 12.8831 130.504 12.854 130.494 12.8152V12.7569C130.494 12.7181 130.494 12.6647 130.494 12.5967C130.504 12.5287 130.509 12.4802 130.509 12.451C130.509 12.3637 130.543 12.3102 130.611 12.2908C130.689 12.2714 130.767 12.2714 130.845 12.2908C130.923 12.3005 130.986 12.32 131.035 12.3491C131.357 12.485 131.644 12.7229 131.897 13.0628C132.394 13.7327 132.599 14.3784 132.511 14.9999C132.472 15.2329 132.35 15.597 132.146 16.0922C131.902 16.6845 131.766 17.0486 131.737 17.1846C131.727 17.2428 131.703 17.3254 131.664 17.4322C131.625 17.5293 131.6 17.5924 131.59 17.6215C131.561 17.7186 131.547 17.772 131.547 17.7817V18.0293C131.508 18.1361 131.415 18.1604 131.269 18.1021C131.123 18.0439 131.016 17.9808 130.947 17.9128Z" fill="#F1F45B"/>
<path d="M142.712 32.259L142.654 32.2153L142.669 32.2299C142.678 32.2396 142.683 32.2445 142.683 32.2445C142.703 32.2445 142.712 32.2493 142.712 32.259ZM149.947 23.36C149.976 23.3212 150.025 23.326 150.093 23.3746C150.171 23.4231 150.234 23.4911 150.283 23.5785C150.332 23.6562 150.346 23.7144 150.327 23.7533C149.138 25.7535 147.954 27.5595 146.775 29.1713C145.86 30.4239 145.241 31.2249 144.919 31.5745C144.51 32.0211 144.184 32.3173 143.94 32.4629C143.677 32.6086 143.394 32.6183 143.092 32.4921C142.985 32.4435 142.859 32.3658 142.712 32.259L142.859 32.3319C142.888 32.3513 142.937 32.3658 143.005 32.3756C142.888 32.3367 142.781 32.293 142.683 32.2445H142.698C142.688 32.2445 142.683 32.2445 142.683 32.2445C142.683 32.2348 142.678 32.2299 142.669 32.2299H142.654C142.41 32.094 142.191 31.8901 141.996 31.6182C141.762 31.3657 141.597 31.1715 141.499 31.0356C141.363 30.8414 141.266 30.6909 141.207 30.5841L141.061 30.2637C141.061 30.2831 141.071 30.3074 141.09 30.3365C140.808 29.7539 140.642 29.2247 140.593 28.7489C140.457 27.5352 140.627 26.103 141.105 24.4524C141.105 24.4426 141.1 24.4232 141.09 24.3941C141.08 24.365 141.076 24.3407 141.076 24.3213C140.959 24.5349 140.817 24.7631 140.652 25.0058C140.496 25.2388 140.32 25.4913 140.126 25.7632C139.931 26.0351 139.785 26.2438 139.687 26.3895C139.483 26.7002 139.185 27.142 138.796 27.7148C138.416 28.2877 138.182 28.6373 138.094 28.7635C137.977 28.9383 137.782 29.2296 137.51 29.6374C137.246 30.0452 137.013 30.3996 136.808 30.7006C136.603 31.0016 136.399 31.2832 136.194 31.5454C136.038 31.759 135.887 31.924 135.741 32.0406C135.722 32.0503 135.692 32.0745 135.653 32.1134C135.624 32.1425 135.6 32.1619 135.58 32.1716C135.561 32.1814 135.532 32.1959 135.493 32.2153C135.454 32.2251 135.429 32.2348 135.42 32.2445L135.434 32.259H135.361C134.962 32.2687 134.587 32.094 134.236 31.7347C133.885 31.3657 133.637 30.9725 133.49 30.555C133.374 30.2151 133.3 29.8656 133.271 29.5063C133.232 29.1373 133.252 28.7489 133.33 28.3411C133.408 27.9333 133.486 27.5741 133.564 27.2633C133.632 26.9526 133.758 26.5691 133.943 26.1127C134.129 25.6564 134.27 25.3214 134.367 25.1078C134.465 24.8844 134.621 24.5495 134.835 24.1028C135.41 22.8794 136.019 21.7627 136.662 20.7529C136.681 20.7238 136.735 20.6413 136.823 20.5053C136.91 20.3694 136.969 20.282 136.998 20.2432C137.027 20.1946 137.081 20.1121 137.159 19.9956C137.246 19.8693 137.31 19.7819 137.349 19.7334C137.388 19.6751 137.446 19.5926 137.524 19.4858C137.612 19.379 137.685 19.2965 137.743 19.2382C137.802 19.1702 137.87 19.0974 137.948 19.0197C138.026 18.9323 138.104 18.8595 138.182 18.8013C138.26 18.7333 138.338 18.6702 138.416 18.6119C138.679 18.4274 138.952 18.3352 139.234 18.3352C139.517 18.3352 139.785 18.4129 140.038 18.5682C140.291 18.7139 140.52 18.8935 140.725 19.1071C140.939 19.3207 141.124 19.5586 141.28 19.8208C141.631 20.3937 141.831 21.1656 141.879 22.1366C141.957 21.923 142.074 21.6122 142.23 21.2044C142.961 19.2722 144.072 16.466 145.562 12.786C147.063 9.10601 147.901 7.05239 148.076 6.62516C148.203 6.30474 148.529 6.3193 149.055 6.66885C149.542 6.98928 149.898 7.36796 150.122 7.8049C150.249 8.05735 150.288 8.26126 150.239 8.41662C149.723 9.7857 148.554 12.786 146.732 17.4176C146.507 17.9808 146.093 18.9857 145.489 20.4325C144.885 21.8793 144.383 23.127 143.984 24.1756C143.594 25.2243 143.253 26.2535 142.961 27.2633C142.805 27.7877 142.678 28.2877 142.581 28.7635C142.552 28.9189 142.518 29.1519 142.479 29.4626C142.459 29.5791 142.449 29.6665 142.449 29.7248C142.449 29.7733 142.449 29.8122 142.449 29.8413C142.449 29.8607 142.449 29.8801 142.449 29.8996C142.449 29.9093 142.449 29.919 142.449 29.9287C142.449 30.2297 142.488 30.5355 142.566 30.8463C142.586 30.8851 142.605 30.9336 142.625 30.9919L142.712 30.9773C142.761 30.9676 142.795 30.9579 142.815 30.9482L142.873 30.9336H142.859C142.868 30.9239 142.888 30.9142 142.917 30.9045C142.946 30.8851 142.966 30.8705 142.976 30.8608L143.239 30.686C143.414 30.5598 143.662 30.3462 143.984 30.0452C144.637 29.4335 145.285 28.7732 145.928 28.0644C146.571 27.3459 147.311 26.4866 148.149 25.4865C148.987 24.4766 149.586 23.7678 149.947 23.36ZM140.842 20.4179C140.822 20.4276 140.808 20.4325 140.798 20.4325C140.827 20.4325 140.842 20.4276 140.842 20.4179ZM140.023 19.9227H140.009C140.009 19.913 140.014 19.913 140.023 19.9227ZM139.994 19.9082C139.975 19.9082 139.975 19.9082 139.994 19.9082V19.9082ZM134.455 30.8026C134.348 30.7637 134.294 30.754 134.294 30.7734C134.294 30.7734 134.309 30.7831 134.338 30.8026C134.338 30.7929 134.358 30.7929 134.397 30.8026H134.426L134.411 30.8171H134.426C134.436 30.8171 134.44 30.8171 134.44 30.8171C134.44 30.8074 134.445 30.8026 134.455 30.8026ZM135.244 31.7347C135.264 31.7153 135.269 31.691 135.259 31.6619L135.244 31.7347ZM139.263 25.0204C139.341 24.9233 139.458 24.7631 139.614 24.5397C139.78 24.3067 139.911 24.1222 140.009 23.9863C140.106 23.8406 140.233 23.6804 140.389 23.5056C140.545 23.3212 140.696 23.1658 140.842 23.0396C140.764 22.6318 140.627 22.0201 140.433 21.2044C140.403 21.0782 140.359 20.9374 140.301 20.7821L140.286 20.7966C140.014 21.0782 139.755 21.3889 139.512 21.7288C138.44 23.2144 137.456 25.0883 136.56 27.3507C136.384 27.8071 136.102 28.5936 135.712 29.7102C135.77 29.652 135.809 29.6083 135.829 29.5791C136.277 29.0451 136.944 28.1761 137.831 26.972C137.997 26.7487 138.235 26.4234 138.547 25.9962C138.869 25.5593 139.107 25.234 139.263 25.0204Z" fill="#F1F45B"/>
<path d="M158.38 23.3454C158.428 23.2969 158.497 23.3066 158.584 23.3746C158.682 23.4328 158.76 23.5105 158.818 23.6076C158.877 23.7047 158.891 23.7824 158.862 23.8406C158.589 24.3261 158.282 24.831 157.941 25.3554C157.6 25.8797 157.21 26.4574 156.772 27.0886C156.343 27.7197 156.017 28.21 155.793 28.5596C155.091 29.6277 154.468 30.4919 153.922 31.1521C153.415 31.7444 152.972 32.1522 152.592 32.3756C151.969 32.7251 151.209 32.6183 150.312 32.0551C150.293 32.0454 150.268 32.0357 150.239 32.026C150.21 32.0066 150.19 31.992 150.181 31.9823C149.518 31.6133 148.973 31.0939 148.544 30.4239C148.115 29.7442 147.881 29.0305 147.842 28.2829C147.735 26.37 148.578 24.03 150.371 21.2627C151.082 20.1752 151.749 19.3644 152.373 18.8304C152.724 18.5197 153.035 18.3303 153.308 18.2624C154.088 18.0585 154.896 18.374 155.734 19.2091C155.929 19.3935 156.075 19.5732 156.173 19.748C156.436 19.9616 156.64 20.2092 156.787 20.4908C156.962 20.8015 157.03 21.0442 156.991 21.219C156.972 21.2967 156.908 21.4229 156.801 21.5977C156.791 21.6171 156.772 21.6462 156.743 21.6851C156.723 21.7142 156.709 21.7385 156.699 21.7579C156.689 21.787 156.679 21.8064 156.67 21.8161L156.626 21.8744C156.567 21.9909 156.489 22.122 156.392 22.2677C156.373 22.2968 156.309 22.4279 156.202 22.6609C156.173 22.7192 156.129 22.7968 156.07 22.8939C156.022 22.991 155.983 23.0687 155.954 23.127C155.535 23.9717 155.198 24.5495 154.945 24.8602C154.497 25.4039 154.039 25.6806 153.571 25.6904C153.221 25.7001 152.88 25.6078 152.548 25.4136C152.227 25.2097 151.983 24.9476 151.818 24.6271C151.467 25.2777 151.155 25.9768 150.882 26.7244C150.492 27.7828 150.263 28.7587 150.195 29.652C150.186 29.8073 150.186 29.9675 150.195 30.1326C150.195 30.1908 150.205 30.2782 150.225 30.3948C150.244 30.453 150.263 30.4967 150.283 30.5258C150.39 30.7006 150.502 30.8171 150.619 30.8754C150.785 30.9628 150.965 30.9919 151.16 30.9628C151.345 30.9336 151.559 30.8608 151.803 30.7443C151.861 30.7055 151.92 30.6666 151.978 30.6278C152.037 30.589 152.095 30.5453 152.154 30.4967C152.222 30.4384 152.275 30.3948 152.314 30.3656C152.363 30.3268 152.422 30.2734 152.49 30.2054C152.558 30.1374 152.607 30.0889 152.636 30.0598C152.675 30.0306 152.729 29.9772 152.797 29.8996C152.875 29.8122 152.923 29.7588 152.943 29.7393C152.962 29.7199 153.011 29.6665 153.089 29.5791C153.177 29.482 153.225 29.4286 153.235 29.4189C153.791 28.8266 154.619 27.8362 155.72 26.4477C156.83 25.0495 157.717 24.0154 158.38 23.3454ZM153.937 21.4666C153.352 22.1463 152.797 22.9328 152.271 23.8261C152.271 23.9717 152.275 24.0785 152.285 24.1465C152.334 24.4378 152.368 24.6126 152.388 24.6708V24.6854L152.402 24.7H152.417C152.68 24.7291 152.909 24.7 153.104 24.6126C153.308 24.5058 153.523 24.3164 153.747 24.0445C154.078 23.6367 154.385 23.059 154.667 22.3113C154.755 22.0783 154.848 21.719 154.945 21.2336C154.955 21.1753 154.96 21.0782 154.96 20.9423C154.969 20.8063 154.974 20.7189 154.974 20.6801C154.974 20.6607 154.974 20.6315 154.974 20.5927C154.984 20.5442 154.989 20.5102 154.989 20.4908C154.969 20.5102 154.935 20.5345 154.887 20.5636C154.838 20.5927 154.799 20.617 154.77 20.6364C154.536 20.8112 154.258 21.0879 153.937 21.4666ZM150.648 30.9919L150.663 31.0065H150.707C150.697 30.9968 150.687 30.9919 150.678 30.9919C150.668 30.9919 150.658 30.9919 150.648 30.9919ZM150.035 30.4239C150.015 30.4045 149.976 30.3753 149.918 30.3365C149.937 30.3559 149.976 30.385 150.035 30.4239Z" fill="#F1F45B"/>
<path d="M165.892 19.8936C166.057 20.3208 166.033 20.85 165.819 21.4812C165.643 21.9958 165.317 22.8017 164.839 23.8989C165.346 24.5495 165.531 25.4865 165.395 26.7099C165.229 28.2246 164.703 29.6228 163.816 30.9045C163.349 31.5745 162.788 32.0697 162.136 32.3901C161.493 32.7105 160.825 32.7202 160.133 32.4192L160.046 32.3756C159.929 32.3367 159.792 32.259 159.637 32.1425H159.622C159.602 32.1231 159.573 32.1037 159.534 32.0843C159.505 32.0551 159.481 32.0357 159.461 32.026C159.032 31.7153 158.623 31.2783 158.233 30.7152C157.805 30.1229 157.488 29.5403 157.284 28.9674C157.284 28.9577 157.279 28.9431 157.269 28.9237C157.259 28.9043 157.254 28.88 157.254 28.8509C156.933 27.8993 156.816 26.9429 156.904 25.9816C157.001 24.9621 157.279 23.9377 157.737 22.9085C158.195 21.8793 158.823 20.9471 159.622 20.1121C160.431 19.2673 161.312 18.6896 162.267 18.3789C162.988 18.1458 163.704 18.1653 164.416 18.4371C165.127 18.709 165.619 19.1945 165.892 19.8936ZM163.919 26.2729C164.045 25.7001 164.109 25.166 164.109 24.6708C164.109 24.5058 164.104 24.3795 164.094 24.2921L164.021 24.2193C164.011 24.229 163.997 24.2339 163.977 24.2339C163.958 24.2339 163.943 24.2387 163.933 24.2484L163.67 24.3795C163.69 24.3795 163.714 24.3698 163.743 24.3504C163.773 24.331 163.792 24.3213 163.802 24.3213C163.5 24.4863 163.242 24.7388 163.027 25.0786C163.008 25.1175 162.959 25.1806 162.881 25.268C162.813 25.3554 162.769 25.4185 162.75 25.4573C162.691 25.5447 162.642 25.6952 162.603 25.9088C162.525 26.2001 162.501 26.506 162.53 26.8264C162.54 26.8847 162.555 26.9623 162.574 27.0594C162.584 27.0886 162.589 27.108 162.589 27.1177C162.608 27.1565 162.618 27.1905 162.618 27.2197L162.706 27.4818C162.706 27.4915 162.706 27.5012 162.706 27.5109L162.72 27.5255C162.73 27.5352 162.74 27.5546 162.75 27.5838C162.759 27.6129 162.764 27.6323 162.764 27.642C162.842 27.8265 162.803 27.9236 162.647 27.9333C162.491 27.943 162.316 27.8411 162.121 27.6275C161.722 27.1905 161.434 26.6808 161.259 26.0982C161.083 25.5156 161.054 24.9378 161.171 24.365C161.239 23.9863 161.298 23.7484 161.346 23.6513C161.473 23.3988 161.619 23.1755 161.785 22.9813C162.019 22.7094 162.199 22.5347 162.326 22.457C162.667 22.2725 162.993 22.2094 163.305 22.2677C163.607 22.3356 163.919 22.5347 164.24 22.8648C164.503 22.0298 164.635 21.2821 164.635 20.6218V20.214C164.596 20.2237 164.542 20.2383 164.474 20.2577C164.406 20.2674 164.357 20.2771 164.328 20.2868C163.87 20.4131 163.388 20.6607 162.881 21.0296C161.868 21.7579 161.015 22.7677 160.323 24.0591C159.612 25.3602 159.222 26.6808 159.154 28.0207C159.125 28.6324 159.183 29.1956 159.33 29.7102C159.378 29.8656 159.447 30.0355 159.534 30.22V30.2345L159.549 30.2491V30.2637C159.559 30.2831 159.573 30.3122 159.593 30.3511C159.612 30.3802 159.627 30.4045 159.637 30.4239C159.637 30.4336 159.637 30.4384 159.637 30.4384H159.651L159.783 30.6132C159.676 30.4773 159.685 30.4773 159.812 30.6132C159.822 30.6229 159.841 30.6424 159.87 30.6715L159.958 30.7734C160.055 30.8705 160.158 30.9919 160.265 31.1376C161.054 31.021 161.814 30.4384 162.545 29.3898C163.217 28.4285 163.675 27.3896 163.919 26.2729Z" fill="#F1F45B"/>
</svg>
