<svg width="122" height="130" viewBox="0 0 122 130" fill="none" xmlns="http://www.w3.org/2000/svg">
<g filter="url(#filter0_d_30_329)">
<path d="M50.1648 60.9995L28.4922 37.7739C28.4922 37.7739 50.1648 41.6448 50.1648 60.9995Z" fill="#679C20"/>
<path d="M28.4929 30.0317L6.82031 53.2573C6.82031 33.9027 28.4929 30.0317 28.4929 30.0317Z" fill="#679C20"/>
<path d="M28.4929 51.3218L6.82031 74.5473C6.82031 55.1927 28.4929 51.3218 28.4929 51.3218Z" fill="#679C20"/>
<path d="M50.1648 82.2895L28.4922 59.064C28.4922 59.064 50.1648 62.9349 50.1648 82.2895Z" fill="#679C20"/>
<path d="M28.4922 37.7739L50.1648 60.9995C50.1648 60.9995 28.4922 57.1285 28.4922 37.7739Z" fill="#345C00"/>
<path d="M6.82031 53.2573L28.4929 30.0317C28.4929 49.3864 6.82031 53.2573 6.82031 53.2573Z" fill="#345C00"/>
<path d="M6.82031 74.5473L28.4929 51.3218C28.4929 70.6764 6.82031 74.5473 6.82031 74.5473Z" fill="#345C00"/>
<path d="M28.4922 59.064L50.1648 82.2895C50.1648 82.2895 28.4922 78.4186 28.4922 59.064Z" fill="#345C00"/>
<path d="M57.1723 107.044C57.3186 107.815 57.3912 108.599 57.3891 109.386C57.3891 115.792 52.5308 120.998 44.5481 120.998C41.7174 120.984 38.9177 120.366 36.3125 119.179C38.4893 118.086 40.4748 116.6 42.1822 114.786C47.4016 109.192 47.7448 102.476 44.2952 97.9665L44.5481 97.7729C51.5375 97.7729 56.1248 101.76 57.1723 107.044Z" fill="#A7E340"/>
<path d="M36.3152 119.179C31.5292 121.579 26.3278 121.792 23.4201 118.695C23.0109 118.262 22.664 117.767 22.3906 117.224C25.2027 113.399 26.7183 108.662 26.689 103.792C26.694 102.359 26.5425 100.93 26.2375 99.5343C26.5084 99.2052 26.7793 98.8956 27.0683 98.5859C29.3302 95.9635 32.405 94.3124 35.7193 93.9408C36.9054 93.834 38.0998 93.9653 39.241 94.3279C40.887 94.8279 42.3817 95.7823 43.5756 97.0956C43.84 97.3624 44.0818 97.6538 44.298 97.9665C47.7475 102.476 47.4044 109.192 42.1849 114.786C40.4775 116.6 38.4921 118.086 36.3152 119.179Z" fill="#CDF55F"/>
<path d="M26.2347 99.5344C26.5397 100.93 26.6912 102.359 26.6862 103.792C26.7155 108.662 25.1999 113.399 22.3878 117.224C21.623 118.329 20.6409 119.239 19.511 119.892C18.3812 120.544 17.1313 120.922 15.85 120.999C9.87194 120.999 5.01367 112.347 5.01367 103.792C5.01367 95.2376 9.87194 90.0312 15.85 90.0312C18.3454 90.0614 20.7517 91.0291 22.6495 92.7658C24.5473 94.5025 25.8161 96.8979 26.2347 99.5344Z" fill="#A7E340"/>
<path d="M75.4492 1H89.8976V12.6128H75.4492V1Z" fill="#9A6948"/>
<path d="M75.4492 20.3545H89.8976V31.9673H75.4492V20.3545Z" fill="#9A6948"/>
<path d="M89.8977 20.3546H75.4493V31.9674H89.8977V20.3546ZM95.3158 20.3546V28.0965C98.5117 26.1391 102.283 25.5583 105.864 26.4721C109.445 27.386 112.567 29.7259 114.596 33.0168C116.626 36.3078 117.411 40.3031 116.792 44.1917C116.173 48.0802 114.196 51.5707 111.263 53.9543C112.655 57.4005 113.374 61.1153 113.376 64.8703V65.7412C113.376 70.3048 112.872 74.8523 111.877 79.2895L103.877 115.057C103.496 116.748 102.597 118.253 101.323 119.33C100.049 120.408 98.474 120.995 96.851 120.999H68.496C66.873 120.995 65.2981 120.408 64.024 119.33C62.7499 118.253 61.8507 116.748 61.4705 115.057L59.538 106.444L53.4697 79.2895C52.4746 74.8523 51.9715 70.3048 51.9707 65.7412V64.8703C51.9704 63.6794 52.0428 62.4898 52.1874 61.309C52.9086 56.0484 54.9495 51.0964 58.0923 46.9819C61.235 42.8674 65.3615 39.745 70.0312 37.948V26.161L62.3735 19.5998C61.7817 19.0911 61.3518 18.3979 61.1434 17.6161C60.935 16.8342 60.9583 16.0023 61.2101 15.2353C61.4619 14.4683 61.9298 13.804 62.5491 13.3342C63.1683 12.8644 63.9085 12.6123 64.6672 12.6128H97.1219C98.0799 12.6128 98.9986 13.0206 99.676 13.7466C100.353 14.4725 100.734 15.4571 100.734 16.4837C100.734 17.5103 100.353 18.4949 99.676 19.2209C98.9986 19.9468 98.0799 20.3546 97.1219 20.3546H95.3158ZM95.3158 35.8964V37.948C100.638 40.0848 105.247 43.8714 108.554 48.8253C109.497 47.9265 110.253 46.8253 110.774 45.5931C111.294 44.3609 111.567 43.0253 111.575 41.6728C111.582 40.3204 111.325 38.9813 110.818 37.7424C110.312 36.5036 109.568 35.3926 108.635 34.4816C107.703 33.5706 106.602 32.8799 105.404 32.4543C104.206 32.0287 102.938 31.8777 101.682 32.0111C100.426 32.1445 99.2101 32.5593 98.1134 33.2287C97.0168 33.898 96.0636 34.8069 95.3158 35.8964ZM106.152 67.5412V66.7864C106.092 61.8363 104.695 57.0108 102.131 52.8928C99.5673 48.7748 95.9457 45.5404 91.7037 43.5802H73.6433C69.4013 45.5404 65.7797 48.7748 63.2158 52.8928C60.6519 57.0108 59.2554 61.8363 59.1949 66.7864V67.5412C59.1933 71.4698 59.5746 75.3877 60.3327 79.2314L66.4733 110.083C66.6849 111.464 67.3333 112.726 68.3099 113.657C69.2866 114.587 70.5319 115.129 71.8372 115.192H93.5098C94.8151 115.129 96.0605 114.587 97.0371 113.657C98.0137 112.726 98.6621 111.464 98.8738 110.083L105.014 79.2314C105.772 75.3877 106.154 71.4698 106.152 67.5412Z" fill="#EDE9E1"/>
<path d="M102.541 31.9673C104.368 31.9616 106.154 32.552 107.662 33.6602C109.169 34.7683 110.325 36.3417 110.978 38.1713C111.631 40.0009 111.749 42 111.316 43.903C110.883 45.806 109.92 47.5228 108.555 48.8252C105.248 43.8713 100.639 40.0847 95.3164 37.9479V35.8963C96.1485 34.6799 97.236 33.6904 98.491 33.0079C99.746 32.3254 101.133 31.9689 102.541 31.9673Z" fill="#F6FAFD"/>
<path d="M106.153 66.7863V67.5411C106.154 71.4697 105.773 75.3876 105.015 79.2313L98.8742 110.083C98.6626 111.464 98.0141 112.726 97.0375 113.656C96.0609 114.587 94.8155 115.129 93.5102 115.192H71.8376C70.5323 115.129 69.287 114.587 68.3104 113.656C67.3338 112.726 66.6853 111.464 66.4737 110.083L60.3331 79.2313C59.575 75.3876 59.1937 71.4697 59.1953 67.5411V66.7863C59.2558 61.8362 60.6523 57.0107 63.2162 52.8927C65.7801 48.7747 69.4018 45.5403 73.6437 43.5801H91.7042C95.9461 45.5403 99.5677 48.7747 102.132 52.8927C104.696 57.0107 106.092 61.8362 106.153 66.7863Z" fill="#FFDF64"/>
<path d="M47.6003 114.786C52.4766 109.56 53.0907 103.367 50.3527 98.9151C48.5015 98.1487 46.5326 97.7614 44.5481 97.7732L44.2952 97.9668C47.7448 102.476 47.4016 109.192 42.1822 114.786C40.4748 116.6 38.4893 118.086 36.3125 119.179C37.2478 119.594 38.2092 119.937 39.1895 120.207C40.0577 119.928 40.9068 119.585 41.7306 119.179C43.9075 118.086 45.8929 116.6 47.6003 114.786Z" fill="#78B22A"/>
<path d="M19.4634 113.256C13.4854 113.256 8.62709 104.605 8.62709 96.0501C8.62487 95.0234 8.69976 93.9982 8.85104 92.9844C7.55336 94.407 6.54304 96.1008 5.88306 97.9602C5.22308 99.8196 4.92758 101.805 5.01499 103.792C5.01499 112.347 9.87326 120.998 15.8513 120.998C17.1326 120.921 18.3825 120.544 19.5124 119.891C20.6422 119.239 21.6243 118.328 22.3892 117.224C24.1011 114.964 25.3281 112.327 25.9832 109.502C25.2192 110.601 24.2393 111.507 23.1127 112.156C21.9861 112.804 20.7403 113.18 19.4634 113.256Z" fill="#78B22A"/>
<path d="M94.3466 109.386H71.0053C69.8019 109.368 68.6318 108.959 67.6499 108.213C66.668 107.467 65.9203 106.42 65.5059 105.209L66.4757 110.082C66.6873 111.464 67.3358 112.726 68.3124 113.656C69.289 114.587 70.5343 115.129 71.8397 115.192H93.5122C94.8176 115.129 96.0629 114.587 97.0395 113.656C98.0161 112.726 98.6646 111.464 98.8762 110.082L99.846 105.209C99.4316 106.42 98.684 107.467 97.702 108.213C96.7201 108.959 95.5501 109.368 94.3466 109.386Z" fill="#FFCE54"/>
<path d="M82.6734 1V4.87092C82.6734 5.89756 83.054 6.88214 83.7314 7.60808C84.4088 8.33402 85.3275 8.74185 86.2855 8.74185H89.8976V12.6128H75.4492V1H82.6734Z" fill="#714226"/>
<path d="M82.6734 31.9673V28.0963C82.6734 27.0697 83.054 26.0851 83.7314 25.3592C84.4088 24.6332 85.3275 24.2254 86.2855 24.2254H89.8976V20.3545H75.4492V31.9673H82.6734Z" fill="#714226"/>
<path d="M97.1227 16.4838H64.6138C63.9823 16.4819 63.3624 16.3021 62.8162 15.9624C62.27 15.6227 61.8168 15.135 61.502 14.5483C61.1786 15.1343 61.0061 15.8017 61.002 16.4825C60.998 17.1633 61.1625 17.833 61.4789 18.4234C61.7953 19.0137 62.2522 19.5036 62.8029 19.8429C63.3537 20.1822 63.9786 20.3588 64.6138 20.3547H97.1227C97.7579 20.3588 98.3828 20.1822 98.9336 19.8429C99.4843 19.5036 99.9412 19.0137 100.258 18.4234C100.574 17.833 100.739 17.1633 100.734 16.4825C100.73 15.8017 100.558 15.1343 100.235 14.5483C99.9197 15.135 99.4665 15.6227 98.9203 15.9624C98.3741 16.3021 97.7542 16.4819 97.1227 16.4838Z" fill="#CDC3B4"/>
<path d="M89.8987 20.3545V31.9673H75.4503V20.3545H63.2559L70.0321 26.1609C70.9901 26.1609 71.9089 26.5687 72.5863 27.2946C73.2637 28.0206 73.6442 29.0052 73.6442 30.0318V33.9027C73.6442 34.9294 74.0248 35.9139 74.7022 36.6399C75.3796 37.3658 76.2983 37.7736 77.2563 37.7736H88.0926C89.0506 37.7736 89.9694 37.3658 90.6468 36.6399C91.3242 35.9139 91.7047 34.9294 91.7047 33.9027V30.0318C91.7047 29.0052 92.0853 28.0206 92.7627 27.2946C93.4401 26.5687 94.3588 26.1609 95.3168 26.1609V20.3545H89.8987Z" fill="#CDC3B4"/>
<path d="M75.4503 20.3545H63.2559L67.7728 24.2254H75.4503V20.3545Z" fill="#AFA59B"/>
<path d="M95.3166 22.29V20.3545H89.8984V24.2254H95.3166V22.29Z" fill="#AFA59B"/>
<path d="M102.278 28.2642C101.993 28.8377 101.847 29.4789 101.854 30.1286C101.861 30.7784 102.02 31.4159 102.317 31.9822C102.393 31.9822 102.466 31.9667 102.541 31.9667C104.936 31.9667 107.233 32.9863 108.927 34.8011C110.62 36.616 111.572 39.0774 111.572 41.644C111.572 42.6636 111.419 43.6766 111.118 44.644C111.646 45.1072 112.286 45.4 112.963 45.488C113.64 45.576 114.327 45.4557 114.943 45.1411C115.558 44.8265 116.078 44.3306 116.44 43.7113C116.803 43.0921 116.993 42.375 116.99 41.644C116.989 37.9269 115.739 34.3343 113.469 31.5239C111.199 28.7136 108.06 26.8734 104.627 26.3403C104.131 26.4635 103.664 26.6988 103.259 27.0305C102.854 27.3623 102.519 27.7829 102.278 28.2642Z" fill="#F7F3EB"/>
<path d="M105.553 61.2591C105.951 63.0708 106.153 64.9256 106.155 66.7868V67.5416C106.156 71.4702 105.775 75.3882 105.017 79.2318L99.5879 106.504C100.529 107.169 101.642 107.499 102.768 107.445C103.894 107.392 104.976 106.959 105.858 106.208L111.88 79.2899C112.875 74.8527 113.378 70.3052 113.379 65.7417V64.8707C113.369 63.3083 113.234 61.7496 112.974 60.212C111.855 59.3118 110.452 58.9173 109.064 59.113C107.677 59.3088 106.417 60.0792 105.553 61.2591Z" fill="#F7F3EB"/>
<path d="M65.7617 106.504L60.3327 79.2317C59.5746 75.3881 59.1933 71.4701 59.1949 67.5415V66.7867C59.1966 64.9255 59.3984 63.0707 59.7963 61.259C58.9303 60.0752 57.6647 59.3038 56.2726 59.1112C54.8805 58.9185 53.4736 59.3202 52.3554 60.2294C52.2976 60.5894 52.2308 60.9455 52.1874 61.3094C52.0428 62.4901 51.9704 63.6797 51.9707 64.8706V65.7416C51.9715 70.3051 52.4746 74.8526 53.4697 79.2898L59.4839 106.193C60.3664 106.947 61.4491 107.383 62.5767 107.437C63.7044 107.492 64.8193 107.162 65.7617 106.497V106.504Z" fill="#F7F3EB"/>
<path d="M91.7048 43.5801H73.6444C70.1501 45.2078 67.0667 47.7021 64.6484 50.8574C64.986 61.5456 69.0674 71.7056 76.08 79.3143C83.0926 86.923 92.5219 91.4223 102.491 91.9163L105.019 79.2313C105.776 75.3875 106.156 71.4695 106.153 67.5411V66.7863C106.093 61.8362 104.696 57.0107 102.132 52.8927C99.5684 48.7747 95.9468 45.5403 91.7048 43.5801Z" fill="#FFF978"/>
<path d="M46.3496 102.571C45.4719 108.682 41.8598 113.257 37.5253 113.257C32.1704 113.257 27.7401 107.025 26.8588 98.8242C26.6493 99.0565 26.4398 99.2887 26.2375 99.5345C26.5425 100.93 26.694 102.359 26.689 103.793C26.7183 108.663 25.2027 113.399 22.3906 117.225C22.664 117.767 23.0109 118.263 23.4201 118.696C26.3278 121.792 31.5292 121.579 36.3152 119.179C38.4921 118.086 40.4775 116.6 42.1849 114.786C43.7793 113.288 44.9964 111.384 45.7242 109.249C46.452 107.115 46.6671 104.818 46.3496 102.571Z" fill="#A7E340"/>
<path d="M84.4802 109.386H73.6439C72.6465 109.386 71.8379 110.252 71.8379 111.321C71.8379 112.39 72.6465 113.257 73.6439 113.257H84.4802C85.4777 113.257 86.2863 112.39 86.2863 111.321C86.2863 110.252 85.4777 109.386 84.4802 109.386Z" fill="#FFB844"/>
<path d="M91.7454 109.445H89.8563C88.8818 109.445 88.0918 110.291 88.0918 111.335C88.0918 112.379 88.8818 113.225 89.8563 113.225H91.7454C92.7199 113.225 93.5099 112.379 93.5099 111.335C93.5099 110.291 92.7199 109.445 91.7454 109.445Z" fill="#FFB844"/>
<path d="M43.4591 104.211C44.6172 102.97 44.249 100.563 42.6367 98.8348C41.0244 97.107 38.7785 96.7124 37.6204 97.9535C36.4623 99.1946 36.8305 101.601 38.4428 103.329C40.0551 105.057 42.301 105.452 43.4591 104.211Z" fill="#F6FAFD"/>
<path d="M22.1322 98.7998C22.7141 98.1762 22.5294 96.9673 21.7197 96.0996C20.91 95.2319 19.7819 95.034 19.2001 95.6575C18.6182 96.2811 18.8029 97.49 19.6126 98.3577C20.4222 99.2255 21.5503 99.4234 22.1322 98.7998Z" fill="#F6FAFD"/>
<path d="M34.7748 100.739C35.3567 100.115 35.172 98.9063 34.3623 98.0386C33.5526 97.1708 32.4245 96.9729 31.8426 97.5965C31.2608 98.2201 31.4454 99.429 32.2551 100.297C33.0648 101.164 34.1929 101.362 34.7748 100.739Z" fill="#F6FAFD"/>
<path d="M22.7435 102.854C23.0348 102.542 22.9427 101.937 22.5379 101.503C22.1331 101.069 21.5687 100.971 21.2774 101.283C20.9861 101.595 21.0782 102.2 21.483 102.634C21.8879 103.068 22.4522 103.166 22.7435 102.854Z" fill="#F6FAFD"/>
<path d="M70.8998 102.687C71.4817 102.064 71.297 100.855 70.4873 99.9873C69.6776 99.1196 68.5495 98.9217 67.9676 99.5452C67.3858 100.169 67.5704 101.378 68.3801 102.245C69.1898 103.113 70.3179 103.311 70.8998 102.687Z" fill="#F6FAFD"/>
<path d="M71.5111 106.744C71.8024 106.432 71.7103 105.827 71.3055 105.393C70.9006 104.959 70.3363 104.86 70.045 105.173C69.7537 105.485 69.8458 106.09 70.2506 106.523C70.6555 106.957 71.2198 107.056 71.5111 106.744Z" fill="#F6FAFD"/>
<path d="M70.0312 20.3545H95.3159" stroke="black" stroke-width="2" stroke-linejoin="round"/>
<path d="M75.4492 1H89.8976V12.6128H75.4492V1Z" stroke="black" stroke-width="2" stroke-linejoin="round"/>
<path d="M75.4492 20.3545H89.8976V31.9673H75.4492V20.3545Z" stroke="black" stroke-width="2" stroke-linejoin="round"/>
<path d="M95.3164 35.8908C96.0642 34.8023 97.0172 33.8943 98.1134 33.2257C99.2096 32.5572 100.425 32.1429 101.68 32.0098C102.935 31.8767 104.202 32.0277 105.4 32.4531C106.597 32.8784 107.697 33.5686 108.63 34.479C109.562 35.3893 110.306 36.4994 110.812 37.7374C111.319 38.9754 111.577 40.3136 111.57 41.6653C111.562 43.017 111.29 44.352 110.771 45.5838C110.252 46.8157 109.497 47.9168 108.555 48.8158" stroke="black" stroke-width="2" stroke-linejoin="round"/>
<path d="M95.3158 28.0965V20.3546H97.1219C98.0799 20.3546 98.9986 19.9468 99.676 19.2209C100.353 18.4949 100.734 17.5103 100.734 16.4837C100.734 15.4571 100.353 14.4725 99.676 13.7466C98.9986 13.0206 98.0799 12.6128 97.1219 12.6128H64.66C63.9017 12.6127 63.1622 12.865 62.5436 13.3349C61.9249 13.8047 61.4578 14.469 61.2068 15.2357C60.9557 16.0025 60.9331 16.8339 61.1421 17.615C61.3512 18.3961 61.7815 19.0883 62.3735 19.5959L70.0312 26.161V37.9673C64.8213 39.9451 60.2997 43.5815 57.0719 48.3896C53.8441 53.1978 52.0643 58.948 51.9707 64.8703V65.7412C51.971 70.3046 52.4729 74.852 53.4661 79.2895L61.4777 115.059C61.8556 116.751 62.7543 118.257 64.0289 119.335C65.3035 120.412 66.8797 120.999 68.5033 120.999H96.8438C98.4668 120.999 100.043 120.413 101.317 119.336C102.592 118.259 103.491 116.754 103.869 115.063L111.881 79.2933C112.874 74.8558 113.376 70.3084 113.376 65.7451V64.8703C113.377 61.1186 112.66 57.4066 111.269 53.9639C113.68 52.0067 115.457 49.2869 116.349 46.1888C117.24 43.0907 117.2 39.7708 116.236 36.6981C115.271 33.6253 113.43 30.955 110.972 29.0643C108.515 27.1736 105.565 26.158 102.54 26.161C100.015 26.1095 97.5216 26.7774 95.3158 28.0965Z" stroke="black" stroke-width="2" stroke-linejoin="round"/>
<path d="M111.571 41.6442C111.576 39.6098 110.98 37.6259 109.87 35.9758C108.76 34.3256 107.192 33.0935 105.389 32.4554C103.587 31.8173 101.642 31.8058 99.8332 32.4226C98.0242 33.0395 96.4434 34.253 95.3164 35.89V37.9668C100.637 40.0977 105.245 43.8775 108.555 48.8247C109.502 47.9239 110.261 46.8183 110.78 45.5807C111.3 44.343 111.57 43.0014 111.571 41.6442Z" stroke="black" stroke-width="2" stroke-linejoin="round"/>
<path d="M95.3164 37.7738V35.8384" stroke="black" stroke-width="2" stroke-linejoin="round"/>
<path d="M65.5586 105.515L66.4616 110.075C66.6737 111.459 67.3236 112.723 68.3022 113.655C69.2808 114.587 70.5287 115.129 71.8364 115.192H93.509C94.8164 115.129 96.0638 114.586 97.0421 113.654C98.0203 112.723 98.6699 111.459 98.882 110.075L105.008 79.2254C105.769 75.384 106.152 71.4679 106.151 67.541V66.7881C106.149 63.5166 105.534 60.2787 104.345 57.2656" stroke="black" stroke-width="2" stroke-linejoin="round"/>
<path d="M64.0234 97.7729L64.791 101.644" stroke="black" stroke-width="2" stroke-linejoin="round"/>
<path d="M102.36 53.2574C99.775 48.9772 96.068 45.6106 91.7042 43.5801H73.6437C69.4001 45.5384 65.7771 48.7726 63.2128 52.8915C60.6486 57.0103 59.2532 61.8372 59.1953 66.7882V67.5411C59.195 71.468 59.5781 75.3841 60.3385 79.2255L63.2535 93.9021" stroke="black" stroke-width="2" stroke-linejoin="round"/>
<path d="M99.795 68.7413C99.8185 62.0408 97.9041 52.8918 88.0918 49.3867" stroke="black" stroke-width="2" stroke-linejoin="round"/>
<path d="M98.9277 76.4832C99.2239 75.21 99.4394 73.9167 99.5725 72.6123" stroke="black" stroke-width="2" stroke-linejoin="round"/>
<path d="M26.6862 103.794C26.6862 112.345 21.8352 120.999 15.85 120.999C9.86472 120.999 5.01367 112.345 5.01367 103.794C5.01367 95.2434 9.86472 90.0312 15.85 90.0312C21.8352 90.0312 26.6862 95.2434 26.6862 103.794Z" stroke="black" stroke-width="2" stroke-linejoin="round"/>
<path d="M50.1656 98.7778C52.2609 99.5018 54.0885 100.918 55.3862 102.824C56.684 104.73 57.3854 107.027 57.3898 109.386C57.3898 115.8 52.5261 120.999 44.547 120.999C41.6232 120.989 38.733 120.33 36.0586 119.063" stroke="black" stroke-width="2" stroke-linejoin="round"/>
<path d="M26.09 99.7085C26.403 99.3214 26.7275 98.9478 27.0634 98.5878C32.6297 92.6227 39.406 92.6131 43.5797 97.0878C47.7535 101.563 47.7463 108.823 42.1801 114.788C36.6138 120.753 27.598 123.16 23.4242 118.688C22.9942 118.227 22.6248 117.706 22.3262 117.139" stroke="black" stroke-width="2" stroke-linejoin="round"/>
<path d="M15.8496 90.0315L28.4919 72.6123L39.3282 93.9024" stroke="black" stroke-width="2" stroke-linejoin="round"/>
<path d="M28.4922 12.6128V72.6121" stroke="black" stroke-width="2" stroke-linejoin="round"/>
<path d="M28.4929 51.3218C28.4929 51.3218 6.82031 55.1927 6.82031 74.5473C6.82031 74.5473 28.4929 70.6764 28.4929 51.3218Z" stroke="black" stroke-width="2" stroke-linejoin="round"/>
<path d="M6.82031 74.5473L28.4929 51.3218" stroke="black" stroke-width="2" stroke-linejoin="round"/>
<path d="M28.4922 59.064C28.4922 59.064 50.1648 62.9349 50.1648 82.2895C50.1648 82.2895 28.4922 78.4186 28.4922 59.064Z" stroke="black" stroke-width="2" stroke-linejoin="round"/>
<path d="M50.1648 82.2895L28.4922 59.064" stroke="black" stroke-width="2" stroke-linejoin="round"/>
<path d="M28.4929 30.0317C28.4929 30.0317 6.82031 33.9027 6.82031 53.2573C6.82031 53.2573 28.4929 49.3864 28.4929 30.0317Z" stroke="black" stroke-width="2" stroke-linejoin="round"/>
<path d="M6.82031 53.2573L28.4929 30.0317" stroke="black" stroke-width="2" stroke-linejoin="round"/>
<path d="M28.4922 37.7739C28.4922 37.7739 50.1648 41.6448 50.1648 60.9995C50.1648 60.9995 28.4922 57.1285 28.4922 37.7739Z" stroke="black" stroke-width="2" stroke-linejoin="round"/>
<path d="M50.1648 60.9995L28.4922 37.7739" stroke="black" stroke-width="2" stroke-linejoin="round"/>
<path d="M28.4922 72.6123C28.4922 84.3799 31.7232 93.9024 35.7164 93.9024" stroke="black" stroke-width="2" stroke-linejoin="round"/>
</g>
<defs>
<filter id="filter0_d_30_329" x="0.0136719" y="0" width="121.977" height="129.999" filterUnits="userSpaceOnUse" color-interpolation-filters="sRGB">
<feFlood flood-opacity="0" result="BackgroundImageFix"/>
<feColorMatrix in="SourceAlpha" type="matrix" values="0 0 0 0 0 0 0 0 0 0 0 0 0 0 0 0 0 0 127 0" result="hardAlpha"/>
<feOffset dy="4"/>
<feGaussianBlur stdDeviation="2"/>
<feComposite in2="hardAlpha" operator="out"/>
<feColorMatrix type="matrix" values="0 0 0 0 0 0 0 0 0 0 0 0 0 0 0 0 0 0 0.25 0"/>
<feBlend mode="normal" in2="BackgroundImageFix" result="effect1_dropShadow_30_329"/>
<feBlend mode="normal" in="SourceGraphic" in2="effect1_dropShadow_30_329" result="shape"/>
</filter>
</defs>
</svg>
