<svg width="120" height="128" viewBox="0 0 120 128" fill="none" xmlns="http://www.w3.org/2000/svg">
<g filter="url(#filter0_d_30_567)">
<g clip-path="url(#clip0_30_567)">
<path d="M109.352 47.8133C98.8485 36.566 78.4159 39.146 62.119 53.821L50.3535 114.346C54.6858 118.164 60.1785 120 66.1796 120C77.0171 120 89.7379 114.02 100.078 102.94C116.699 85.1293 120.859 60.1418 109.352 47.8133Z" fill="#3E322E"/>
<path d="M100.073 57.747C98.2804 55.829 95.523 54.8164 92.099 54.8164C86.0688 54.8164 76.2499 58.1956 67.3948 67.6869C66.1523 69.0181 65.0159 70.3694 63.9845 71.7253L58.5918 103.407C60.3751 105.019 62.9694 105.874 66.0951 105.874C72.1252 105.874 81.9442 102.26 90.7993 92.7696C103.096 79.5906 105.559 63.6238 100.073 57.747Z" fill="#FF9100"/>
<path d="M66.525 0C55.0697 0 44.5535 5.63416 37.668 15.4541L58.3877 43.9774C69.4747 37.077 76.3628 24.2651 76.3628 10.5405V0H66.525Z" fill="#00AB5E"/>
<path d="M57.6471 15.0835L62.2844 20.0511L48.2545 35.0832L43.6172 30.1146L57.6471 15.0835Z" fill="#038C4B"/>
<path d="M49.6034 32.1835L40.2903 36.189L22.1887 43.9893C11.1051 37.1027 4 24.2432 4 10.5405V0H14.0565C24.3532 0 33.6663 4.56757 40.2903 12.0859C45.078 17.4271 48.4233 24.3832 49.6034 32.1835Z" fill="#7FE881"/>
<path d="M22.9342 15.0835L36.9633 30.1155L32.3268 35.0832L18.2969 20.0521L22.9342 15.0835Z" fill="#5BC980"/>
<path d="M49.6041 32.1836L40.291 36.189V12.0859C45.0787 17.4271 48.4241 24.3833 49.6041 32.1836Z" fill="#5BC980"/>
<path d="M40.2906 28.1084C24.0262 28.1084 10.7773 48.6263 10.7773 73.7841C10.7773 98.94 24.0262 119.928 40.2906 119.928C56.5559 119.928 69.8048 98.94 69.8048 73.7841C69.8048 48.6263 56.5559 28.1084 40.2906 28.1084Z" fill="#725D57"/>
<path d="M69.8032 73.7841C69.8032 98.94 56.5543 119.928 40.2891 119.928V28.1084C56.5543 28.1084 69.8032 48.6263 69.8032 73.7841Z" fill="#53433F"/>
<path d="M29.248 96.9202C26.8367 92.662 25.155 87.3438 24.3809 81.5421L30.875 80.5469C31.6945 86.7029 33.4915 90.8649 34.8586 93.2773L29.248 96.9202Z" fill="#53433F"/>
<path d="M30.875 67.2546L24.3809 66.2594C25.155 60.4568 26.8367 55.1385 29.248 50.8804L34.8586 54.5251C33.4915 56.9366 31.6945 61.0986 30.875 67.2546Z" fill="#53433F"/>
<path d="M49.7052 67.2546C48.8849 61.0986 47.0887 56.9366 45.7207 54.5242L51.3313 50.8804C53.7427 55.1385 55.4243 60.4568 56.1993 66.2585L49.7052 67.2546Z" fill="#3E322E"/>
<path d="M51.3333 96.9207L45.7227 93.2769C47.0898 90.8654 48.8868 86.7034 49.7063 80.5474L56.2004 81.5425C55.4254 87.3452 53.7446 92.6635 51.3333 96.9207Z" fill="#3E322E"/>
</g>
</g>
<defs>
<filter id="filter0_d_30_567" x="0" y="0" width="120" height="128" filterUnits="userSpaceOnUse" color-interpolation-filters="sRGB">
<feFlood flood-opacity="0" result="BackgroundImageFix"/>
<feColorMatrix in="SourceAlpha" type="matrix" values="0 0 0 0 0 0 0 0 0 0 0 0 0 0 0 0 0 0 127 0" result="hardAlpha"/>
<feOffset dy="4"/>
<feGaussianBlur stdDeviation="2"/>
<feComposite in2="hardAlpha" operator="out"/>
<feColorMatrix type="matrix" values="0 0 0 0 0 0 0 0 0 0 0 0 0 0 0 0 0 0 0.25 0"/>
<feBlend mode="normal" in2="BackgroundImageFix" result="effect1_dropShadow_30_567"/>
<feBlend mode="normal" in="SourceGraphic" in2="effect1_dropShadow_30_567" result="shape"/>
</filter>
<clipPath id="clip0_30_567">
<rect width="112" height="120" fill="white" transform="translate(4)"/>
</clipPath>
</defs>
</svg>
