<svg width="120" height="128" viewBox="0 0 120 128" fill="none" xmlns="http://www.w3.org/2000/svg">
<g filter="url(#filter0_d_30_568)">
<path d="M55.4277 55.0778C57.533 61.682 56.2183 68.4692 56.2334 75.1738C56.246 80.8604 56.1358 86.4974 55.7785 92.1699C55.4788 96.9261 55.9085 102.099 60.7363 105.121C67.833 109.562 75.6971 109.552 84.0419 109.947C89.4344 110.203 98.1825 108.9 101.062 104.362C102.795 101.631 103.699 98.8892 104.02 95.8023C104.335 92.7746 103.845 89.8445 103.849 86.8081C103.854 82.8746 103.633 78.9702 104.119 75.05C104.301 73.5896 104.638 72.0756 104.662 70.6084C104.723 66.9039 104.779 63.1881 104.79 59.4742C104.799 56.5046 104.039 55.3888 100.328 55.7068C92.1272 56.4097 83.3837 57.8652 75.1432 57.0744C70.3977 56.619 65.8544 56.1608 61.1799 55.2578C59.6382 54.9604 56.6818 53.9561 55.4277 55.0778Z" fill="#CE815F"/>
<path d="M49.7772 60.4684C49.3307 63.0501 49.4781 65.7222 49.3396 68.3383C49.1351 72.201 48.9796 76.0253 48.9708 79.8934C48.9581 85.3675 48.7916 90.8204 48.5603 96.2943C48.4997 97.7277 47.9717 100.552 49.3113 101.576C49.9841 102.091 51.1086 102.045 51.8984 102.293C52.9432 102.622 53.6221 103.177 54.4918 103.752C57.6077 105.81 56.4069 110.79 56.2132 113.904C53.9503 113.601 51.1212 114.236 48.9277 114.695C44.5063 115.619 40.2305 116.663 35.8669 117.782C33.8015 118.311 31.4641 118.916 29.3161 119.048C27.5245 119.158 26.0528 118.171 24.4535 117.647C20.0085 116.192 16.0904 113.95 11.7882 112.265C10.7302 111.851 8.30698 111.18 7.56022 110.352C7.08704 109.827 6.90357 108.328 6.69913 107.683C6.31607 106.476 5.85364 105.095 5.67341 103.858C5.53487 102.906 5.73716 101.537 6.49334 100.774C7.47198 99.7867 9.4855 99.9939 10.8332 99.6151C11.637 99.3892 13.3242 99.1124 13.7393 98.4622C14.0336 98.0015 13.3968 96.0353 13.3565 95.4979C13.2809 94.4912 13.0937 93.4288 13.1929 92.4179C13.3347 90.9758 13.8746 90.7387 15.4418 90.3255C18.2129 89.5949 21.1453 89.3258 23.8695 88.4111C24.8398 88.0853 26.5752 87.6273 27.1928 86.8094C28.2062 85.4678 28.0203 82.7938 28.4284 81.2617C29.2994 77.9924 30.3547 74.9786 31.8028 71.8703C32.6814 69.9845 34.2497 68.9671 36.0835 67.6452C38.9239 65.5977 42.0971 63.8962 45.1124 62.0554C46.4601 61.2327 48.0666 60.2582 49.7772 60.4684Z" fill="#EC9B5E"/>
<path d="M78.695 33.8671C76.7681 33.8669 74.8466 33.8528 72.9216 33.9494C69.2661 34.1329 65.6474 33.8008 62.0153 34.0051C59.6383 34.1387 57.5761 34.6405 55.2872 35.1334C53.6979 35.4756 50.7186 35.7365 49.6181 36.9665C48.7508 37.9358 48.1803 40.5369 48.4584 41.7381C48.5838 42.2797 48.9324 42.6571 48.9687 43.2072C49.0182 43.9588 48.5152 44.6085 48.4294 45.3622C48.0006 49.1343 49.8586 52.9386 49.9442 56.679C50.0631 61.8761 49.5662 67.0937 49.5076 72.2996C49.4379 78.4745 48.9749 84.6474 48.9757 90.8178C48.976 93.0784 48.4364 95.316 48.611 97.5833C48.849 100.675 50.2624 101.21 52.8726 102.864C54.0312 103.598 54.945 104.272 55.5556 105.392C57.3426 108.67 54.8947 111.785 59.5498 113.464C65.469 115.599 71.2282 116.124 77.5808 116.39C80.2466 116.502 82.9015 116.901 85.5802 116.847C88.5159 116.787 91.5575 116.135 94.3458 115.394C98.1329 114.387 101.745 112.897 104.895 110.771C108.4 108.406 109.38 103.998 110.168 100.407C111.006 96.5898 111.422 92.761 111.243 88.8861C111.064 85.0351 111.333 81.1548 111.117 77.3047C110.931 73.9923 110.922 70.6597 110.538 67.3557C110.323 65.5077 110.164 63.6786 110.168 61.8198C110.172 60.2493 110.211 58.7825 110.002 57.2605C109.802 55.8013 110.209 54.5354 111.413 53.4634C112.932 52.1097 112.874 51.7635 112.849 50.0293C112.828 48.6404 113.719 47.5447 113.407 46.0829C113.063 44.4742 112.469 44.0584 113.263 42.4794C114.549 39.9222 115.205 37.6037 111.594 36.4448C107.494 35.1285 102.023 34.9743 97.6847 34.8311C92.8181 34.6705 90.9784 39.0754 88.1447 41.8935C86.9648 43.0668 86.3679 43.8505 86.2196 45.3515C86.1193 46.3694 86.1653 47.4976 85.8038 48.49C85.2163 50.1013 83.7225 51.1415 82.721 52.5252C81.8913 53.6715 81.268 55.3799 82.0654 56.6296C82.7056 57.6327 83.875 57.6796 85.3193 57.6611C87.8208 57.629 90.2623 56.7536 92.7428 56.5138C95.2004 56.2764 97.6629 56.2072 100.129 56.1264C101.64 56.0769 103.518 55.8779 104.263 57.2908C104.942 58.5779 104.44 60.6208 104.373 61.9696C104.262 64.1947 104.209 66.4218 104.146 68.6481C104.026 72.9573 105.023 77.3296 104.765 81.6264C104.544 85.3147 104.091 89.0031 103.847 92.6945C103.42 99.1477 101.904 105.683 94.5989 108.758C91.1573 110.207 87.8533 110.508 84.1187 110.375C79.8224 110.221 75.1995 111.07 71.0262 109.813C67.8315 108.851 64.7543 107.915 61.9464 106.262C58.2064 104.062 56.8062 100.513 56.1606 96.83C55.5578 93.3896 56.1633 89.8278 56.4756 86.3898C56.7207 83.6928 56.9757 80.7671 56.3075 78.1021C55.4663 74.7465 55.5817 72.1829 56.1348 68.8145C56.6938 65.41 56.2731 62.2157 55.8558 58.8229C55.6982 57.5399 54.7263 55.2395 56.4181 54.4375C57.4855 53.9315 59.3362 54.6372 60.4507 54.7918C62.2194 55.037 63.9927 55.2576 65.7461 55.5784C67.9991 55.9907 73.4757 57.4042 74.229 54.7403C74.5913 53.4585 74.2421 50.7756 72.6281 50.2808C70.5748 49.6513 69.5335 52.0551 67.7989 52.3185C64.0549 52.8871 68.6896 46.9703 66.1316 45.8113C63.7727 44.7423 60.1212 46.7765 58.5047 44.2778C56.8108 41.6594 60.2202 39.5123 62.687 38.8973C67.5027 37.697 74.3487 37.1483 78.1906 40.2236C80.5533 42.1145 81.3657 39.8917 82.2098 37.8976C82.5665 37.0553 83.4424 35.5748 82.846 34.6839C82.0374 33.4769 79.6026 33.8732 78.695 33.8671Z" fill="#E6F3ED"/>
<path d="M103.58 1.64008C99.3066 3.32828 96.6197 9.36789 94.8378 12.8078C92.5166 17.2883 90.0813 21.6904 87.919 26.2433C86.4475 29.342 85.3823 32.5567 83.7852 35.6151C83.1651 36.8026 80.8127 39.4682 81.2565 40.8946C81.6191 42.0604 84.19 42.3172 85.2873 42.7468C86.5519 43.2418 86.5624 43.3311 87.4905 42.3597C89.465 40.2927 90.7315 37.6213 92.5268 35.409C95.8794 31.2775 99.7846 27.328 102.828 23.0439C105.055 19.9098 108.044 17.2155 110.003 13.9321C111.68 11.1212 113.332 6.95031 111.073 4.00656C110.376 3.09719 109.713 2.26117 108.693 1.63657C106.84 0.502426 106.022 1.22852 103.58 1.64008Z" fill="#BCBBB8"/>
<path d="M48.03 81.6792C46.0999 83.1288 42.7938 84.3147 41.4824 86.2575C42.2625 86.7635 43.21 86.8636 44.1655 86.9292C45.0059 86.9868 47.1563 87.5219 48.0085 87.3349C49.5529 86.9955 48.3961 83.0925 48.03 81.6792Z" fill="#CE815F"/>
<path d="M47.4918 92.5777C44.9677 92.555 42.2088 93.7442 39.852 94.4328C37.3325 95.1687 34.2338 94.1954 31.6992 93.8227C26.4539 93.0514 21.1297 91.6749 15.8292 91.408C13.2327 91.2772 12.9169 91.4492 12.9247 93.6812C12.9309 95.5037 12.7042 97.588 13.3164 99.353C15.4144 99.4878 17.7668 98.877 19.8866 98.7507C22.9845 98.566 26.0856 98.458 29.1845 98.2585C32.8032 98.0255 37.2542 97.1623 40.7128 98.517C41.8755 98.9724 43.0292 99.7852 44.0579 100.43C44.7982 100.893 46.1941 102.339 47.2187 102.186C50.2179 101.738 49.7366 92.6434 47.4918 92.5777Z" fill="#CE815F"/>
<path d="M53.8131 104.296C51.9059 104.251 50.1425 104.664 48.3122 105.085C45.525 105.726 42.6564 106.069 39.9079 106.816C36.4246 107.763 32.1514 109.168 28.4894 108.867C25.2178 108.597 22.2767 106.781 19.4451 105.475C15.9984 103.885 12.2643 102.223 8.5426 101.186C6.85942 100.716 5.82563 100.359 5.64244 102.117C5.36294 104.797 6.72304 107.95 7.87089 110.38C8.67226 112.076 9.79993 112.489 11.6835 113.199C13.3823 113.84 15.1354 114.227 16.8554 114.729C18.8948 115.324 20.7124 116.491 22.677 117.248C28.9023 119.647 36.1819 118.002 42.4422 116.609C45.701 115.884 49.0487 115.021 52.2106 114.02C53.3577 113.657 55.5579 113.489 56.1443 112.495C56.9691 111.096 55.8764 105.303 53.8131 104.296Z" fill="#CE815F"/>
<path d="M67.3983 38.0856C65.0151 37.9559 61.4347 38.8953 59.5957 40.2104C57.7899 41.5018 56.0341 44.3616 58.7809 45.6219C60.3573 46.3452 62.8413 46.0559 64.6143 46.0543C66.4 46.0527 67.1486 45.8998 67.3332 47.6173C67.4784 48.9688 65.9402 51.2963 67.7681 52.0845C69.5562 52.8556 70.2707 50.8276 71.7024 50.8428C73.5757 50.8627 73.6917 54.0753 73.5951 55.0522C73.3247 57.7817 72.3455 60.3411 72.3759 63.1259C72.3988 65.2133 73.9394 65.8119 74.7986 67.6344C76.0169 70.2183 75.3732 73.453 75.462 76.1675C75.5271 78.1604 75.3396 81.2979 77.4763 82.5683C79.3497 83.682 81.103 83.2477 82.5226 82.0011C83.8001 80.8791 84.0785 80.5629 84.429 78.9526C84.8549 76.996 85.0808 74.949 85.0117 72.9561C84.9202 70.3151 84.8578 67.58 84.453 64.9545C84.0774 62.5198 83.2268 60.3474 82.1608 58.1014C80.9683 55.5889 81.718 53.6642 83.0348 51.2635C84.2206 49.1021 86.3325 46.8995 85.6818 44.3591C85.2145 42.5354 83.7541 41.9441 81.8264 41.5133C80.9384 41.3148 79.9391 41.2131 79.1267 40.8364C78.229 40.4204 77.5282 39.5788 76.6556 39.106C74.2926 37.8254 70.5747 37.5517 67.3983 38.0856Z" fill="#EC9B5E"/>
<path d="M115.827 40.9537C116.194 39.8983 115.919 39.049 115.541 38.0463C114.76 35.9723 112.705 35.3833 110.401 34.9441C107.44 34.3795 104.325 34.252 101.317 33.9686C99.9868 33.8433 98.5006 33.7898 97.1631 33.8735C96.6119 33.9079 96.0585 33.9832 95.51 34.0521C97.2621 31.8499 99.0055 29.6299 100.685 27.3975C102.988 24.3356 105.364 21.3218 107.755 18.3096C108.862 16.9153 109.997 15.5538 110.995 14.0953C111.973 12.6673 112.527 11.0583 113.163 9.49968C114.158 7.06218 113.561 3.72351 111.286 1.92258C110.163 1.03359 108.315 0.346641 106.824 0.0930471C104.87 -0.239765 103.229 0.355547 101.656 1.31625C100.239 2.18133 99.1161 3.15398 98.0877 4.37976C96.9516 5.73421 96.3636 7.34343 95.3712 8.76773C93.3281 11.6998 92.3137 15.0349 90.5724 18.0916C89.6288 19.7482 88.8002 21.4294 88.0179 23.1253C87.6545 23.8308 87.2868 24.5276 86.9037 25.2288C85.9845 26.9114 85.057 28.5994 84.2021 30.3061C83.7456 31.2176 83.3655 32.1558 82.9924 33.0965C81.8714 32.7712 80.5232 32.8615 79.3608 32.8591C78.3854 32.8572 77.4092 32.7872 76.4399 32.6958C75.118 32.5713 73.4908 32.4954 71.976 32.6756C69.8452 32.5743 67.7225 32.6486 65.5715 32.8101C62.5186 33.0391 59.4613 33.1945 56.4334 33.6379C53.6094 34.0516 50.4303 34.5836 48.1378 36.1739C45.9483 37.6926 45.6785 39.9761 47.0319 42.0534C47.3178 42.4922 47.7431 42.7415 47.6105 43.2518C47.5097 43.6394 47.0408 44.0055 46.8597 44.3871C46.2824 45.6023 46.9364 46.365 47.2175 47.5357C47.4564 48.5296 46.62 49.4064 46.7096 50.441C46.8024 51.5116 47.6501 52.4704 48.6747 53.0318C48.8805 53.1445 49.0868 53.2511 49.2937 53.3554C49.2466 54.404 49.0476 55.4453 49.0112 56.4998C48.9768 57.4985 48.8794 58.4936 48.8092 59.4904C45.5368 60.7293 42.4962 62.2631 39.5011 63.9939C37.9556 64.8871 36.3965 65.7653 34.8736 66.6871C33.5154 67.5091 32.091 68.1567 31.0874 69.3396C29.0122 71.7853 28.609 75.311 27.7202 78.1774C27.2118 79.817 26.6028 81.4181 26.2407 83.0913C26.0405 84.0154 25.5399 85.4296 25.7032 86.4855C25.3271 86.5624 24.9519 86.6385 24.5777 86.7116C22.2416 87.1682 19.9411 87.7307 17.6107 88.1957C15.9907 88.5189 13.843 88.5543 12.5023 89.5129C11.3474 90.3384 11.299 91.9302 11.3149 93.1258C11.3377 94.8327 11.525 96.5702 11.9699 98.2298C11.996 98.3275 12.0323 98.4156 12.0762 98.4955C10.2305 98.6676 8.38162 98.6479 6.54243 98.8694C5.13311 99.0391 4.00839 99.6058 4.00005 100.975C3.99494 101.812 4.3694 102.63 4.45118 103.462C4.53645 104.329 4.65347 105.183 4.78663 106.047C4.92032 106.914 5.13768 107.767 5.26626 108.634C5.34777 109.185 5.37656 109.735 5.67219 110.24C6.43267 111.538 8.34423 112.375 9.76109 113.035C11.3802 113.79 13.0101 114.552 14.6672 115.241C16.5634 116.03 18.5805 116.617 20.3825 117.575C21.8387 118.349 23.3241 119.201 24.9675 119.652C26.6727 120.121 28.6827 120.045 30.4294 119.837C34.9697 119.294 39.458 118.296 43.9467 117.497C48.1569 116.747 52.3224 115.518 56.4326 114.449C56.6292 114.398 56.7939 114.323 56.9321 114.231C59.1385 115.375 62.0435 115.934 64.4465 116.38C67.4126 116.931 70.5939 117.714 73.6296 117.807C80.2429 118.009 86.9465 118.011 93.4398 116.737C96.5199 116.133 99.4168 115.451 102.269 114.263C104.844 113.19 106.583 111.303 108.08 109.217C111.3 104.73 111.632 99.3433 111.962 94.2102C112.388 87.5936 111.899 80.9873 111.902 74.3685C111.903 71.2888 111.667 68.1958 111.744 65.125C111.783 63.58 111.602 62.0428 111.597 60.4985C111.593 58.8445 111.101 57.3311 110.962 55.7025C110.946 55.5124 110.891 55.3455 110.808 55.2018C111.402 54.9548 111.965 54.6562 112.478 54.2796C114.218 53.0029 115.263 51.0114 114.754 49.0148C114.636 48.5519 114.29 48.1118 114.298 47.6329C114.307 47.1501 114.681 46.7463 114.798 46.2646C115.036 45.2847 114.12 44.4822 114.266 43.6293C114.422 42.7261 115.511 41.8603 115.827 40.9537ZM97.9472 36.4861C100.227 36.716 102.506 36.8819 104.788 37.1339C106.738 37.3495 108.941 37.3982 110.863 37.9387C110.394 38.1541 109.927 38.3718 109.456 38.5193C108.345 38.8673 107.246 39.2411 106.136 39.5918C103.622 40.3863 100.919 40.845 98.2738 41.1447C96.0072 41.4018 93.7723 41.831 91.511 42.0951C90.6373 42.1971 89.6261 42.2139 88.6157 42.2714C88.6918 42.1638 88.7693 42.0557 88.8513 41.9475C89.3947 41.2298 90.0549 40.5581 90.6851 39.8969C91.8308 38.6953 92.8418 37.3926 93.868 36.1092C93.8944 36.0761 93.9208 36.0431 93.9471 36.01C95.1808 36.4115 96.575 36.3475 97.9472 36.4861ZM83.539 38.2157C83.8112 37.7461 84.0418 37.263 84.3027 36.7821C85.107 35.2987 85.9232 33.8308 86.6638 32.3205C88.1559 29.2774 89.3845 26.1394 90.9466 23.1227C91.7216 21.6265 92.6443 20.1996 93.4546 18.7198C94.2422 17.2814 94.8252 15.7673 95.5926 14.3257C96.2767 13.0411 96.9896 11.6754 97.8746 10.4871C98.7812 9.26999 99.4553 7.95421 100.318 6.71296C101.106 5.57906 102.123 4.60945 103.345 3.83414C104.955 2.8125 106.076 2.39344 108.016 3.09656C109.504 3.63609 110.443 4.5007 110.813 5.87296C111.229 7.41843 110.849 8.60249 110.216 10.0516C108.895 13.0737 106.683 15.443 104.56 18.0614C102.393 20.7326 100.247 23.3925 98.1778 26.1201C96.0529 28.9214 93.7844 31.6544 91.6191 34.4341C90.6674 35.6561 89.6705 36.9398 88.5858 38.0681C87.8977 38.7839 87.2252 39.5182 86.5903 40.2707C86.2261 40.7025 85.9942 41.1466 85.7575 41.5999C84.9897 40.8485 83.9799 40.2792 82.8471 39.993C83.0752 39.3998 83.3031 38.8066 83.539 38.2157ZM79.6933 55.9195C79.6968 55.9558 79.7005 55.9921 79.7049 56.0289C79.9612 58.2222 81.0437 60.2381 81.6987 62.2994C83.1449 66.8503 83.0163 71.8237 82.6553 76.4927C82.573 77.557 82.4441 78.6236 82.1789 79.668C81.9901 80.4117 81.6581 81.8608 80.8075 82.2623C79.7207 82.7751 77.7368 82.0652 77.0818 81.281C76.431 80.5017 76.4797 79.4554 76.4754 78.535C76.4639 76.1303 76.9357 73.7552 76.9413 71.3599C76.9459 69.3963 76.8897 67.1193 75.2092 65.6585C74.3602 64.9204 73.7499 64.2175 73.7404 63.1228C73.7305 61.9673 73.8811 60.6956 74.1039 59.5598C74.5216 57.4286 75.3666 55.375 75.0338 53.1811C74.8173 51.7532 74.0692 49.8143 72.0043 49.7986C71.2416 49.7927 70.3007 50.3386 69.7016 50.6978C69.3556 50.9053 68.943 51.367 68.5037 51.4073C67.6528 51.4853 67.8328 50.5767 67.9966 50.0946C68.3307 49.1128 68.9946 48.3194 68.8507 47.2434C68.7194 46.2604 67.9735 45.3677 66.98 44.8947C65.9229 44.3915 64.7855 44.5772 63.6417 44.6421C62.5761 44.7025 60.2605 44.9632 59.4223 44.2432C58.3086 43.2867 59.6768 41.8865 60.6151 41.3292C61.8084 40.6204 63.1698 40.1006 64.5593 39.7807C65.3133 39.607 66.0939 39.4427 66.8889 39.3009C68.7447 39.2208 70.5842 39.0686 72.4648 39.2116C73.6302 39.3002 74.9297 39.3799 75.8177 40.0847C76.6939 40.78 77.5227 41.4072 78.6226 41.8336C80.588 42.595 83.812 41.9456 84.2788 44.4832C84.4574 45.4542 84.01 46.4786 83.5465 47.3407C83.0034 48.3508 82.7322 49.436 82.0955 50.4112C80.924 52.2056 79.4953 53.7707 79.6933 55.9195ZM85.6268 67.8993C85.3564 65.1949 84.8921 62.4885 83.8594 59.9219C83.7155 59.564 83.5683 59.2057 83.426 58.8457C85.2851 58.912 87.1609 58.8623 89.006 58.7709C91.6867 58.6378 94.3326 58.3307 96.9826 57.956C99.1268 57.6527 101.25 57.2927 103.371 56.9041C103.467 57.705 103.593 58.4821 103.578 59.3114C103.559 60.4195 103.443 61.4985 103.317 62.6008C103.075 64.7303 102.756 66.6405 103.108 68.7885C103.504 71.2026 103.57 73.5672 103.476 76.0031C103.391 78.2022 102.899 80.4191 102.966 82.6136C103.035 84.8727 102.49 87.1241 102.737 89.3807C102.983 91.6291 103.091 93.8493 102.681 96.0979C102.497 97.1106 102.142 98.0573 101.788 99.0302C101.42 100.04 101.226 101.066 100.764 102.054C99.8445 104.019 98.5694 105.966 96.4045 107.046C91.9309 109.276 86.1605 109.491 81.1411 109.582C78.3617 109.633 75.7717 109.396 73.0534 108.895C71.8173 108.667 70.5401 108.474 69.3293 108.158C68.0787 107.832 66.8967 107.324 65.6573 106.965C61.495 105.759 57.9702 101.967 57.0828 98.2253C56.5485 95.9725 56.9916 93.3674 57.2673 91.1059C57.5465 88.8142 57.5772 86.4412 57.6106 84.1384C57.6474 81.5866 57.3233 79.1575 57.0933 76.6213C56.8571 74.016 56.9644 71.433 57.2652 68.8382C57.5629 66.2699 57.8949 63.6335 57.5605 61.0553C57.3211 59.2101 56.7169 57.4396 56.1636 55.6596C56.2763 55.6858 56.3885 55.7123 56.5023 55.7385C59.4 56.4016 62.316 57.086 65.3006 57.3548C66.7826 57.4884 68.2551 57.6726 69.7366 57.7989C70.4572 57.8603 71.1383 57.9689 71.7689 57.843C71.4875 58.8335 71.2567 59.8204 71.1281 60.8449C70.9775 62.0458 70.6703 63.2714 71.0211 64.4704C71.3218 65.4982 72.0401 66.4319 72.8909 67.1751C73.341 67.5682 73.6304 67.736 73.8203 68.2638C74.116 69.0846 74.1655 70.011 74.1913 70.8672C74.2742 73.6066 73.6353 76.3307 73.6998 79.0835C73.7517 81.2995 74.5986 83.2792 77.0293 84.2737C79.4103 85.248 82.379 85.0877 83.8328 83.001C85.2469 80.9713 85.4145 78.3845 85.6012 76.0827C85.8183 73.4029 85.8944 70.5764 85.6268 67.8993ZM49.9996 48.7446C51.7809 49.7102 53.8469 50.2007 55.8529 50.7154C57.8519 51.2282 59.7987 51.8236 61.8555 52.1554C63.0012 52.3403 64.3376 52.6551 65.6116 52.6919C66.8028 54.2927 69.2825 54.2925 70.8381 52.8876C71.1257 52.6282 71.5171 51.6813 71.8391 51.5388C72.7365 51.142 72.7804 52.5684 72.8059 52.9802C72.8519 53.7225 72.9727 54.7096 72.2211 55.1437C71.4281 55.6017 70.1436 55.2759 69.2809 55.2075C68.1825 55.1203 67.1054 54.8721 66.006 54.7989C63.76 54.6496 61.6467 54.1736 59.4584 53.7332C57.0196 53.2425 54.0691 53.028 51.8565 51.9574C51.0164 51.551 49.1788 51.1237 49.4527 50.1082C49.5947 49.5796 49.8371 49.184 49.9996 48.7446ZM49.7136 45.2763C49.8656 44.8739 50.097 44.5549 50.2995 44.2254C51.3314 44.6379 52.642 44.7522 53.6234 45.0459C54.8043 45.3996 56.0608 45.8477 57.3319 45.9328C58.9524 47.3679 62.0828 47.2017 64.1547 47.0618C64.792 47.0186 65.684 46.7725 65.9675 47.4288C66.1927 47.9496 65.6175 48.6039 65.4007 49.0931C65.1842 49.5818 65.0419 50.0911 65.0072 50.6013C64.2163 50.5251 63.4206 50.4803 62.6854 50.3758C60.9769 50.1325 59.3892 49.6739 57.7408 49.2553C55.8109 48.7652 53.7952 48.4959 51.888 47.9329C51.2585 47.7473 50.6527 47.4593 50.055 47.1874C49.8659 46.5349 49.5129 45.8074 49.7136 45.2763ZM57.8005 36.1345C60.5599 35.6974 63.3275 35.5556 66.1079 35.2917C68.939 35.0231 71.7985 35.0104 74.6306 35.2968C76.8426 35.5204 79.1639 35.5879 81.3958 35.3034C81.629 35.3137 81.8609 35.3165 82.0904 35.3065C81.4682 36.7326 80.7066 38.2174 80.3077 39.7061C80.2001 39.6888 80.0938 39.6679 79.99 39.6415C79.2115 39.4432 78.5446 38.9468 77.955 38.4916C76.8822 37.6633 75.8333 37.1536 74.3807 37.0108C72.842 36.8597 71.2677 36.8533 69.7142 36.9616C68.5069 36.9483 67.2843 37.0624 66.1206 37.1986C63.3073 37.5274 60.4491 38.185 58.2406 39.8275C58.1636 39.8847 58.091 39.9464 58.0176 40.0073C57.567 39.7134 57.0586 39.6201 56.4635 39.5376C55.5605 39.4125 54.6504 39.2215 53.7673 39.007C52.7103 38.7501 51.7395 38.3015 50.7383 37.9242C52.7986 36.9007 55.5155 36.4966 57.8005 36.1345ZM51.6959 40.8698C52.5901 41.2699 53.5736 41.557 54.5339 41.8071C55.1825 41.9758 55.8389 41.9988 56.4858 42.0874C56.2623 42.671 56.1725 43.2857 56.2502 43.89C55.476 43.6973 54.69 43.5339 53.9209 43.3612C53.0396 43.1632 51.8059 42.9032 50.7124 42.9241C50.6874 41.6205 49.2568 40.5009 49.2942 39.4443C49.9888 40.0636 50.9804 40.5494 51.6959 40.8698ZM29.2261 83.808C29.5659 82.2109 30.1316 80.6788 30.6271 79.1172C31.0871 77.6681 31.5291 76.1964 31.9302 74.7339C32.3073 73.3586 32.7025 71.7391 33.8024 70.6488C34.7886 69.6714 36.4021 68.9149 37.628 68.1681C39.0066 67.3282 40.3775 66.46 41.7849 65.6582C44.2321 64.2639 46.4627 62.6685 48.7304 61.1067C48.6508 64.0605 48.548 67.0153 48.4393 69.9686C48.3054 73.6054 48.1093 77.2621 47.816 80.9062C46.4406 81.1856 45.1916 82.2278 44.1869 83.0268C43.3433 83.6976 41.9175 84.5617 41.443 85.57C39.8871 85.2761 38.2919 84.9548 36.7322 84.933C34.0981 84.8964 31.4766 85.3195 28.8864 85.8323C29.0461 85.1732 29.0835 84.4771 29.2261 83.808ZM47.1199 100.085C45.9341 99.7084 44.7268 99.3822 43.5674 98.9453C42.5193 98.5504 41.4546 98.1198 40.3627 97.7765C40.3579 97.75 40.3519 97.7254 40.3479 97.698C40.2632 97.1545 40.1206 96.6606 40.0038 96.1267C39.9753 95.9964 39.9334 95.6402 39.844 95.2773C41.3438 95.0516 42.7781 94.5955 44.2531 94.266C45.126 94.071 46.0465 93.9048 46.945 93.7042C46.9455 94.4894 46.9488 95.2727 46.9464 96.051C46.9429 97.2864 46.8191 98.7618 47.1199 100.085ZM47.6277 83.0875C47.5215 84.2432 47.4072 85.397 47.278 86.5476C46.0298 86.1557 44.5546 86.0596 43.2776 85.8841C43.8318 85.6223 44.3518 85.262 44.8104 84.9731C45.7684 84.37 46.6666 83.6887 47.6277 83.0875ZM28.0893 88.5508C31.3747 87.7994 35.0052 87.2141 38.3914 87.5516C40.2091 87.7328 41.984 88.064 43.8159 88.1467C44.8277 88.1924 46.0261 88.3115 47.1104 88.1915C47.0166 89.327 46.9762 90.4729 46.9582 91.6195C46.0955 91.7913 45.222 92.1074 44.436 92.2884C42.8257 92.6589 41.1891 93.2214 39.5385 93.4305C36.9275 93.7612 33.6327 92.9995 30.7909 92.5159C27.3334 91.9277 23.779 91.8609 20.3484 91.1202C19.4372 90.9236 18.5304 90.8214 17.6163 90.7541C21.1231 90.1284 24.6369 89.3402 28.0893 88.5508ZM14.0544 93.1255C14.0593 92.879 14.0469 92.3113 14.1424 91.8852C14.5623 92.0308 15.0046 92.144 15.4764 92.2307C17.1658 92.541 18.8392 92.7573 20.52 93.1136C24.0257 93.8563 27.6871 93.948 31.2221 94.5503C33.4484 94.9295 35.8958 95.4454 38.2155 95.4081C38.1232 95.7766 38.1025 96.1633 38.1135 96.4466C38.124 96.711 38.1353 96.9803 38.1493 97.2505C38.1119 97.2449 38.0751 97.2367 38.0377 97.2316C36.0554 96.9592 33.8589 97.1652 31.8737 97.3277C27.5222 97.6837 23.1538 97.6073 18.7957 97.9052C17.3906 98.0012 15.9894 98.1159 14.5898 98.2471C14.6613 98.0559 14.6769 97.837 14.6121 97.5953C14.2282 96.1656 14.0256 94.5981 14.0544 93.1255ZM26.8758 117.422C26.2977 117.351 25.7339 117.23 25.1945 117.037C23.7559 116.524 22.5176 115.784 21.1546 115.149C19.5163 114.385 17.7409 113.835 16.0402 113.195C14.6519 112.671 13.284 112.019 11.9398 111.414C10.556 110.79 8.23233 110.074 7.86083 108.634C7.50171 107.243 7.31502 105.75 7.18885 104.327C7.12079 103.56 7.07452 102.8 6.98252 102.034C6.9602 101.848 6.94782 101.652 6.92442 101.462C6.95051 101.461 6.97634 101.459 7.00243 101.458C7.93131 102.118 9.09772 102.547 10.2192 102.892C11.3853 103.252 12.5238 103.556 13.6332 104.046C14.7294 104.529 15.7462 105.126 16.8645 105.572C18.7308 106.318 20.464 107.315 22.3471 108.017C23.3863 108.405 24.4623 108.717 25.4896 109.13C25.955 109.317 26.4209 109.535 26.903 109.707C26.3173 112.21 26.6539 114.884 26.8758 117.422ZM26.0225 107.425C25.1351 107.088 24.2124 106.829 23.3064 106.536C21.3278 105.896 19.4803 104.913 17.5316 104.194C15.4194 103.414 13.5457 102.412 11.3267 101.834C10.719 101.676 10.1164 101.507 9.51629 101.332C9.53082 101.331 9.54588 101.331 9.56068 101.33C10.5218 101.317 11.476 101.216 12.4291 101.116C14.5472 100.892 16.6676 100.715 18.7954 100.574C22.5956 100.324 26.4123 100.438 30.2064 100.171C32.1693 100.033 34.1126 99.9245 36.0828 99.8995C38.304 99.8711 40.2737 100.674 42.2807 101.422C43.8009 101.988 45.3366 102.383 46.9038 102.837C48.2072 103.215 49.6407 103.412 50.8391 104.012C50.8714 104.028 49.5137 104.473 49.3427 104.489C48.6774 104.55 48.0087 104.623 47.3348 104.731C45.8528 104.969 44.3703 105.205 42.8951 105.473C38.5466 106.262 34.2382 107.221 29.8906 108.027C29.2648 108.143 28.7056 108.275 28.0688 108.181C27.3406 108.073 26.6923 107.679 26.0225 107.425ZM45.5427 114.539C42.14 115.288 38.6698 115.729 35.2527 116.401C33.4207 116.762 31.3174 117.302 29.2627 117.457C29.115 116.27 28.7917 115.087 28.7459 113.889C28.6962 112.594 28.6701 111.301 28.5143 110.014C30.5483 110.01 32.7617 109.298 34.7335 108.925C36.9845 108.5 39.2668 108.124 41.4949 107.622C43.6572 107.134 45.8768 106.786 48.0678 106.416C50.0983 106.073 52.1796 105.694 54.2378 105.551C54.2795 105.548 54.3185 105.54 54.3583 105.533C54.4815 106.036 54.386 106.552 54.344 107.089C54.216 108.727 53.9685 110.665 54.7225 112.198C51.683 113.003 48.6185 113.863 45.5427 114.539ZM108.739 95.9212C108.585 98.3577 108.346 100.791 107.642 103.161C106.925 105.576 105.683 107.761 103.893 109.711C102.082 111.685 99.5849 112.51 96.8763 113.241C90.9652 114.835 84.4418 115.462 78.27 115.24C76.7226 115.184 75.1751 115.197 73.6299 115.146C72.0791 115.093 70.5134 114.718 68.9941 114.455C66.0479 113.947 63.024 113.515 60.2062 112.575C59.1267 112.214 57.6781 111.846 57.3238 110.781C56.9421 109.632 57.1576 108.083 57.128 106.892C57.0709 104.607 56.1222 102.928 53.725 101.875C52.7897 101.464 51.3973 101.085 50.8149 100.257C50.1637 99.3313 50.4351 97.8637 50.4324 96.8343C50.4246 94.0518 50.4913 91.2768 50.5416 88.4976C50.6503 82.4927 51.0385 76.4718 51.2405 70.461C51.3481 67.2569 51.3887 64.0291 51.3492 60.824C51.3231 58.7001 51.612 56.4154 51.3489 54.2575C52.4475 54.6754 53.5722 55.0106 54.7405 55.3117C54.9218 57.2371 55.4644 59.1213 55.5849 61.0553C55.7418 63.5695 55.4443 66.0857 55.1405 68.5832C54.8352 71.095 54.6736 73.5803 54.8403 76.1071C54.9132 77.2103 55.058 78.3098 55.2282 79.4043C55.4262 80.6774 55.3738 81.9285 55.3867 83.2099C55.3988 84.4108 55.2355 85.5958 55.2328 86.7934C55.2296 88.158 55.2595 89.4998 55.0924 90.8591C54.7986 93.2514 54.4581 95.7873 54.8484 98.1859C55.4862 102.104 58.9072 105.712 62.6918 107.662C64.6792 108.685 67.0578 109.485 69.3137 109.978C71.8673 110.537 74.5561 111.087 77.1816 111.295C80.071 111.523 83.0725 111.337 85.9587 111.136C88.6673 110.948 91.3668 110.57 93.9573 109.848C95.9878 109.282 98.0355 108.55 99.5441 107.192C101.146 105.75 102.219 103.849 103.005 101.975C103.875 99.9013 104.593 97.5998 104.876 95.4034C105.017 94.3101 105.067 93.2064 105.08 92.1067C105.095 90.8842 104.805 89.6931 104.785 88.4744C104.761 87.0309 105.096 85.6234 105.143 84.1898C105.183 82.9687 105.066 81.7832 105.231 80.5624C105.619 77.6922 105.864 74.7906 105.724 71.8968C105.596 69.2357 104.933 66.7596 105.388 64.0938C105.606 62.8195 105.845 61.5222 105.948 60.2369C106.054 58.9075 105.839 57.7551 105.695 56.4682C106.521 56.3107 107.371 56.1637 108.209 55.9802C108.231 57.115 108.535 58.2255 108.517 59.3634C108.495 60.7584 108.522 62.1234 108.585 63.5186C108.696 65.9941 108.763 68.4939 108.764 70.972C108.767 76.5121 108.959 82.0342 109.064 87.5727C109.117 90.3595 108.915 93.1403 108.739 95.9212ZM110.965 52.0842C109.39 53.4473 106.641 53.62 104.564 53.9913C102.14 54.4244 99.7316 54.8693 97.2863 55.2025C94.6094 55.5672 91.9484 55.8513 89.246 56.0032C87.0406 56.1269 84.8146 56.0121 82.601 56.0531C82.4285 54.6986 83.1218 53.7998 83.9425 52.6896C86.0469 53.058 88.553 52.8058 90.5202 52.6389C93.1813 52.413 95.8552 52.195 98.4992 51.85C101.217 51.4954 103.907 51.0536 106.61 50.6322C107.92 50.4279 109.278 50.1025 110.534 49.7182C111.095 49.5466 111.513 49.2639 111.933 48.9804C111.943 49.0122 111.953 49.0436 111.962 49.0755C112.288 50.201 111.908 51.2683 110.965 52.0842ZM111.631 46.7756C111.556 47.0327 111.545 47.2825 111.566 47.5289C111.042 47.6135 110.564 47.7914 109.98 47.9662C108.883 48.2941 107.704 48.5892 106.57 48.7996C103.911 49.2935 101.215 49.6856 98.5261 50.0461C95.6911 50.4264 92.8229 50.6674 89.9709 50.9371C88.6797 51.0593 87.3904 51.0939 86.0929 51.1312C85.6964 51.1427 85.2964 51.1443 84.8977 51.1551C85.2846 50.4178 85.6031 49.6652 85.9697 48.8768C86.0017 48.8079 86.0346 48.7399 86.0671 48.6712C86.5677 48.6886 87.0788 48.6461 87.5991 48.6152C88.8484 48.5409 90.1001 48.4521 91.3442 48.3288C93.8417 48.0813 96.3641 47.7356 98.8371 47.3477C101.51 46.9282 104.164 46.4768 106.792 45.8765C108.272 45.5386 110.142 45.4054 111.666 44.8685C111.811 45.1434 112.1 45.517 112.095 45.7788C112.09 46.0804 111.719 46.469 111.631 46.7756ZM111.587 42.622C111.535 42.7544 111.495 42.8833 111.462 43.0111C110.998 43.0872 110.541 43.2147 110.046 43.3052C108.847 43.5241 107.686 43.7388 106.506 44.0306C103.989 44.6529 101.441 45.1225 98.8761 45.566C96.4787 45.9804 94.0458 46.3584 91.632 46.6914C90.0557 46.9089 88.2703 47.0245 86.6511 47.4187C86.9758 46.675 87.2311 45.9175 87.2583 45.0794C87.2688 44.7557 87.2368 44.4389 87.1741 44.1293C88.5769 44.362 90.1463 44.2568 91.4351 44.2155C93.992 44.1332 96.5497 43.6638 99.0843 43.3882C101.883 43.0839 104.731 42.6086 107.379 41.7518C109.1 41.1951 111.174 40.7852 112.825 39.9344C112.826 39.9567 112.83 39.979 112.83 40.001C112.84 40.9099 111.921 41.7806 111.587 42.622Z" fill="black"/>
</g>
<defs>
<filter id="filter0_d_30_568" x="0" y="0" width="120" height="128" filterUnits="userSpaceOnUse" color-interpolation-filters="sRGB">
<feFlood flood-opacity="0" result="BackgroundImageFix"/>
<feColorMatrix in="SourceAlpha" type="matrix" values="0 0 0 0 0 0 0 0 0 0 0 0 0 0 0 0 0 0 127 0" result="hardAlpha"/>
<feOffset dy="4"/>
<feGaussianBlur stdDeviation="2"/>
<feComposite in2="hardAlpha" operator="out"/>
<feColorMatrix type="matrix" values="0 0 0 0 0 0 0 0 0 0 0 0 0 0 0 0 0 0 0.25 0"/>
<feBlend mode="normal" in2="BackgroundImageFix" result="effect1_dropShadow_30_568"/>
<feBlend mode="normal" in="SourceGraphic" in2="effect1_dropShadow_30_568" result="shape"/>
</filter>
</defs>
</svg>
