<svg width="120" height="128" viewBox="0 0 120 128" fill="none" xmlns="http://www.w3.org/2000/svg">
<g filter="url(#filter0_d_30_396)">
<path d="M41.6559 1.65255L7.2279 22.9496C5.02273 24.3135 4.26708 27.3347 5.54048 29.6974L36.9685 88.021L79.3822 61.7841L47.9538 3.46053C46.6808 1.09781 43.8611 0.288168 41.6559 1.65255Z" fill="#725246"/>
<path d="M79.3805 61.7842L36.9668 88.0211L52.3348 116.541C53.6077 118.904 56.4275 119.714 58.6326 118.349L93.0611 97.0521C95.2663 95.6882 96.0219 92.667 94.7485 90.3043L79.3805 61.7842Z" fill="#C77B61"/>
<path d="M71.3965 66.724L86.7645 95.2441C88.0374 97.6068 87.2822 100.628 85.077 101.992L93.0628 97.0521C95.268 95.6882 96.0236 92.667 94.7502 90.3043L79.3822 61.7842L71.3965 66.724Z" fill="#5E3E2F"/>
<path d="M79.3805 61.7842L36.9668 88.0211L46.113 96.652C47.0508 97.5372 48.4758 97.4601 49.326 96.4786L79.3805 61.7842Z" fill="#FEDBB0"/>
<path d="M50.37 22.8796L37.9923 30.5363C37.5511 30.809 36.9873 30.6474 36.7328 30.1747L29.5866 16.9127C29.3321 16.44 29.4828 15.8359 29.9241 15.5632L42.3017 7.90644C42.7429 7.63376 43.3068 7.7953 43.5613 8.26804L50.7075 21.53C50.962 22.0022 50.8112 22.6064 50.37 22.8796Z" fill="#5E3E2F"/>
<path d="M32.4012 33.9938L20.0236 41.6505C19.5824 41.9232 19.0185 41.7617 18.764 41.289L11.6178 28.027C11.3633 27.5543 11.5141 26.9501 11.9553 26.6774L24.333 19.0207C24.7742 18.748 25.338 18.9096 25.5925 19.3823L32.7387 32.6443C32.9932 33.1165 32.8424 33.7206 32.4012 33.9938Z" fill="#5E3E2F"/>
<path d="M53.1512 72.4958L40.7736 80.1525C40.3324 80.4252 39.7685 80.2637 39.514 79.7909L32.3678 66.5289C32.1133 66.0562 32.2641 65.4521 32.7053 65.1794L45.083 57.5227C45.5242 57.25 46.088 57.4115 46.3425 57.8842L53.4887 71.1462C53.7432 71.6189 53.5924 72.2231 53.1512 72.4958Z" fill="#5E3E2F"/>
<path d="M71.12 61.3815L58.7423 69.0382C58.3011 69.3109 57.7373 69.1494 57.4828 68.6767L50.3366 55.4147C50.0821 54.942 50.2328 54.3378 50.6741 54.0651L63.0517 46.4084C63.4929 46.1357 64.0568 46.2972 64.3113 46.77L71.4575 60.032C71.712 60.5047 71.5612 61.1088 71.12 61.3815Z" fill="#5E3E2F"/>
<path d="M42.7762 53.2453L30.3986 60.902C29.9574 61.1747 29.3935 61.0132 29.139 60.5404L21.9928 47.2785C21.7383 46.8057 21.8891 46.2016 22.3303 45.9289L34.708 38.2722C35.1492 37.9995 35.713 38.161 35.9675 38.6338L43.1137 51.8957C43.3682 52.368 43.2174 52.9726 42.7762 53.2453Z" fill="#5E3E2F"/>
<path d="M60.745 42.1305L48.3673 49.7873C47.9261 50.0599 47.3623 49.8984 47.1078 49.4257L39.9616 36.1637C39.7071 35.691 39.8578 35.0868 40.2991 34.8142L52.6767 27.1574C53.1179 26.8847 53.6818 27.0463 53.9363 27.519L61.0825 40.781C61.337 41.2532 61.1862 41.8579 60.745 42.1305Z" fill="#5E3E2F"/>
<path d="M92.0268 24.0513V16.4054C92.0268 15.8596 91.6142 15.4175 91.1047 15.4175H88.0309C87.5215 15.4175 87.1088 15.8596 87.1088 16.4054V24.0513C87.1088 27.4158 85.4002 30.5057 82.6565 32.1413C71.9253 38.5393 64.0566 58.7022 64.0566 74.5532C64.0566 93.6505 83.728 119.012 89.5676 119.012C95.4076 119.012 115.079 93.6505 115.079 74.5532C115.079 58.7027 107.21 38.5393 96.4791 32.1413C93.7354 30.5052 92.0268 27.4158 92.0268 24.0513Z" fill="#E59A5C"/>
<path d="M96.4809 32.1413C93.7373 30.5052 92.0286 27.4158 92.0286 24.0513V16.4054C92.0286 15.8596 91.616 15.4175 91.1065 15.4175H88.0328C87.5233 15.4175 87.1107 15.8596 87.1107 16.4054V24.0508C87.1107 26.334 86.3223 28.4888 84.959 30.1505C85.6049 30.9379 86.3781 31.6152 87.2601 32.1413C97.9913 38.5393 105.86 58.7022 105.86 74.5532C105.86 90.0138 92.9682 109.578 84.9594 116.469C86.8433 118.089 88.4579 119.012 89.5699 119.012C95.4099 119.012 115.081 93.6505 115.081 74.5532C115.08 58.7027 107.212 38.5393 96.4809 32.1413Z" fill="#C68254"/>
<path d="M89.5693 112.787C101.027 112.787 110.316 95.6691 110.316 74.5531C110.316 53.4372 101.027 36.3193 89.5693 36.3193C78.111 36.3193 68.8223 53.4372 68.8223 74.5531C68.8223 95.6691 78.111 112.787 89.5693 112.787Z" fill="#5E3E2F"/>
<path d="M91.1844 50.4399H87.9571C85.8354 50.4399 84.1152 52.283 84.1152 54.5563C84.1152 56.8296 85.8354 58.6727 87.9571 58.6727H91.1844C93.3061 58.6727 95.0263 56.8296 95.0263 54.5563C95.0263 52.283 93.3061 50.4399 91.1844 50.4399Z" fill="#FEDBB0"/>
<path d="M90.2623 85.5127H88.8792C86.248 85.5127 84.1152 87.7979 84.1152 90.617C84.1152 93.4362 86.248 95.7213 88.8792 95.7213H90.2623C92.8935 95.7213 95.0263 93.4362 95.0263 90.617C95.0263 87.7979 92.8935 85.5127 90.2623 85.5127Z" fill="#FEDBB0"/>
<path d="M96.5625 65.2667V66.5694C96.5625 69.0289 98.4233 71.0226 100.719 71.0226H100.98C103.598 71.0226 105.578 68.4579 105.061 65.7084C104.973 65.241 104.879 64.7737 104.779 64.3074C104.341 62.2707 102.669 60.8135 100.719 60.8135C98.4233 60.8135 96.5625 62.8072 96.5625 65.2667Z" fill="#FEDBB0"/>
<path d="M96.5625 89.2635V93.9223C96.5625 94.9161 97.3145 95.7218 98.2421 95.7218C98.8308 95.7218 99.3809 95.3943 99.681 94.8514C100.639 93.118 101.553 91.271 102.373 89.3648C103.146 87.5662 101.912 85.5132 100.063 85.5132C98.1296 85.5127 96.5625 87.1917 96.5625 89.2635Z" fill="#FEDBB0"/>
<path d="M100.956 83.3717C103.132 83.3717 104.983 81.6645 105.302 79.3576C105.342 79.0726 105.379 78.7866 105.415 78.5021C105.772 75.6765 103.722 73.1626 101.061 73.1626H100.955C98.5293 73.1626 96.5625 75.2699 96.5625 77.8693V78.6651C96.563 81.2649 98.5293 83.3717 100.956 83.3717Z" fill="#FEDBB0"/>
<path d="M90.2623 60.8135H88.8792C86.248 60.8135 84.1152 63.0986 84.1152 65.9178C84.1152 68.737 86.248 71.0221 88.8792 71.0221H90.2623C92.8935 71.0221 95.0263 68.737 95.0263 65.9178C95.0263 63.0986 92.8935 60.8135 90.2623 60.8135Z" fill="#FEDBB0"/>
<path d="M88.8792 83.3717H90.2623C92.8935 83.3717 95.0263 81.0866 95.0263 78.2674C95.0263 75.4483 92.8935 73.1631 90.2623 73.1631H88.8792C86.248 73.1631 84.1152 75.4483 84.1152 78.2674C84.1148 81.0866 86.248 83.3717 88.8792 83.3717Z" fill="#FEDBB0"/>
<path d="M82.5781 93.9223V89.2635C82.5781 87.1922 81.0111 85.5127 79.0774 85.5127C77.2291 85.5127 75.9944 87.5657 76.7676 89.3643C77.5873 91.2706 78.5016 93.1181 79.4592 94.851C79.7593 95.3938 80.3093 95.7213 80.8981 95.7213C81.8262 95.7213 82.5781 94.9162 82.5781 93.9223Z" fill="#FEDBB0"/>
<path d="M80.623 50.4399C79.919 50.4399 79.2717 50.845 78.9208 51.499C78.2048 52.8338 77.5423 54.2698 76.9416 55.775C76.3938 57.1482 77.3537 58.6732 78.7475 58.6732C80.8632 58.6732 82.5778 56.8355 82.5778 54.5691V52.5349C82.5783 51.3775 81.7032 50.4399 80.623 50.4399Z" fill="#FEDBB0"/>
<path d="M92.2162 97.8623H86.9253C85.3734 97.8623 84.1152 99.2104 84.1152 100.873C84.1152 101.621 84.3776 102.341 84.8432 102.897C84.8654 102.924 84.8879 102.95 84.9101 102.977C87.4131 105.916 91.728 105.916 94.231 102.977C94.2536 102.951 94.2757 102.924 94.2979 102.897C94.764 102.341 95.0258 101.621 95.0258 100.873C95.0263 99.2104 93.7681 97.8623 92.2162 97.8623Z" fill="#FEDBB0"/>
<path d="M82.5785 66.5694V65.2667C82.5785 62.8072 80.7177 60.8135 78.4222 60.8135C76.4719 60.8135 74.8002 62.2707 74.3627 64.3074C74.2626 64.7737 74.1686 65.241 74.0805 65.7084C73.5637 68.4584 75.5429 71.0226 78.1612 71.0226H78.4226C80.7177 71.0221 82.5785 69.0284 82.5785 66.5694Z" fill="#FEDBB0"/>
<path d="M86.3273 48.299H92.8138C94.0355 48.299 95.0263 47.238 95.0263 45.9284C95.0263 45.1074 94.6289 44.3442 93.9788 43.9095C92.5763 42.9714 91.0982 42.4438 89.5708 42.4438C88.0429 42.4438 86.5652 42.9714 85.1627 43.9095C84.5127 44.3442 84.1152 45.1074 84.1152 45.9284C84.1148 47.238 85.1056 48.299 86.3273 48.299Z" fill="#FEDBB0"/>
<path d="M96.5625 52.5344V54.5687C96.5625 56.8355 98.2776 58.6727 100.393 58.6727C101.787 58.6727 102.747 57.1477 102.199 55.7745C101.598 54.2688 100.935 52.8333 100.219 51.4986C99.8686 50.8445 99.2213 50.4395 98.5173 50.4395C97.4376 50.4399 96.5625 51.3775 96.5625 52.5344Z" fill="#FEDBB0"/>
<path d="M78.1857 73.1631H78.0801C75.4189 73.1631 73.3691 75.677 73.726 78.5026C73.762 78.7871 73.7998 79.0731 73.8389 79.3581C74.1585 81.665 76.0086 83.3722 78.1852 83.3722C80.6112 83.3722 82.578 81.2649 82.578 78.6656V77.8698C82.5785 75.2704 80.6117 73.1631 78.1857 73.1631Z" fill="#FEDBB0"/>
<path d="M89.5674 120C86.211 120 80.5757 113.906 76.548 108.408L59.0938 119.205C56.4525 120.84 53.0619 119.867 51.5359 117.036L4.73992 30.1914C3.21479 27.3609 4.1235 23.7282 6.76575 22.0936L41.1933 0.796484C42.4727 0.00462955 43.9651 -0.204819 45.3916 0.204198C46.819 0.614204 48.0121 1.59476 48.7507 2.96606L70.9781 44.2156C74.2419 38.1791 78.1026 33.7249 82.2073 31.2777C84.6615 29.8145 86.1861 27.0453 86.1861 24.0512V16.4063C86.1861 15.3166 87.0132 14.4304 88.0303 14.4304H91.1036C92.1207 14.4304 92.9478 15.3166 92.9478 16.4063V24.0522C92.9478 27.0467 94.4725 29.8155 96.9271 31.2787C108.336 38.0813 116 59.1467 116 74.5536C116 83.0521 112.089 93.9701 105.271 104.507C100.442 111.969 93.4683 120 89.5674 120ZM76.7827 106.133C77.0611 106.133 77.335 106.269 77.5153 106.521C82.9146 114.073 87.6656 118.024 89.5674 118.024C91.8335 118.024 97.9022 112.426 103.755 103.381C110.365 93.1668 114.156 82.6593 114.156 74.5536C114.156 59.7074 106.873 39.4694 96.0308 33.0052C92.9921 31.1937 91.1041 27.763 91.1041 24.0517V16.4063H88.0308V24.0522C88.0308 27.763 86.1432 31.1942 83.1045 33.0057C78.968 35.4716 75.0607 40.202 71.8034 46.686C71.6448 47.0017 71.3396 47.2003 71.0058 47.2057C71.0007 47.2057 70.9961 47.2057 70.992 47.2057C70.6628 47.2057 70.3585 47.018 70.1934 46.7117L47.1537 3.95501C46.6617 3.04065 45.866 2.38661 44.9148 2.11344C43.9623 1.84027 42.9683 1.98056 42.1158 2.50814L7.68737 23.8052C5.92619 24.8949 5.32037 27.3164 6.33698 29.204L53.1329 116.048C54.1496 117.935 56.4101 118.583 58.1712 117.494L76.3221 106.266C76.4669 106.176 76.6259 106.133 76.7827 106.133Z" fill="#422618"/>
</g>
<defs>
<filter id="filter0_d_30_396" x="0" y="0" width="120" height="128" filterUnits="userSpaceOnUse" color-interpolation-filters="sRGB">
<feFlood flood-opacity="0" result="BackgroundImageFix"/>
<feColorMatrix in="SourceAlpha" type="matrix" values="0 0 0 0 0 0 0 0 0 0 0 0 0 0 0 0 0 0 127 0" result="hardAlpha"/>
<feOffset dy="4"/>
<feGaussianBlur stdDeviation="2"/>
<feComposite in2="hardAlpha" operator="out"/>
<feColorMatrix type="matrix" values="0 0 0 0 0 0 0 0 0 0 0 0 0 0 0 0 0 0 0.25 0"/>
<feBlend mode="normal" in2="BackgroundImageFix" result="effect1_dropShadow_30_396"/>
<feBlend mode="normal" in="SourceGraphic" in2="effect1_dropShadow_30_396" result="shape"/>
</filter>
</defs>
</svg>
