<svg width="117" height="128" viewBox="0 0 117 128" fill="none" xmlns="http://www.w3.org/2000/svg">
<g filter="url(#filter0_d_30_309)">
<path d="M81.9382 51.1055C89.9369 35.6868 92.6937 20.8561 88.0958 17.9803C83.4979 15.1045 73.2863 25.2725 65.2876 40.6913C57.2889 56.11 54.532 70.9407 59.13 73.8165C63.7279 76.6923 73.9395 66.5243 81.9382 51.1055Z" fill="#74BF63"/>
<path d="M88.0597 17.9658C85.1823 19.3778 82.4525 21.0772 79.8977 23.0397C80.1321 32.7242 77.9522 42.3484 73.4596 51.0279C69.7658 58.164 64.7605 64.1747 58.8008 68.753C58.8416 70.444 58.9562 72.1371 59.1449 73.8269C68.7341 69.1213 76.6884 61.2228 81.9653 51.0279C87.2427 40.833 89.3287 29.334 88.0597 17.9658Z" fill="#6DB35D"/>
<path d="M39.8035 98.422C54.8484 98.422 67.0446 77.1983 67.0446 51.0176C67.0446 24.8369 54.8484 3.61328 39.8035 3.61328C24.7587 3.61328 12.5625 24.8369 12.5625 51.0176C12.5625 77.1983 24.7587 98.422 39.8035 98.422Z" fill="#C5713F"/>
<path d="M54.0048 66.3219C54.0048 66.3219 61.4333 41.9917 54.9041 17.1673C53.474 11.7304 50.7072 4.73458 45.0055 2.54323C38.6026 0.0824127 35.0684 4.32737 35.0684 4.32737C35.0684 4.32737 55.5786 3.58182 54.0048 66.3219Z" fill="#FFC597"/>
<path d="M56.5803 98.6101C59.2 93.5601 49.9436 82.3484 35.9054 73.568C21.8672 64.7877 8.36327 61.7637 5.7435 66.8137C3.12374 71.8637 12.3802 83.0754 26.4184 91.8557C40.4566 100.636 53.9605 103.66 56.5803 98.6101Z" fill="#74BF63"/>
<path d="M35.8174 73.5669C27.0299 68.0769 17.1783 65.7305 7.37109 66.6811C14.2901 67.3533 21.0693 69.6671 27.3115 73.5669C36.5911 79.3646 43.7803 88.1034 48.0633 98.6388C47.5144 98.7128 46.9654 98.776 46.4161 98.8293C49.7828 99.1564 53.1822 99.095 56.5693 98.6388C52.2863 88.1034 45.097 79.3646 35.8174 73.5669Z" fill="#6DB35D"/>
<path d="M40.9388 106.768C55.6548 99.4604 65.8168 89.2444 63.6362 83.9501C61.4557 78.6558 47.7582 80.288 33.0422 87.5958C18.3262 94.9035 8.1642 105.12 10.3448 110.414C12.5254 115.708 26.2228 114.076 40.9388 106.768Z" fill="#BADE7A"/>
<path d="M37.0039 98.9783C37.0039 109.157 50.2114 120.803 75.0431 117.131C96.5868 113.944 116.684 95.4107 110.161 68.1382" fill="#C5713F"/>
<path d="M90.313 100.607C71.2366 112.171 43.0757 110.731 38.3006 103.813C33.1681 96.3774 43.6711 72.2353 62.7474 60.6719C81.8238 49.1085 99.7701 50.9104 107.382 61.9384C114.994 72.9664 109.389 89.044 90.313 100.607Z" fill="#E89E72"/>
<path d="M56.8669 101.029C49.6335 101.029 45.2963 99.6912 43.9183 98.8739C41.1375 83.1996 47.4045 64.3787 61.6735 56.3247C74.4088 49.1363 94.1484 50.6806 101.978 65.6157C103.652 68.8092 103.889 72.7714 102.149 76.973C95.4543 93.1369 74.0799 101.029 56.8669 101.029Z" fill="#FFD9BB"/>
<path d="M101.977 65.6157C96.3458 54.874 84.5536 51.0591 73.6374 52.4382C81.7241 53.4896 89.2931 57.6463 93.471 65.6157C95.1452 68.8093 95.3823 72.7715 93.6422 76.9727C87.4984 91.8065 68.9915 99.6739 52.6836 100.868C53.9491 100.97 55.3434 101.029 56.8662 101.029C74.0789 101.029 95.4536 93.1365 102.148 76.9727C103.888 72.7715 103.651 68.809 101.977 65.6157Z" fill="#FFCEA8"/>
<path d="M108.655 60.8807C103.842 53.9083 95.217 50.3692 84.9665 51.1516C84.6226 51.0778 84.2756 51.0092 83.9258 50.9461C83.8973 50.941 83.8688 50.9361 83.8403 50.931C88.9186 40.6721 90.9245 29.2247 89.6437 17.7524C89.3237 16.4653 88.579 16.0035 87.4098 16.3666C79.2347 20.3785 72.2443 26.6163 66.9993 34.5403C64.8022 23.8889 60.2662 13.8497 52.4128 6.90041C48.4884 0.776282 39.9439 -2.7955 34.2521 2.76357C27.821 4.88394 21.9893 10.7038 17.7539 19.2603C11.4857 31.6288 9.46018 49.8538 12.096 64.7224C9.91525 64.7016 7.72368 64.838 5.53127 65.1333C4.35957 65.4848 3.93895 66.302 4.26898 67.5855C8.33016 77.5747 14.8691 85.922 23.2477 91.8422C17.3807 96.5369 12.5319 102.548 8.97151 109.603C8.54196 110.85 8.89708 111.704 10.0369 112.165C13.5279 112.976 17.0554 113.378 20.5739 113.378C26.9938 113.378 33.3822 112.037 39.4491 109.383C48.1101 119.825 63.4115 120.619 75.2575 118.866C88.8314 116.859 100.866 109.215 107.449 98.4191C112.749 89.7303 114.287 79.452 111.921 68.6386C111.404 65.9041 110.318 63.2904 108.655 60.8807ZM47.074 77.6427C53.3381 60.5314 67.8135 51.454 84.5909 54.6412C91.7602 56.2456 97.4156 60.42 100.598 66.4897C102.112 69.3783 102.147 72.7528 100.699 76.2485C93.7285 94.3383 62.633 103.257 45.3378 97.6444C44.3315 91.0967 44.9437 84.1075 47.074 77.6427ZM86.697 20.6148C87.4092 31.0163 85.1517 41.4805 80.403 50.5016C76.4548 50.2123 72.4446 50.6045 68.6378 51.6343C68.6677 47.5476 68.4077 43.4498 67.8408 39.4103C72.502 31.3341 78.9815 24.8824 86.697 20.6148ZM61.373 26.3919C64.385 34.693 65.612 43.7626 65.4333 52.671C62.7163 53.7002 60.1041 55.1035 57.7118 56.855C59.9251 43.4477 59.8896 29.2261 56.2828 16.1102C58.2479 19.0534 59.9661 22.5145 61.373 26.3919ZM14.1578 51.0176C14.148 33.4351 20.3648 11.6009 35.2646 6.08738C35.6469 6.12147 36.6676 6.27908 38.0107 6.99941C39.6188 7.86148 42.0306 9.72875 44.3913 13.7269C45.5128 15.6269 48.1896 13.7213 47.0677 11.8216C45.1183 8.51994 42.5267 5.47095 39.2413 3.77087C56.4253 0.391014 56.9008 39.6442 55.4633 49.5589C54.9204 37.8003 53.3861 28.0467 50.8788 20.4598C50.1755 18.3312 47.177 19.5262 47.8804 21.6545C51.0706 31.3077 52.6204 44.741 52.4885 61.5903C48.7916 65.6984 46.0025 70.7305 44.1795 76.1364C43.94 76.4799 43.7042 76.8252 43.4724 77.1722C35.4891 70.1178 25.6009 65.7115 15.3697 64.8723C14.5653 60.4074 14.1578 55.7534 14.1578 51.0176ZM8.13686 68.3687C20.1758 67.374 32.2983 71.7112 41.6542 80.0614C41.0799 81.0326 40.5383 82.0095 40.0328 82.986C35.1399 84.4577 30.4325 86.7301 26.137 89.6936C18.3628 84.5315 12.181 77.1997 8.13686 68.3687ZM12.887 109.189C18.6449 98.9452 27.6634 91.2132 38.0222 87.3274C35.5372 93.4244 34.0765 100.429 37.45 106.478C29.5715 109.745 21.1497 110.672 12.887 109.189ZM104.799 96.4704C92.3901 118.037 56.8162 121.101 43.8633 109.129C48.7314 110.66 53.9375 111.002 58.9775 110.892C70.6314 110.635 82.3341 107.446 91.0855 102.141C93.8629 100.457 96.4349 98.6318 98.7306 96.7151C100.372 95.3447 98.441 92.5563 96.7998 93.9274C94.6272 95.7416 92.1859 97.4735 89.5438 99.0748C81.2309 104.114 70.0666 107.145 58.9135 107.39C52.7129 107.47 43.0833 106.854 39.5735 102.756C36.5709 98.4053 40.1136 90.2818 41.9379 86.4284C41.4865 90.7261 41.6183 95.0565 42.3549 99.209C42.4462 99.7237 42.7424 100.166 43.1626 100.415C45.0026 101.506 49.6967 102.781 56.8689 102.781C73.9555 102.907 96.7192 94.6692 103.603 77.6982C105.467 73.1964 105.382 68.5954 103.362 64.7427C101.399 60.9977 98.6362 57.887 95.2438 55.5311C99.846 56.826 103.61 59.3707 106.113 62.9964C108.446 66.3765 109.428 70.3644 108.952 74.5295C108.457 78.8575 106.401 83.3953 103.005 87.6517C101.715 89.2689 104.029 91.6846 105.404 89.9598C107.019 87.9366 108.352 85.8683 109.4 83.7862C108.719 88.2994 107.18 92.5668 104.799 96.4704Z" fill="black"/>
</g>
<defs>
<filter id="filter0_d_30_309" x="0.160156" y="0" width="116.84" height="127.592" filterUnits="userSpaceOnUse" color-interpolation-filters="sRGB">
<feFlood flood-opacity="0" result="BackgroundImageFix"/>
<feColorMatrix in="SourceAlpha" type="matrix" values="0 0 0 0 0 0 0 0 0 0 0 0 0 0 0 0 0 0 127 0" result="hardAlpha"/>
<feOffset dy="4"/>
<feGaussianBlur stdDeviation="2"/>
<feComposite in2="hardAlpha" operator="out"/>
<feColorMatrix type="matrix" values="0 0 0 0 0 0 0 0 0 0 0 0 0 0 0 0 0 0 0.25 0"/>
<feBlend mode="normal" in2="BackgroundImageFix" result="effect1_dropShadow_30_309"/>
<feBlend mode="normal" in="SourceGraphic" in2="effect1_dropShadow_30_309" result="shape"/>
</filter>
</defs>
</svg>
